<svg width="653" height="399" viewBox="0 0 653 399" fill="none" xmlns="http://www.w3.org/2000/svg">
<g clip-path="url(#clip0_1266_804)">
<path d="M418.918 141.683C419.774 141.683 419.558 140.238 419.558 139.606C419.558 133.556 420.018 116.203 419.351 114.906C418.921 114.071 414.684 112.585 411.473 111.726C411.473 121.262 412.462 139.45 412.462 140.377C412.561 140.407 412.662 140.437 412.762 140.466C415.233 141.188 417.947 141.683 418.918 141.683Z" fill="#1E1E1E"/>
<path d="M411.473 111.726C409.703 111.253 408.812 111.062 407.708 111.062C405.943 111.062 408.064 135.732 408.064 137.887C408.064 138.795 410.292 139.744 412.762 140.466M411.473 111.726C414.684 112.585 418.921 114.071 419.351 114.906C420.018 116.203 419.558 133.556 419.558 139.606C419.558 140.238 419.774 141.683 418.918 141.683C417.947 141.683 415.233 141.188 412.762 140.466M411.473 111.726C411.473 121.262 412.462 139.45 412.462 140.377C412.561 140.407 412.662 140.437 412.762 140.466" stroke="#1E1E1E" stroke-width="3.25536" stroke-linecap="round" stroke-linejoin="round"/>
<path d="M434.74 105.279C435.013 102.299 435.71 100.876 433.049 99.6053C429.272 97.8024 397.022 89.6569 394.518 90.9447C391.42 92.5376 396.551 150.73 396.74 152.115C396.93 153.501 432.584 165.298 432.985 162.621C432.985 144.365 433.067 123.522 434.74 105.279Z" stroke="#1E1E1E" stroke-width="4.20231" stroke-linecap="round" stroke-linejoin="round"/>
<path d="M413.422 137.73C416.632 138.203 418.996 136.784 418.996 133.475C418.996 130.166 415.687 130.166 413.422 130.167C402.296 130.174 398.735 130.4 387.609 130.4C388.205 132.314 388.359 134.767 387.819 136.784C398.686 136.784 402.668 136.146 413.422 137.73Z" fill="white"/>
<path d="M385.43 127.33C382.149 126.166 380.695 125.12 378.339 126.639C375.983 128.158 375.029 128.747 374.557 133.002C374.084 137.257 377.053 140.638 383.539 140.566C385.923 140.54 387.253 138.903 387.819 136.784C388.359 134.767 388.205 132.314 387.609 130.4C387.128 128.854 386.358 127.659 385.43 127.33Z" fill="white"/>
<path d="M387.609 130.4C387.128 128.854 386.358 127.659 385.43 127.33C382.149 126.166 380.695 125.12 378.339 126.639C375.983 128.158 375.029 128.747 374.557 133.002C374.084 137.257 377.053 140.638 383.539 140.566C385.923 140.54 387.253 138.903 387.819 136.784M387.609 130.4C388.205 132.314 388.359 134.767 387.819 136.784M387.609 130.4C398.735 130.4 402.296 130.174 413.422 130.167C415.687 130.166 418.996 130.166 418.996 133.475C418.996 136.784 416.632 138.203 413.422 137.73C402.668 136.146 398.686 136.784 387.819 136.784" stroke="#1E1E1E" stroke-width="3.78208" stroke-linecap="round" stroke-linejoin="round"/>
<path d="M257.312 107.544C258.207 107.544 257.981 106.034 257.981 105.374C257.981 99.0509 258.462 80.9138 257.765 79.5592C257.316 78.6859 252.887 77.1325 249.531 76.2357C249.531 86.2013 250.565 105.211 250.565 106.179C250.669 106.211 250.774 106.242 250.879 106.273C253.461 107.027 256.297 107.544 257.312 107.544Z" fill="#1E1E1E"/>
<path d="M249.531 76.2357C247.682 75.7413 246.75 75.5413 245.596 75.5413C243.752 75.5413 245.968 101.325 245.968 103.577C245.968 104.526 248.297 105.518 250.879 106.273M249.531 76.2357C252.887 77.1325 257.316 78.6859 257.765 79.5592C258.462 80.9138 257.981 99.0509 257.981 105.374C257.981 106.034 258.207 107.544 257.312 107.544C256.297 107.544 253.461 107.027 250.879 106.273M249.531 76.2357C249.531 86.2013 250.565 105.211 250.565 106.179C250.669 106.211 250.774 106.242 250.879 106.273" stroke="#1E1E1E" stroke-width="3.4023" stroke-linecap="round" stroke-linejoin="round"/>
<path d="M273.11 71.7197C273.383 68.7397 274.08 67.3168 271.419 66.0464C267.642 64.2435 235.392 56.098 232.888 57.3859C229.79 58.9787 234.921 117.171 235.111 118.557C235.3 119.942 270.954 131.739 271.355 129.062C271.355 110.806 271.437 89.963 273.11 71.7197Z" stroke="#1E1E1E" stroke-width="4.20231" stroke-linecap="round" stroke-linejoin="round"/>
<path d="M241.427 89.0352C243.854 89.9456 246.237 90.967 248.644 91.927C250.394 92.625 254.336 94.8636 255.754 91.0815C257.173 87.2994 251.418 85.4424 249.209 84.5817C241.1 81.4223 232.959 78.3675 224.847 75.2073C225.167 77.2138 224.987 79.3223 224.402 81.0622C224.252 81.5081 224.034 81.9536 223.76 82.3831C229.544 84.8278 235.545 86.8283 241.427 89.0352Z" fill="white"/>
<path d="M220.936 68.977C215.61 66.0504 212.546 70.5384 211.988 75.4285C211.522 79.5046 212.227 82.4286 215.57 84.9356C218.356 87.0256 222.089 85.0015 223.76 82.3831C224.034 81.9536 224.252 81.5081 224.402 81.0622C224.987 79.3223 225.167 77.2138 224.847 75.2073C224.435 72.6298 223.199 70.2206 220.936 68.977Z" fill="white"/>
<path d="M223.76 82.3831C222.089 85.0015 218.356 87.0256 215.57 84.9356C212.227 82.4286 211.522 79.5046 211.988 75.4285C212.546 70.5384 215.61 66.0504 220.936 68.977C223.199 70.2206 224.435 72.6298 224.847 75.2073M223.76 82.3831C224.034 81.9536 224.252 81.5081 224.402 81.0622C224.987 79.3223 225.167 77.2138 224.847 75.2073M223.76 82.3831C229.544 84.8278 235.545 86.8283 241.427 89.0352C243.854 89.9456 246.237 90.967 248.644 91.927C250.394 92.625 254.336 94.8636 255.754 91.0815C257.173 87.2994 251.418 85.4424 249.209 84.5817C241.1 81.4223 232.959 78.3675 224.847 75.2073" stroke="#1E1E1E" stroke-width="3.78208" stroke-linecap="round" stroke-linejoin="round"/>
<path d="M335.084 122.469C335.949 122.469 335.731 121.009 335.731 120.371C335.731 114.261 336.196 96.7331 335.522 95.424C335.088 94.58 330.808 93.0788 327.565 92.2121C327.565 101.843 328.564 120.214 328.564 121.15C328.664 121.18 328.766 121.21 328.867 121.24C331.363 121.969 334.104 122.469 335.084 122.469Z" fill="#1E1E1E"/>
<path d="M327.565 92.2121C325.777 91.7343 324.877 91.541 323.762 91.541C321.98 91.541 324.121 116.459 324.121 118.635C324.121 119.553 326.372 120.511 328.867 121.24M327.565 92.2121C330.808 93.0788 335.088 94.58 335.522 95.424C336.196 96.7331 335.731 114.261 335.731 120.371C335.731 121.009 335.949 122.469 335.084 122.469C334.104 122.469 331.363 121.969 328.867 121.24M327.565 92.2121C327.565 101.843 328.564 120.214 328.564 121.15C328.664 121.18 328.766 121.21 328.867 121.24" stroke="#1E1E1E" stroke-width="3.28801" stroke-linecap="round" stroke-linejoin="round"/>
<path d="M350.852 85.9113C351.126 82.9314 351.823 81.5085 349.162 80.2381C345.385 78.4352 313.135 70.2897 310.63 71.5776C307.532 73.1704 312.664 131.363 312.853 132.748C313.043 134.133 348.696 145.931 349.098 143.254C349.098 124.998 349.18 104.155 350.852 85.9113Z" stroke="#1E1E1E" stroke-width="4.20231" stroke-linecap="round" stroke-linejoin="round"/>
<path d="M319.841 104.72C322.268 105.63 324.651 106.651 327.058 107.611C328.808 108.309 332.75 110.548 334.168 106.766C335.587 102.984 329.832 101.127 327.623 100.266C319.514 97.1067 311.373 94.0518 303.261 90.8916C303.581 92.8981 303.401 95.0066 302.816 96.7465C302.667 97.1925 302.448 97.638 302.174 98.0675C307.958 100.512 313.959 102.513 319.841 104.72Z" fill="white"/>
<path d="M299.35 84.6613C294.024 81.7347 290.96 86.2227 290.402 91.1128C289.936 95.1889 290.641 98.113 293.984 100.62C296.77 102.71 300.503 100.686 302.174 98.0675C302.448 97.638 302.667 97.1925 302.816 96.7465C303.401 95.0066 303.581 92.8981 303.261 90.8916C302.849 88.3141 301.613 85.9049 299.35 84.6613Z" fill="white"/>
<path d="M302.174 98.0675C300.503 100.686 296.77 102.71 293.984 100.62C290.641 98.113 289.936 95.1889 290.402 91.1128C290.96 86.2227 294.024 81.7347 299.35 84.6613C301.613 85.9049 302.849 88.3141 303.261 90.8916M302.174 98.0675C302.448 97.638 302.667 97.1925 302.816 96.7465C303.401 95.0066 303.581 92.8981 303.261 90.8916M302.174 98.0675C307.958 100.512 313.959 102.513 319.841 104.72C322.268 105.63 324.651 106.651 327.058 107.611C328.808 108.309 332.75 110.548 334.168 106.766C335.587 102.984 329.832 101.127 327.623 100.266C319.514 97.1067 311.373 94.0518 303.261 90.8916" stroke="#1E1E1E" stroke-width="3.78208" stroke-linecap="round" stroke-linejoin="round"/>
<path d="M257.792 212.97C258.726 212.97 258.491 211.393 258.491 210.704C258.491 204.104 258.993 185.17 258.265 183.756C257.796 182.845 253.173 181.223 249.67 180.287C249.67 190.69 250.749 210.534 250.749 211.545C250.857 211.578 250.967 211.61 251.077 211.642C253.772 212.43 256.733 212.97 257.792 212.97Z" fill="#1E1E1E"/>
<path d="M249.67 180.287C247.739 179.771 246.766 179.562 245.562 179.562C243.637 179.562 245.95 206.478 245.95 208.829C245.95 209.82 248.381 210.855 251.077 211.642M249.67 180.287C253.173 181.223 257.796 182.845 258.265 183.756C258.993 185.17 258.491 204.104 258.491 210.704C258.491 211.393 258.726 212.97 257.792 212.97C256.733 212.97 253.772 212.43 251.077 211.642M249.67 180.287C249.67 190.69 250.749 210.534 250.749 211.545C250.857 211.578 250.967 211.61 251.077 211.642" stroke="#1E1E1E" stroke-width="3.55166" stroke-linecap="round" stroke-linejoin="round"/>
<path d="M273.11 175.172C273.383 172.192 274.08 170.769 271.419 169.499C267.643 167.696 235.393 159.55 232.888 160.838C229.79 162.431 234.921 220.623 235.111 222.009C235.301 223.394 270.954 235.191 271.356 232.514C271.356 214.258 271.438 193.415 273.11 175.172Z" stroke="#1E1E1E" stroke-width="4.20231" stroke-linecap="round" stroke-linejoin="round"/>
<path d="M250.482 209.37C253.692 209.843 256.056 208.424 256.056 205.115C256.056 201.806 252.746 201.806 250.482 201.807C239.356 201.814 235.795 202.04 224.669 202.04C225.265 203.954 225.418 206.407 224.879 208.424C235.746 208.424 239.728 207.786 250.482 209.37Z" fill="white"/>
<path d="M222.49 198.97C219.208 197.806 217.754 196.76 215.398 198.279C213.042 199.798 212.089 200.387 211.616 204.642C211.144 208.897 214.112 212.278 220.599 212.206C222.982 212.18 224.313 210.543 224.879 208.424C225.418 206.407 225.265 203.954 224.669 202.04C224.187 200.494 223.417 199.299 222.49 198.97Z" fill="white"/>
<path d="M224.669 202.04C224.187 200.494 223.417 199.299 222.49 198.97C219.208 197.806 217.754 196.76 215.398 198.279C213.042 199.798 212.089 200.387 211.616 204.642C211.144 208.897 214.112 212.278 220.599 212.206C222.982 212.18 224.313 210.543 224.879 208.424M224.669 202.04C225.265 203.954 225.418 206.407 224.879 208.424M224.669 202.04C235.795 202.04 239.356 201.814 250.482 201.807C252.746 201.806 256.056 201.806 256.056 205.115C256.056 208.424 253.692 209.843 250.482 209.37C239.728 207.786 235.746 208.424 224.879 208.424" stroke="#1E1E1E" stroke-width="3.78208" stroke-linecap="round" stroke-linejoin="round"/>
<path d="M335.831 231.762C336.761 231.762 336.527 230.192 336.527 229.506C336.527 222.933 337.027 204.077 336.303 202.668C335.835 201.761 331.231 200.146 327.742 199.213C327.742 209.574 328.816 229.337 328.816 230.343C328.925 230.376 329.034 230.409 329.143 230.441C331.828 231.225 334.776 231.762 335.831 231.762Z" fill="#1E1E1E"/>
<path d="M327.742 199.213C325.819 198.699 324.85 198.491 323.651 198.491C321.734 198.491 324.038 225.297 324.038 227.638C324.038 228.625 326.459 229.656 329.143 230.441M327.742 199.213C331.231 200.146 335.835 201.761 336.303 202.668C337.027 204.077 336.527 222.933 336.527 229.506C336.527 230.192 336.761 231.762 335.831 231.762C334.776 231.762 331.828 231.225 329.143 230.441M327.742 199.213C327.742 209.574 328.816 229.337 328.816 230.343C328.925 230.376 329.034 230.409 329.143 230.441" stroke="#1E1E1E" stroke-width="3.53714" stroke-linecap="round" stroke-linejoin="round"/>
<path d="M351.174 194.033C351.447 191.053 352.144 189.63 349.483 188.36C345.707 186.557 313.457 178.412 310.952 179.699C307.854 181.292 312.985 239.485 313.175 240.87C313.365 242.255 349.018 254.053 349.42 251.376C349.42 233.12 349.502 212.276 351.174 194.033Z" stroke="#1E1E1E" stroke-width="4.20231" stroke-linecap="round" stroke-linejoin="round"/>
<path d="M320.13 210.765C322.557 211.675 324.94 212.697 327.347 213.657C329.097 214.355 333.039 216.593 334.457 212.811C335.876 209.029 330.121 207.172 327.912 206.311C319.803 203.152 311.662 200.097 303.55 196.937C303.87 198.944 303.69 201.052 303.105 202.792C302.956 203.238 302.737 203.683 302.463 204.113C308.247 206.557 314.248 208.558 320.13 210.765Z" fill="white"/>
<path d="M299.639 190.707C294.313 187.78 291.249 192.268 290.691 197.158C290.226 201.234 290.93 204.158 294.273 206.665C297.059 208.755 300.792 206.731 302.463 204.113C302.737 203.683 302.956 203.238 303.105 202.792C303.69 201.052 303.87 198.944 303.55 196.937C303.139 194.36 301.902 191.95 299.639 190.707Z" fill="white"/>
<path d="M302.463 204.113C300.792 206.731 297.059 208.755 294.273 206.665C290.93 204.158 290.226 201.234 290.691 197.158C291.249 192.268 294.313 187.78 299.639 190.707C301.902 191.95 303.139 194.36 303.55 196.937M302.463 204.113C302.737 203.683 302.956 203.238 303.105 202.792C303.69 201.052 303.87 198.944 303.55 196.937M302.463 204.113C308.247 206.557 314.248 208.558 320.13 210.765C322.557 211.675 324.94 212.697 327.347 213.657C329.097 214.355 333.039 216.593 334.457 212.811C335.876 209.029 330.121 207.172 327.912 206.311C319.803 203.152 311.662 200.097 303.55 196.937" stroke="#1E1E1E" stroke-width="3.78208" stroke-linecap="round" stroke-linejoin="round"/>
<path d="M418.438 248.676C419.358 248.676 419.126 247.123 419.126 246.445C419.126 239.947 419.621 221.307 418.904 219.915C418.442 219.017 413.891 217.421 410.442 216.499C410.442 226.741 411.504 246.278 411.504 247.273C411.611 247.305 411.719 247.337 411.827 247.369C414.481 248.144 417.395 248.676 418.438 248.676Z" fill="#1E1E1E"/>
<path d="M410.442 216.499C408.541 215.991 407.583 215.785 406.397 215.785C404.502 215.785 406.78 242.284 406.78 244.599C406.78 245.574 409.173 246.593 411.827 247.369M410.442 216.499C413.891 217.421 418.442 219.017 418.904 219.915C419.621 221.307 419.126 239.947 419.126 246.445C419.126 247.123 419.358 248.676 418.438 248.676C417.395 248.676 414.481 248.144 411.827 247.369M410.442 216.499C410.442 226.741 411.504 246.278 411.504 247.273C411.611 247.305 411.719 247.337 411.827 247.369" stroke="#1E1E1E" stroke-width="3.49663" stroke-linecap="round" stroke-linejoin="round"/>
<path d="M433.849 211.136C434.123 208.156 434.82 206.733 432.159 205.463C428.382 203.66 396.132 195.515 393.628 196.802C390.53 198.395 395.661 256.588 395.85 257.973C396.04 259.358 431.694 271.156 432.095 268.479C432.095 250.223 432.177 229.379 433.849 211.136Z" stroke="#1E1E1E" stroke-width="4.20231" stroke-linecap="round" stroke-linejoin="round"/>
<path d="M403.274 226.159C405.701 227.07 408.084 228.091 410.491 229.051C412.241 229.749 416.183 231.988 417.602 228.206C419.02 224.423 413.265 222.566 411.056 221.706C402.947 218.546 394.806 215.492 386.694 212.331C387.014 214.338 386.834 216.446 386.25 218.186C386.1 218.632 385.881 219.078 385.607 219.507C391.391 221.952 397.392 223.952 403.274 226.159Z" fill="white"/>
<path d="M382.783 206.101C377.457 203.174 374.393 207.662 373.835 212.552C373.37 216.629 374.074 219.553 377.417 222.06C380.204 224.15 383.936 222.126 385.607 219.507C385.881 219.078 386.1 218.632 386.25 218.186C386.834 216.446 387.014 214.338 386.694 212.331C386.283 209.754 385.046 207.345 382.783 206.101Z" fill="white"/>
<path d="M385.607 219.507C383.936 222.126 380.204 224.15 377.417 222.06C374.074 219.553 373.37 216.629 373.835 212.552C374.393 207.662 377.457 203.174 382.783 206.101C385.046 207.345 386.283 209.754 386.694 212.331M385.607 219.507C385.881 219.078 386.1 218.632 386.25 218.186C386.834 216.446 387.014 214.338 386.694 212.331M385.607 219.507C391.391 221.952 397.392 223.952 403.274 226.159C405.701 227.07 408.084 228.091 410.491 229.051C412.241 229.749 416.183 231.988 417.602 228.206C419.02 224.423 413.265 222.566 411.056 221.706C402.947 218.546 394.806 215.492 386.694 212.331" stroke="#1E1E1E" stroke-width="3.78208" stroke-linecap="round" stroke-linejoin="round"/>
<path d="M85.1798 483.982C81.0155 463.16 81.0362 441.376 82.2271 420.204C85.4236 363.378 88.595 275.348 109.737 222.493C112.573 215.402 118.639 206.087 118.005 199.934L118.028 199.948M118.028 199.948C117.345 197.055 116.581 182.259 116.581 182.259M118.028 199.948C118.711 202.84 130.828 239.232 133.063 247.474C153.273 321.995 146.941 410.179 146.941 487.172M91.7127 167.709C76.3914 137.415 88.5374 103.819 106.212 98.4287C139.24 88.3567 148.931 118.45 146.934 146.259C144.708 177.26 107.034 198.002 91.7127 167.709Z" stroke="#1E1E1E" stroke-width="4.49029" stroke-linecap="round"/>
<path d="M144.221 113.19C141.516 112.957 137.062 114.375 126.01 121.176C114.958 127.977 116.47 153.153 131.585 148.419C146.7 143.684 157.184 138.522 155.357 124.22C154.209 115.228 146.925 113.424 144.221 113.19Z" fill="#F6C30F" stroke="#1E1E1E" stroke-width="4.49029" stroke-linecap="round"/>
<path d="M138.572 264.015C321.324 308.973 331.779 303.375 380.262 223.304" stroke="#1E1E1E" stroke-width="4.48481" stroke-linecap="round"/>
<path d="M124.053 219.056C158.311 213.714 218.8 172.881 214.393 86.3708" stroke="#1E1E1E" stroke-width="4.48481" stroke-linecap="round"/>
</g>
<defs>
<clipPath id="clip0_1266_804">
<rect width="653" height="399" fill="white"/>
</clipPath>
</defs>
</svg>
