<svg width="820" height="312" viewBox="0 0 820 312" fill="none" xmlns="http://www.w3.org/2000/svg">
<path opacity="0.5" d="M386.12 204.985C388.076 204.043 389.972 203.503 392.074 202.997C395.514 202.169 398.877 200.969 402.143 199.611C406.819 197.666 411.469 195.928 416.288 194.376C419.148 193.455 421.877 192.059 424.759 191.24C428.067 190.3 431.483 190.051 434.828 189.272C436.741 188.826 438.496 187.997 440.362 187.424C442.538 186.755 444.684 186.417 446.925 186.105C447.275 186.057 450.656 185.695 450.411 186.185C449.568 187.872 446.909 188.684 445.366 189.322C440.992 191.132 436.598 192.887 432.231 194.716C423.52 198.365 413.98 199.614 405.26 203.187C403.127 204.061 401.363 205.334 399.366 206.443C397.599 207.425 395.796 208.321 394.052 209.34C393.242 209.813 390.02 211.127 392.114 211.958C393.887 212.661 396.662 212.224 398.477 211.987C400.235 211.758 401.946 211.398 403.641 210.879C406.88 209.887 409.768 208.094 412.971 207.003C416.819 205.692 420.661 204.352 424.639 203.507C429.529 202.467 434.02 200.766 438.724 199.091C443.193 197.5 447.743 195.96 451.849 193.557C455.11 191.65 458.996 191.133 462.598 190.121C467.202 188.827 471.679 186.81 476.363 185.826C478.332 185.412 480.345 185.196 482.307 184.747C483.705 184.426 485.065 183.795 486.452 183.398C486.884 183.275 487.325 183.052 487.771 182.989C488.442 182.893 487.59 184.443 487.511 184.567C486.478 186.195 484.731 187.406 483.176 188.483C480.585 190.276 477.742 191.766 474.865 193.038C471.138 194.685 467.072 195.373 463.417 197.173C459.914 198.899 456.528 201.073 452.739 202.118C449.154 203.107 445.504 203.629 441.9 204.506C438.123 205.424 434.666 207.066 430.952 208.132C429.072 208.671 427.237 209.173 425.458 209.98C425.174 210.108 422.759 211.4 423.09 211.898C423.327 212.253 424.285 212.301 424.659 212.337C425.859 212.454 427.072 212.533 428.275 212.637C430.178 212.8 432.07 212.897 433.979 212.897C438.476 212.897 442.944 211.952 447.374 211.278C452.022 210.572 456.701 209.754 461.389 209.39C464.234 209.17 467.031 209.121 469.89 209.121C470.589 209.121 472.629 208.816 471.398 209.86C469.133 211.782 465.458 212.606 462.698 213.456C460.268 214.204 457.33 214.68 455.206 216.133C453.51 217.293 451.813 218.643 449.942 219.529C447.114 220.869 443.56 220.331 440.602 219.989C440.067 219.927 433.885 219.368 433.959 219.11C433.989 219.004 440.3 220.463 440.602 220.508C444.759 221.137 449.043 221.347 453.248 221.347C456.846 221.347 460.379 221.211 463.917 220.548C469.013 219.594 474.188 219.216 479.3 218.381C482.216 217.904 486.081 217.048 488.39 215.094C489.067 214.521 489.08 214.28 488.091 213.915C484.076 212.434 479.772 211.62 475.654 210.469C474.434 210.128 473.218 209.774 472.008 209.4C471.048 209.103 471.081 208.911 470.569 208.102C469.97 207.153 468.937 206.73 469.471 205.614C470.223 204.041 473.087 203.57 474.625 203.547C477.592 203.501 480.66 203.335 483.605 203.736C488.126 204.353 492.629 204.812 497.161 205.305C500.255 205.641 503.468 205.884 506.531 205.884C507.681 205.884 508.996 205.709 510.127 205.924C510.51 205.997 510.898 206.207 511.176 205.874C512.085 204.783 505.575 201.661 505.072 201.429C501.851 199.943 498.485 198.777 494.993 198.142C493.349 197.843 491.698 197.567 490.028 197.463C489.593 197.436 488.313 197.423 488.73 197.293C490.777 196.658 493.452 197.053 495.533 197.084C500.184 197.151 504.812 197.584 509.468 197.613C511.766 197.627 514.062 197.699 516.36 197.753C517.711 197.784 519.254 197.973 520.606 197.773C520.988 197.716 520.099 197.163 519.757 196.984C517.944 196.034 515.787 195.738 513.803 195.355C507.912 194.221 501.735 194.604 495.912 193.228C495.191 193.057 494.571 192.626 493.784 192.458C491.158 191.899 488.555 191.568 485.863 191.769C484.366 191.881 482.714 192.035 481.218 191.859C481.009 191.835 481.57 191.627 481.737 191.5C482.414 190.985 483.079 190.613 483.895 190.341C486.119 189.6 488.225 188.796 490.348 187.784C493.57 186.248 497.187 185.661 500.597 184.687C501.839 184.332 502.595 183.465 503.674 182.829C506.523 181.149 509.189 179.37 512.404 178.374C514.029 177.87 515.607 177.685 517.289 177.475C517.558 177.441 517.958 177.671 518.098 177.614C518.756 177.351 519.209 177.213 519.936 177.395C522.073 177.929 524.354 177.531 526.529 177.694C528.903 177.872 530.816 179.316 533.162 179.592C534.634 179.766 536.076 179.812 537.557 179.812C539.014 179.812 540.42 179.967 541.803 179.532C542.998 179.157 544.841 178.811 545.349 177.475C545.645 176.697 545.891 176.055 546.518 175.477C546.834 175.185 549.357 173.721 549.345 173.699C549.029 173.153 547.047 172.756 546.438 172.64C545.423 172.446 543.795 173.506 543.012 174.038C542.624 174.301 541.76 174.877 541.693 175.417C541.613 176.054 545.236 176.094 545.439 176.106C545.89 176.133 550.848 175.941 550.823 176.835C550.811 177.281 550.624 177.704 550.424 178.094C549.434 180.017 548.202 181.861 546.947 183.618C544.891 186.497 542.212 188.83 539.196 190.64C536.136 192.476 533.026 194.107 530.245 196.364C529.473 196.991 521.212 203.372 521.914 203.986C522.762 204.728 525.869 203.627 526.649 203.347C530.395 202.002 532.856 199.887 535.649 197.153C538.345 194.516 541.188 192.475 544.83 191.34C546.813 190.721 549.459 190.619 551.273 189.612C551.681 189.385 551.943 189.115 552.282 188.782C552.738 188.333 553.194 187.885 553.74 187.544C553.803 187.504 554.811 186.945 554.559 186.845C553.877 186.571 551.548 187.445 551.173 187.564C546.659 188.987 542.461 191.243 538.556 193.897C536.129 195.546 534.135 197.737 532.653 200.27C532.413 200.68 530.804 203.424 531.264 203.906C531.778 204.444 533.81 204.335 534.361 204.366C537.043 204.515 539.746 204.584 542.432 204.615C550.136 204.705 557.832 204.564 565.507 203.896C569.584 203.542 573.628 202.5 577.704 202.028C579.351 201.838 581.244 201.951 582.829 201.389C584.424 200.823 585.646 199.42 586.834 198.292C589.109 196.134 593.046 195.261 595.975 194.396C597.985 193.803 600 193.21 602.048 192.758C602.266 192.71 604.983 192.16 604.715 192.429C604.262 192.882 604.068 193.217 603.467 193.437C601.465 194.17 599.352 194.454 597.373 195.295C593.3 197.027 589.351 199.004 585.226 200.63C582.641 201.649 580.163 202.757 577.854 204.316C577.187 204.766 576.372 204.909 576.356 205.784C576.34 206.625 575.443 207.949 575.646 208.661C575.814 209.246 579.195 209.403 579.692 209.4C582.524 209.384 584.605 208.059 586.735 206.304C588.154 205.133 589.761 204.385 591.429 203.626C593.16 202.84 595.428 202.216 596.954 201.029C597.311 200.751 597.58 200.338 597.952 200.05C598.455 199.663 599.197 199.385 599.641 198.942C599.896 198.686 600.064 198.328 600.3 198.052C601.079 197.143 600.762 197.03 599.551 197.153C596.847 197.429 594.153 198.065 591.479 198.532C586.518 199.398 581.545 200.174 576.545 200.79C571.751 201.38 566.963 201.83 562.231 200.61C556.896 199.235 551.497 198.081 546.128 196.834C544.488 196.453 542.854 196.196 541.173 196.075C541.082 196.068 538.502 196.034 538.556 196.105C539.61 197.459 543.458 197.276 544.85 197.433C550.641 198.085 556.423 198.312 562.251 198.312C566.92 198.312 572.151 198.331 576.655 196.854C578.244 196.333 579.009 195.546 579.532 194.047C579.789 193.31 580.037 192.407 580.701 191.929C582.248 190.814 584.434 189.937 586.305 189.582C588.299 189.203 589.896 188.937 591.609 187.803C592.361 187.306 594.52 185.995 594.696 185.026C594.748 184.739 594.921 184.49 594.976 184.207C595.137 183.37 593.303 183.139 592.848 183.029C588.516 181.976 584.114 181.449 579.732 180.671C578.3 180.417 575.44 179.36 574.118 180.441C573.654 180.821 573.3 181.284 572.76 181.57C572.219 181.856 575.97 182.633 576.226 182.679C576.319 182.696 580.165 183.408 578.513 183.408C575.301 183.408 572.139 182.599 568.944 182.349C566.583 182.165 564.216 182.165 561.851 182.06C561.233 182.032 560.563 182.067 559.993 181.79C557.361 180.512 554.027 180.442 551.942 178.234C550.366 176.565 549.627 172.178 552.521 171.351C552.879 171.249 552.37 170.305 552.202 170.202C551.03 169.485 549.532 169.136 548.246 168.704C547.368 168.409 545.814 168.214 545.069 167.575C544.736 167.29 544.747 166.991 544.53 166.646C543.733 165.381 545.024 165.474 546.218 165.348C549.171 165.035 552.401 164.779 555.358 165.108C556.089 165.189 554.661 166.691 554.519 166.866C553.308 168.355 551.866 169.854 550.863 171.501C550.319 172.395 550.892 172.625 551.722 172.909C554.372 173.819 557.379 174.422 560.193 174.198C560.855 174.145 561.728 173.739 562.401 173.888C562.756 173.967 563.713 174.097 563.909 174.418C564.221 174.928 558.073 175.127 557.676 175.137C556.044 175.18 554.471 175.308 552.861 175.577C552.681 175.607 550.741 175.698 550.603 175.996C550.237 176.79 557.715 178.39 558.265 178.533C565.71 180.469 573.032 182.723 580.631 184.038C583.263 184.493 585.617 184.786 588.063 185.846C590.792 187.027 593.409 188.559 596.194 189.592C597.855 190.207 599.589 190.59 601.279 191.11C601.716 191.244 602.982 191.503 603.287 191.939C603.572 192.346 603.724 193.216 603.776 193.697C604.048 196.201 603.143 198.876 601.808 200.969C600.553 202.938 599.271 204.967 597.932 206.873C596.292 209.209 594.765 211.717 592.139 213.016C590.677 213.74 589.159 214.317 587.524 214.475C581.479 215.057 575.299 214.826 569.233 214.954C564.719 215.05 559.949 214.826 555.478 215.454C550.141 216.203 544.715 216.642 539.335 216.922C536.685 217.06 533.419 217.528 530.785 216.712C530.664 216.675 531.87 216.079 531.963 216.033C532.703 215.674 533.343 215.459 534.171 215.424C535.351 215.374 536.307 215.771 537.457 215.913C539.433 216.157 541.221 215.929 543.161 215.594C543.87 215.471 546.53 215.085 545.809 213.756C545.505 213.196 544.969 212.794 544.38 212.587C541.749 211.664 538.735 211.28 535.959 211.218C533.418 211.162 530.846 211.573 528.367 212.097C527.615 212.256 525.668 212.472 526.24 212.986C526.697 213.399 529.65 213.302 527.408 213.256C522.574 213.157 518.086 211.787 513.413 210.749C512.086 210.454 510.761 210.282 509.428 210.519C508.216 210.734 506.755 210.38 505.562 210.189C503.359 209.837 501.147 209.574 498.939 209.26C496.852 208.964 494.609 208.421 492.496 208.421C489.464 208.421 498.34 210.095 501.336 210.559C508.197 211.622 515.112 212.416 521.994 213.326C524.185 213.616 526.372 213.923 528.547 214.315C529.661 214.516 530.94 214.637 532.003 215.054C533.505 215.643 530.769 216.899 530.505 217.042C526.009 219.473 520.63 220.266 515.821 221.947C515.68 221.996 513.712 222.553 513.743 222.846C513.792 223.307 519.677 223.3 520.156 223.315C530.188 223.637 540.234 223.385 550.264 223.725C555.941 223.917 538.889 224.51 533.342 225.733C532.712 225.871 530.861 226.484 532.233 227.241C534.061 228.25 536.858 227.896 538.776 227.84C543.778 227.697 548.809 227.421 553.78 226.822C554.439 226.742 555.205 226.857 555.738 226.462C556.241 226.089 554.486 226.382 553.86 226.382C550.921 226.382 547.985 226.453 545.049 226.582C543.273 226.66 541.69 226.737 539.945 226.891C539.701 226.913 538.971 226.97 539.216 226.981C540.42 227.036 541.615 226.747 542.812 226.602C550.807 225.629 558.774 224.456 566.726 223.185C568.921 222.835 575.49 221.996 573.269 221.897C571.817 221.832 570.335 221.811 568.884 221.847C565.568 221.93 561.448 221.94 558.415 223.485C557.476 223.964 555.867 225.167 555.998 226.422C556.107 227.474 557.054 228.168 557.975 228.48C561.292 229.6 565.229 228.981 568.574 228.46C572.529 227.843 576.403 226.763 580.261 225.723C580.282 225.717 582.953 224.999 583.448 224.854C584.395 224.576 583.096 224.631 582.929 224.624C580.621 224.525 578.302 224.6 575.996 224.704C571.058 224.926 565.803 224.882 561.042 226.382C560.248 226.632 558.085 227.464 558.894 227.661C563.624 228.807 568.921 228.608 573.738 228.68C579.299 228.762 584.86 228.683 590.421 228.799C592.595 228.845 595.519 228.938 597.733 229.039C597.918 229.048 600.928 228.961 601.399 229.369C601.681 229.614 600.701 229.664 600.33 229.708C598.516 229.928 596.534 229.986 594.736 230.038C588.019 230.234 581.296 230.114 574.578 230.198C572.524 230.224 566.397 230.19 568.424 230.518C572.61 231.195 576.916 231.42 581.131 231.876C586.221 232.427 591.32 232.922 596.404 233.534C597.259 233.637 599.04 233.835 600.06 234.084C600.971 234.306 600.131 234.435 599.81 234.473C598.837 234.59 588.363 234.791 588.363 234.204C588.363 233.797 589.175 234.145 589.581 234.154C591.368 234.193 595.423 234.362 596.724 234.413C600.222 234.552 605.187 234.746 608.681 234.923C608.809 234.929 615.76 234.798 616.612 235.692C616.916 236.01 615.772 235.984 615.334 236.012C614.103 236.09 611.633 236.033 610.619 236.012C609.818 235.995 604.073 235.84 603.167 235.812C602.181 235.781 599.272 235.823 600.22 235.552C600.993 235.331 602.854 235.404 603.117 235.402C609.879 235.366 616.644 235.456 623.405 235.512C625.999 235.534 633.719 235.608 631.167 236.072C627.232 236.787 622.617 236.011 618.7 235.702C616.77 235.55 613.569 235.289 611.488 234.953C610.223 234.748 609.693 234.446 611.118 234.114C613.175 233.635 615.334 233.616 617.432 233.494C620.122 233.339 622.808 233.203 625.503 233.135C625.842 233.126 626.861 233.114 626.522 233.135C625.261 233.21 624.164 233.178 622.846 233.115C619.613 232.96 617.173 232.734 613.905 232.376C611.621 232.125 607.533 232.123 605.325 230.897C604.097 230.216 606.164 229.382 606.483 229.279C609.729 228.228 613.124 227.555 616.453 226.822C616.711 226.765 617.476 226.603 617.212 226.592C616.297 226.553 615.381 226.628 614.465 226.632C610.577 226.65 606.755 226.439 602.927 225.743C602.326 225.633 598.129 224.807 597.513 224.684C596.87 224.556 596.226 224.432 595.585 224.294C595.234 224.219 594.734 224.344 594.536 224.045C594.399 223.837 594.973 223.793 595.215 223.735C596.198 223.499 597.196 223.335 598.192 223.165C603.354 222.289 608.544 221.549 613.726 220.798C617.338 220.274 621.178 220.106 624.734 219.27C626.786 218.787 620.492 219.465 618.41 219.13C618.053 219.072 612.115 218.122 613.376 217.122C615.037 215.805 621.5 215.252 619.389 215.054C618.586 214.979 617.712 215.227 616.912 215.234C614.906 215.252 613.103 215.097 611.078 214.854C607.479 214.423 603.596 214.018 600.12 212.907C598.152 212.277 602.608 211.759 602.757 211.738C607.987 210.995 613.257 210.536 618.49 209.8C618.607 209.783 620.714 209.491 621.367 209.34C621.517 209.306 621.06 209.356 620.908 209.38C619.33 209.63 617.784 209.929 616.183 210.01C611.238 210.26 606.267 210.218 601.319 210.11C598.325 210.044 600.838 210.083 598.921 210.03C598.632 210.022 597.478 210.058 598.752 209.86C602.592 209.261 606.488 209.011 610.359 208.701C611.675 208.596 613.47 208.2 614.844 208.411C616.348 208.643 611.819 208.757 610.299 208.821C607.661 208.932 606.014 208.946 603.377 208.911C602.302 208.897 600.018 209.072 598.812 208.761C598.461 208.671 599.516 208.594 599.87 208.521C601.28 208.23 602.396 208.013 603.846 207.762C606.446 207.312 609.063 206.89 611.678 206.533C612.926 206.363 612.006 206.475 611.438 206.513C609.446 206.65 607.483 206.356 605.524 206.004C604.653 205.847 603.144 205.77 603.766 204.466C604.686 202.539 606.69 201.127 608.371 199.92C608.813 199.603 610.17 198.945 609.63 198.882C608.381 198.735 607.279 198.583 606.044 198.232C605.347 198.035 598.04 196.67 601.259 195.275C603.179 194.444 605.367 194.021 607.382 193.517C608.965 193.122 609.574 192.982 611.028 192.668C611.265 192.617 611.957 192.478 611.718 192.439C610.734 192.275 609.608 192.512 608.621 192.538C606.694 192.59 604.953 192.365 603.257 191.37C602.014 190.641 601.58 189.926 602.837 189.002C603.932 188.197 605.182 187.684 606.463 187.264C607.138 187.043 607.346 187.01 606.383 187.004C603.837 186.99 601.358 186.981 598.842 186.515C597.404 186.248 594.911 186.012 593.977 184.657C592.941 183.155 595.775 182.376 596.594 182.09C598.812 181.314 601.094 180.595 603.387 180.072C604.444 179.83 605.274 179.816 603.536 180.092C601.676 180.387 599.776 180.511 597.893 180.511C596.977 180.511 596.633 180.305 597.353 179.572C598.913 177.986 601.464 177.222 603.417 176.246C603.706 176.101 602.767 176.188 602.448 176.236C600.661 176.503 598.905 176.692 597.093 176.715C595.805 176.732 593.829 176.708 592.558 176.596C592.162 176.561 590.249 176.396 589.701 175.956C588.784 175.219 594.026 174.357 594.167 174.338C595.546 174.152 597.108 173.804 598.512 173.908C600.916 174.087 593.681 174.254 591.28 174.038C590.417 173.961 588.886 173.772 587.983 173.419C587.258 173.136 587.527 172.779 588.083 172.64C590.084 172.139 592.29 172.307 594.336 172.26" stroke="#4BBD5E" stroke-width="10.98" stroke-linecap="round"/>
<path d="M254.568 63.0421C247.517 59.5168 246.729 72.176 247.595 76.5633C248.858 82.9551 252.734 90.8033 259.141 93.3024C265.199 95.6657 272.911 94.5065 278.364 91.1571C284.302 87.5094 286.757 81.0212 286.596 74.3562M242.373 66.5988C249.379 53.5881 269.032 44.7949 280.368 57.7917C282.076 59.7495 283.479 62.0791 284.519 64.5999" stroke="black" stroke-width="2" stroke-linecap="round"/>
<path d="M278.223 70.4365C277.398 67.4916 280.149 65.6892 284.038 64.825C287.927 63.9607 291.239 73.703 286.07 74.4789C280.901 75.2549 279.377 74.5591 278.223 70.4365Z" stroke="black" stroke-width="2" stroke-linecap="round"/>
<path d="M265.238 95.05C265.238 97.5553 266.134 100.052 265.633 102.559C264.912 106.165 263.037 109.952 261.681 113.342C256.471 126.366 252.153 139.703 248.358 153.2C243.378 170.906 240.978 189.493 239.946 207.849C239.376 217.969 239.366 228.382 241.357 238.335" stroke="black" stroke-width="2" stroke-linecap="round"/>
<path d="M266.254 98.0994C265.257 100.343 266.494 103.389 267.298 105.552C269.67 111.925 271.052 118.721 272.831 125.283C276.414 138.496 277.94 153.349 277.94 166.976C277.94 182.426 277.94 197.876 277.94 213.326C277.94 222.199 279.465 231.019 279.465 239.86" stroke="black" stroke-width="2" stroke-linecap="round"/>
<path d="M417.525 204.998C417.374 207.369 417.352 207.067 417.352 207.885C417.352 209.172 417.139 210.443 417.139 211.734C417.139 214.421 417.479 217.645 418.217 220.227C418.461 221.081 419.913 220.984 420.562 221.103C423.024 221.557 425.529 221.788 428.012 222.098C434.337 222.889 440.633 223.931 446.986 224.443C451.002 224.767 455.091 225.412 459.056 226.101C461.705 226.562 464.283 226.308 466.944 226.54C468.685 226.691 470.443 226.912 472.144 227.155C473.695 227.377 475.414 226.84 476.94 227.179C478.234 227.467 478.692 227.516 479.226 226.315C479.256 223.189 478.81 212.928 479.864 213.143M474.276 212.03C469.375 211.382 464.432 211.042 459.518 210.372C455.284 209.795 449.743 209.031 446.702 208.572C443.662 208.113 440.137 207.885 436.33 207.349" stroke="#33322F" stroke-width="2" stroke-linecap="round"/>
<path d="M479.819 226.527C481.981 226.527 484.067 224.977 486.096 224.3C488.12 223.625 490.444 223.92 492.397 223.222C494.009 222.647 493.89 221.794 493.89 220.083C493.89 218.111 494.103 216.179 494.103 214.232C494.103 213.413 493.688 209.72 492.99 209.162C491.266 207.782 490.128 208.957 487.482 209.909C484.836 210.861 483.968 210.861 480.895 212.398" stroke="#33322F" stroke-width="2" stroke-linecap="round"/>
<path d="M452.956 202.223C453.543 202.223 454.12 202.46 454.697 202.555C456.499 202.85 458.332 203.049 460.122 203.407C463.747 204.132 467.482 204.39 471.113 205.101C474.001 205.666 476.987 205.751 479.89 206.274C481.607 206.583 483.547 206.703 485.22 207.174C486.599 207.562 488.369 207.642 489.827 207.754C490.784 207.828 491.61 208.464 492.61 208.607C493.479 208.731 494.112 211.426 494.316 212.243" stroke="#33322F" stroke-width="2" stroke-linecap="round"/>
<path d="M507.348 231.283C507.558 231.679 508.509 231.852 508.899 231.97C509.795 232.24 510.698 232.493 511.581 232.81C512.855 233.267 514.157 233.408 515.476 233.601C517.002 233.823 518.498 234.306 520.024 234.503C523.072 234.895 526.079 235.547 529.145 235.808C530.27 235.903 531.436 235.885 532.531 236.224C533.423 236.5 534.413 236.654 535.339 236.654C536.724 236.654 538.12 236.904 539.485 236.904" stroke="#33322F" stroke-width="2" stroke-linecap="round"/>
<path d="M494.843 214.598C496.98 215.296 501.593 216.72 505.615 216.72" stroke="#33322F" stroke-width="2" stroke-linecap="round"/>
<path d="M505.828 214.801C508.029 212.259 511.516 211.745 514.132 210.111C515.573 209.211 517.297 209.471 518.866 209.471C521.389 209.471 523.917 210.013 526.358 210.751C529.008 211.551 531.62 212.109 534.302 212.717C537.778 213.504 541.397 214.075 544.82 215.228" stroke="#33322F" stroke-width="2" stroke-linecap="round"/>
<path d="M582.839 212.918C583.18 212.607 582.635 212.321 582.449 212.199C581.11 211.32 579.858 211.057 578.307 210.898C575.51 210.611 572.725 209.953 569.928 209.748C568.41 209.637 566.944 209.59 565.428 209.376C563.804 209.148 562.151 208.803 560.522 208.649C556.311 208.251 552.238 207.737 548 207.737" stroke="#33322F" stroke-width="2" stroke-linecap="round"/>
<path d="M417.591 204.666C417.792 203.764 423.158 201.9 423.988 201.74C426.06 201.342 428.06 200.534 430.17 200.253C431.418 200.086 432.608 199.476 433.838 199.203C434.533 199.049 435.25 198.96 435.868 198.58C436.677 198.082 437.995 197.74 438.936 197.427C439.702 197.171 440.428 196.876 441.197 196.619C441.668 196.462 442.308 196.113 442.765 196.089C443.673 196.041 444.665 195.471 445.568 195.27C446.84 194.987 448.328 194.115 449.663 194.013C450.666 193.935 451.956 193.275 452.846 192.871C453.851 192.414 454.925 192.134 455.845 191.521" stroke="#33322F" stroke-width="2" stroke-linecap="round"/>
<path d="M445.672 188.615C444.455 188.615 446.551 188.677 446.848 188.73C448.531 189.032 449.974 189.454 451.612 189.964C452.797 190.334 454.337 190.335 455.43 190.853C456.202 191.219 457.058 191.522 457.921 191.522" stroke="#33322F" stroke-width="2" stroke-linecap="round"/>
<path d="M385.879 216.392C388.663 216.392 390.577 217.316 394.239 217.532C397.9 217.747 400.153 217.734 401.569 218.112" stroke="#33322F" stroke-width="2" stroke-linecap="round"/>
<path d="M384.271 201.73C388.046 199.478 388.553 199.764 391.249 198.844C393.945 197.924 408.741 193.503 415.836 191.02C418.555 190.069 420.62 188.813 423.388 187.992C426.674 187.019 428.867 186.571 430.25 185.844C431.634 185.118 434.516 184.463 436.318 183.742C438.12 183.021 439.816 182.668 441.305 182.6C444.269 182.465 449.886 184.085 452.777 184.671C454.641 185.048 456.854 185.501 458.752 185.501" stroke="#33322F" stroke-width="2" stroke-linecap="round"/>
<path d="M458.544 184.878C460.054 185.13 461.306 186.331 462.8 186.331C464.398 186.331 465.198 185.815 466.641 185.132C467.331 184.805 468.477 184.255 469.236 184.255C469.997 184.255 471.515 183.539 472.177 183.171C473.488 182.443 474.59 182.096 476.018 181.637C477.903 181.031 480.031 180.644 481.797 179.849C483.04 179.29 484.466 178.442 485.845 178.442C487.503 178.442 488.341 178.895 489.686 179.642C491.537 180.67 493.676 179.313 495.638 179.019C499.476 178.443 502.167 175.798 505.788 174.867C508.657 174.129 511.095 172.199 513.977 171.787C514.508 171.711 515.023 171.176 515.534 171.176C516.223 171.176 516.815 170.968 517.506 170.968C519.557 170.968 521.416 171.798 523.527 171.798C525.29 171.798 527.315 172.396 529.041 172.79C531.028 173.245 533.183 172.896 535.154 173.459" stroke="#33322F" stroke-width="2" stroke-linecap="round"/>
<path d="M536.399 170.968C546.5 165.716 544.495 167.946 535.615 165.409C534.629 165.127 532.383 165.784 533.078 164.221C533.473 163.33 534.243 163.445 534.992 163.24C536.56 162.813 538.403 162.663 540.033 162.663C541.143 162.663 542.381 162.063 543.458 161.787C545.259 161.325 547.015 160.917 548.81 160.541C549.923 160.308 551.068 159.757 552.178 159.757C553.867 159.757 555.619 161.025 557.288 161.222C558.59 161.375 559.86 161.597 559.86 162.975C559.86 163.984 556.189 164.771 555.5 165.039C553.766 165.714 551.797 165.735 550.517 167.335C549.733 168.315 550.451 168.426 551.394 168.684C553.412 169.238 555.577 169.312 557.657 169.515C558.898 169.636 560.007 170.171 561.221 170.461C562.052 170.659 562.88 170.666 563.712 170.864C564.308 171.006 565.253 170.964 565.719 171.337C566.188 171.712 564.673 172.081 564.116 172.514C563.273 173.169 561.87 173.732 560.898 174.244C560.017 174.707 559.226 175.333 558.303 175.743C557.531 176.086 556.872 176.64 556.123 177.035C555.868 177.169 554.98 177.613 554.877 177.819" stroke="#33322F" stroke-width="2" stroke-linecap="round"/>
<path d="M559.804 165.397C559.859 166.155 560.169 166.964 560.039 167.727" stroke="#33322F" stroke-width="2" stroke-linecap="round"/>
<path d="M565.985 173.99C565.944 175.745 566.077 177.61 565.808 179.421" stroke="#33322F" stroke-width="2" stroke-linecap="round"/>
<path d="M533.331 167.108C533.331 167.723 533.331 168.338 533.331 168.969C533.331 170.303 533.331 171.646 533.331 172.988" stroke="#33322F" stroke-width="2" stroke-linecap="round"/>
<path d="M516.887 181.646C514.521 183.114 501.063 188.426 508.571 188.923C512.91 189.21 520.8 190.77 523.47 190.742C526.14 190.714 529.274 187.017 532.999 185.285" stroke="#33322F" stroke-width="2" stroke-linecap="round"/>
<path d="M519.442 181.733C522.208 181.495 525.109 182.33 527.882 182.438C530.005 182.52 532.115 182.7 534.234 182.852" stroke="#33322F" stroke-width="2" stroke-linecap="round"/>
<path d="M564.937 188.23C567.478 188.836 570.113 188.612 572.683 189.02C574.657 189.333 576.388 189.824 578.406 189.848C579.712 189.864 580.184 190.396 580.072 191.021C579.96 191.647 572.86 193.362 571.42 193.938C569.98 194.515 566.319 195.353 565.728 195.652C564.885 196.078 564.211 195.814 563.264 195.672C559.645 195.128 555.889 194.602 552.294 194.297C551.348 194.217 547.999 194.328 550.608 193.033C553.171 191.761 555.742 190.91 557.893 190.134C560.044 189.357 562.893 188.477 564.243 187.753" stroke="#33322F" stroke-width="2" stroke-linecap="round"/>
<path d="M564.412 190.565C564.454 191.217 564.475 191.378 564.478 191.592C564.489 192.238 564.61 192.903 564.65 193.554" stroke="#33322F" stroke-width="2" stroke-linecap="round"/>
<path d="M517.177 182.615C516.866 184.151 517.102 185.926 517.448 187.552" stroke="#33322F" stroke-width="2" stroke-linecap="round"/>
<path d="M572.317 224.325C573.034 224.766 574.047 224.477 574.808 224.325" stroke="#33322F" stroke-width="2" stroke-linecap="round"/>
<path d="M420.821 205.422C423.149 206.12 425.641 206.223 428.041 206.46C429.648 206.618 431.247 206.875 432.863 206.875" stroke="#33322F" stroke-width="2" stroke-linecap="round"/>
<path d="M386.555 202.428C387.106 202.556 387.73 202.586 388.318 202.636C389.293 202.719 390.302 202.798 391.29 202.81C392.509 202.826 393.706 202.839 394.922 202.876C396.696 202.931 398.478 203.164 400.257 203.164" stroke="#33322F" stroke-width="2" stroke-linecap="round"/>
<path d="M608.292 243.173C613.45 244.517 620.144 245.694 625.364 244.037C627.456 243.373 629.534 241.331 630.848 239.623C631.134 239.251 632.743 236.528 633.048 236.948C634.704 239.224 638.18 235.639 639.371 237.532C639.788 238.193 640.465 239.501 640.465 237.921" stroke="#33322F" stroke-width="2" stroke-linecap="round"/>
<path d="M624.269 224.351C624.474 226.195 631.073 225.411 632.343 225.458C635.421 225.572 640.742 226.902 642.605 223.683C643.377 222.349 643.142 220.515 642.703 219.123C642.394 218.145 642.303 218.953 642.776 218.868C643.229 218.785 643.787 218.637 644.186 218.393C644.399 218.263 644.642 217.382 644.855 217.7C645.295 218.36 645.813 218.831 646.679 218.831C648.025 218.831 647.538 218.2 648.563 219.366C648.765 219.595 650.344 221.127 650.74 220.533C650.758 220.507 650.868 220.839 650.886 220.874C651.177 221.457 651.654 221.919 652.187 222.284C653.338 223.075 653.636 223.849 652.552 224.959C651.441 226.096 652.257 225.883 653.378 225.883" stroke="#33322F" stroke-width="2" stroke-linecap="round"/>
<path d="M646.156 225.008C646.466 225.008 646.977 224.873 647.019 225.288C647.17 226.804 647.077 228.733 646.241 230.042C645.172 231.715 643.593 232.357 642.143 233.544C640.573 234.828 643.009 236.881 643.748 237.702" stroke="#33322F" stroke-width="2" stroke-linecap="round"/>
<path d="M639.809 242.736C640.656 245.109 643.168 246.001 645.378 246.773C647.628 247.559 649.936 248.254 652.284 248.645" stroke="#33322F" stroke-width="2" stroke-linecap="round"/>
<path d="M585.312 224.133C585.394 224.463 586.659 224.744 586.953 224.911C588.644 225.87 590.131 227.27 591.525 228.607C594.516 231.476 597.665 232.231 601.726 232.231" stroke="#33322F" stroke-width="2" stroke-linecap="round"/>
<path d="M602.383 220.631C602.446 221.137 603.351 222.168 603.647 222.601C604.354 223.634 604.763 225.158 605.228 226.321" stroke="#33322F" stroke-width="2" stroke-linecap="round"/>
<path d="M614.202 200.495C613.282 200.61 614.658 203.876 614.956 204.264C616.417 206.176 618.959 206.98 621.205 207.499" stroke="#33322F" stroke-width="2" stroke-linecap="round"/>
<path d="M596.692 205.967C597.753 205.465 598.664 204.912 599.525 204.094C600.561 203.111 599.886 202.759 601.422 203.341C601.956 203.542 604.175 204.499 604.669 203.863C605.29 203.065 604.994 203.062 606.25 203.341C606.954 203.497 609.431 204.021 610.043 203.462C610.726 202.839 611.116 201.393 612.013 200.982C612.939 200.557 613.665 200.866 614.469 200.179C615.456 199.337 615.481 199.014 616.828 198.744" stroke="#33322F" stroke-width="2" stroke-linecap="round"/>
<path d="M596.194 184.943C597.333 185.065 598.726 184.962 599.817 185.284C600.657 185.531 601.286 185.82 602.213 185.831C603.11 185.842 605.466 185.342 605.994 186.281C606.505 187.189 607.149 188.003 607.684 188.895C607.901 189.255 608.527 189.105 608.876 189.114C609.702 189.133 609.592 189.42 609.958 189.989C610.438 190.735 611.805 191.025 612.621 191.084C613.273 191.13 611.666 191.86 611.904 192.287C612.059 192.567 612.021 192.891 612.244 193.151C612.555 193.513 612.888 193.071 612.888 193.71C612.888 194.263 613.291 194.221 613.63 194.598C614.087 195.105 613.764 196.753 613.764 197.431" stroke="#33322F" stroke-width="2" stroke-linecap="round"/>
<path d="M602.383 209.25C603.622 210.489 604.839 211.758 606.128 212.946C608.358 215.001 610.454 216.21 613.326 217.129" stroke="#33322F" stroke-width="2" stroke-linecap="round"/>
<path d="M505.778 214.976C505.778 216.102 506.588 221.472 506.659 222.595C506.706 223.359 506.663 224.136 506.663 224.902C506.663 225.695 506.663 226.488 506.663 227.282" stroke="#33322F" stroke-width="2" stroke-linecap="round"/>
<path d="M512.496 218.053C513.098 218.108 513.707 218.395 514.315 218.489C514.737 218.554 515.176 218.592 515.592 218.667C515.994 218.741 516.364 219.086 516.772 219.098C517.2 219.111 517.63 219.098 518.059 219.098C518.274 219.098 518.784 218.999 518.973 219.146C519.289 219.393 519.548 219.732 519.916 219.969C520.533 220.365 521.272 220.752 522.025 220.752C523.038 220.752 524.926 220.19 525.478 221.226C525.696 221.635 526.461 221.962 526.847 222.174C527.263 222.403 527.281 222.79 527.509 223.17C527.87 223.771 528.628 223.748 529.081 224.201C529.642 224.761 529.924 225.49 530.605 225.956C531.221 226.378 531.822 226.633 532.554 226.798C532.977 226.893 533.17 227.086 533.536 227.32C534.066 227.66 535.059 227.881 535.258 228.534C535.314 228.719 535.296 228.931 535.48 229.023" stroke="#33322F" stroke-width="2" stroke-linecap="round"/>
<path d="M545.097 217.266C545.097 218.059 545.057 218.953 545.45 219.665C546.235 221.088 547.388 222.29 548.318 223.621C548.607 224.036 548.679 224.543 549.024 224.918C549.586 225.528 550.297 225.719 550.925 226.19C551.076 226.303 550.987 226.467 551.022 226.625C551.07 226.842 551.541 227.006 551.713 227.104" stroke="#33322F" stroke-width="2" stroke-linecap="round"/>
<path d="M546.109 228.885C546.244 229.759 547.073 230.679 547.646 231.285C548.779 232.484 550.255 233.5 551.799 234.101C552.161 234.242 552.557 234.327 552.9 234.513C553.159 234.653 553.351 234.911 553.588 235.085C554.571 235.804 555.732 235.97 556.908 236.127C557.441 236.198 557.951 236.379 558.479 236.476C559.064 236.583 560.099 236.521 560.509 236.999C560.685 237.204 560.974 237.282 561.222 237.368C561.851 237.584 562.488 237.733 563.122 237.959" stroke="#33322F" stroke-width="2" stroke-linecap="round"/>
<path d="M586.154 211.262C586.582 211.215 587.107 210.772 587.521 210.613C588.215 210.346 588.568 210.122 588.946 209.517" stroke="#33322F" stroke-width="2" stroke-linecap="round"/>
<path d="M503.675 201.24C504.552 201.365 505.38 201.704 506.276 201.802C507.225 201.906 508.193 202.053 509.148 202.053C509.829 202.053 510.496 202.143 511.176 202.143C511.743 202.143 512.303 202.108 512.848 202.229C515.244 202.761 517.687 203.241 520.122 203.589" stroke="#33322F" stroke-width="2" stroke-linecap="round"/>
<path d="M497.801 200.878C497.192 200.659 496.641 200.626 495.984 200.587C495.108 200.535 494.239 200.366 493.363 200.336C491.809 200.283 490.199 199.813 488.674 199.523" stroke="#33322F" stroke-width="2" stroke-linecap="round"/>
<path d="M480.812 197.806C480.647 197.659 480.373 197.633 480.17 197.58C479.448 197.394 478.706 197.287 477.976 197.138C477.413 197.024 476.876 196.831 476.324 196.681C474.651 196.23 472.761 196.013 471.022 195.999C469.358 195.985 467.647 195.618 466.012 195.346C465.668 195.289 465.398 195.185 465.043 195.185C464.737 195.185 464.354 195.268 464.094 195.095" stroke="#33322F" stroke-width="2" stroke-linecap="round"/>
<path d="M463.443 197.197C464.019 198.466 463.912 199.958 463.912 201.325C463.912 201.799 463.959 202.272 463.959 202.74" stroke="#33322F" stroke-width="2" stroke-linecap="round"/>
<path d="M462.409 195.599C461.299 195.969 460.344 196.373 459.345 196.972C458.282 197.61 457.245 198.322 456.156 198.914C455.503 199.269 454.882 199.636 454.215 199.958C453.914 200.103 453.507 200.268 453.178 200.341C452.643 200.46 452.218 200.837 451.767 201.095C451.527 201.232 451.708 201.507 451.889 201.589C452.335 201.789 452.821 201.808 453.296 201.894" stroke="#33322F" stroke-width="2" stroke-linecap="round"/>
<path d="M576.762 239.41C577.424 239.548 578.115 239.516 578.79 239.551C579.485 239.588 580.192 239.625 580.887 239.63C581.36 239.633 581.816 239.656 582.286 239.692C582.34 239.697 582.543 239.704 582.568 239.755" stroke="#33322F" stroke-width="2" stroke-linecap="round"/>
<path d="M267.81 134.545C269.506 148.105 267.81 179.734 287.258 187.071" stroke="#33322F" stroke-width="2" stroke-linecap="round"/>
<path d="M289.539 189.893C290.871 197.888 293.209 205.772 294.539 213.755" stroke="#33322F" stroke-width="2" stroke-linecap="round"/>
<path d="M300.598 210.644C298.887 211.027 291.17 213.168 287.981 213.527C288.079 224.482 305.065 225.001 300.598 210.644Z" stroke="#33322F" stroke-width="2" stroke-linecap="round" stroke-linejoin="round"/>
<path d="M225.805 246.343C226.158 246.176 226.492 246.064 226.871 245.988" stroke="#33322F" stroke-width="2" stroke-linecap="round"/>
<path d="M256.674 246.698C257.026 246.532 257.36 246.419 257.739 246.343" stroke="#33322F" stroke-width="2" stroke-linecap="round"/>
<path d="M181.482 248.858C182.842 248.858 184.238 248.74 185.566 249.035" stroke="#33322F" stroke-width="2" stroke-linecap="round"/>
<path d="M166.032 257.56C166.939 257.56 167.665 257.382 168.518 257.382" stroke="#33322F" stroke-width="2" stroke-linecap="round"/>
<path d="M147.209 251.166C148.015 251.166 149.1 251.407 149.695 250.811" stroke="#33322F" stroke-width="2" stroke-linecap="round"/>
<path d="M122.654 259.798C122.719 259.276 124.751 259.459 125.14 259.265" stroke="#33322F" stroke-width="2" stroke-linecap="round"/>
<path d="M76.8385 265.126C78.0183 264.978 79.284 264.593 80.5676 264.593" stroke="#33322F" stroke-width="2" stroke-linecap="round"/>
<path d="M109.463 257.382C110.643 257.235 111.909 256.849 113.192 256.849" stroke="#33322F" stroke-width="2" stroke-linecap="round"/>
<path d="M65.7006 260.401C66.1413 260.048 67.2666 260.046 67.8315 260.046" stroke="#33322F" stroke-width="2" stroke-linecap="round"/>
<path d="M207.408 250.456C207.435 250.675 208.081 250.947 208.256 250.772C208.599 250.429 207.803 250.216 207.467 250.614C206.737 251.481 206.5 252.207 207.842 252.232C208.282 252.24 209.262 252.35 208.829 251.699" stroke="#33322F" stroke-width="2" stroke-linecap="round"/>
<path d="M557.133 179.427C557.333 179.25 557.677 179.344 557.914 179.382C558.53 179.481 559.195 179.662 559.814 179.697C560.828 179.754 561.8 179.877 562.82 179.877C563.922 179.877 565 180.147 566.091 180.147C566.393 180.147 566.854 180.326 567.126 180.462C567.43 180.614 567.798 180.624 568.046 180.847C568.414 181.178 569.343 181.26 569.817 181.312C570.583 181.397 571.397 181.407 572.167 181.407" stroke="#33322F" stroke-width="2" stroke-linecap="round"/>
<path d="M575.9 179.908C576.489 179.873 577.083 179.064 577.667 178.87C578.675 178.534 579.473 178.196 580.57 178.242C581.665 178.289 582.797 178.297 583.884 178.437C585.103 178.593 586.271 178.86 587.48 179.108C587.672 179.148 588.591 179.199 588.704 179.396C588.803 179.569 589.112 179.785 589.296 179.846C590.062 180.102 590.658 180.227 591.293 180.73C591.715 181.065 592.223 181.325 592.724 181.507C592.813 181.54 593.103 181.739 593.14 181.834C593.263 182.156 593.471 182.434 593.555 182.771" stroke="#33322F" stroke-width="2" stroke-linecap="round"/>
<path d="M592.998 177.681C593.318 177.864 593.599 178.111 593.891 178.335C594.367 178.701 594.874 178.951 595.406 179.223C596.312 179.686 597.014 180.313 597.748 181.004C598.136 181.369 598.389 181.853 598.769 182.223C599.209 182.652 599.82 182.787 600.394 182.93" stroke="#33322F" stroke-width="2" stroke-linecap="round"/>
<path d="M586.724 174.784C586.785 174.111 587.177 173.463 587.329 172.806C587.557 171.822 587.688 170.815 587.919 169.832C588.058 169.244 589.662 170.959 589.868 171.123C590.375 171.529 590.638 171.712 591.115 171.256C591.46 170.927 591.578 170.406 591.986 170.599C592.3 170.748 592.909 170.964 593.204 170.636C593.346 170.478 593.35 169.598 593.573 169.566C593.702 169.548 593.982 170.52 594.03 170.666" stroke="#33322F" stroke-width="2" stroke-linecap="round"/>
<path d="M594.562 173.589C594.613 173.128 595.415 172.357 595.816 172.157C596.411 171.86 596.785 172.142 597.27 172.526C598.276 173.321 599.258 174.283 600.112 175.234C601.267 176.521 601.943 178.006 602.747 179.508C603.456 180.834 604.316 181.285 605.721 181.825" stroke="#33322F" stroke-width="2" stroke-linecap="round"/>
<path d="M528.371 204.849C528.379 204.791 528.55 204.925 528.565 204.932C529.078 205.205 529.675 205.372 530.227 205.545C530.674 205.685 531.133 205.791 531.574 205.953C532.161 206.169 532.605 206.551 533.02 207.011C533.471 207.512 533.876 208.163 534.542 208.403C534.975 208.559 535.476 208.339 535.896 208.543C536.253 208.717 536.534 208.989 536.93 209.088C537.422 209.211 538.039 209.19 538.538 209.144C538.715 209.128 538.986 208.913 539.083 208.786C539.283 208.526 539.52 208.215 539.601 207.89" stroke="#33322F" stroke-width="2" stroke-linecap="round"/>
<path d="M404.836 202.217C405.521 201.908 406.303 201.892 407.021 201.693C408.098 201.394 409.218 201.285 410.311 201.056C411.434 200.82 412.606 200.528 413.658 200.072C414.698 199.62 415.731 199.13 416.779 198.701C418.257 198.095 419.76 197.594 421.203 196.898C421.886 196.569 422.557 196.284 423.207 195.886C423.371 195.785 423.657 195.612 423.852 195.612" stroke="#33322F" stroke-width="2" stroke-linecap="round"/>
<path d="M427.481 194.451C429.285 194.307 431.046 193.592 432.787 193.144C433.788 192.887 434.685 192.491 435.646 192.128C436.267 191.894 436.935 191.714 437.525 191.407C437.851 191.237 438.09 190.953 438.408 190.782C438.768 190.588 439.125 190.395 439.489 190.209C440.113 189.89 440.773 189.729 441.416 189.443" stroke="#33322F" stroke-width="2" stroke-linecap="round"/>
<path d="M401.424 203.378C401.424 203.183 401.404 203.029 401.469 203.346C401.663 204.294 401.71 205.261 401.787 206.225C401.893 207.554 401.988 208.885 402.114 210.213C402.164 210.747 402.187 211.314 402.311 211.838C402.582 212.976 402.658 213.916 402.658 215.088C402.658 215.647 402.586 216.18 402.586 216.733C402.586 216.849 402.521 217.217 402.602 217.298C402.665 217.361 403.542 216.97 403.678 216.91C404.8 216.42 406.024 216.208 407.074 215.544C407.599 215.211 408.287 214.992 408.864 214.737C409.52 214.447 410.151 214.129 410.803 213.83C411.377 213.567 412.046 213.439 412.602 213.16C412.817 213.053 413.062 212.933 413.291 212.882C413.56 212.823 414.142 212.637 414.271 212.378" stroke="#33322F" stroke-width="2" stroke-linecap="round"/>
<path d="M384.255 201.75C384.242 202.206 384.261 202.655 384.324 203.108C384.439 203.951 384.549 204.786 384.606 205.636C384.693 206.915 384.57 208.193 384.497 209.469C384.465 210.038 384.479 210.617 384.466 211.188C384.457 211.62 384.454 212.056 384.485 212.487C384.534 213.15 384.506 213.815 384.55 214.479C384.573 214.833 384.678 215.18 384.703 215.531C384.711 215.649 384.737 215.774 384.76 215.89C384.772 215.953 384.769 215.977 384.806 215.922" stroke="#33322F" stroke-width="2" stroke-linecap="round"/>
</svg>
