<svg width="656" height="217" viewBox="0 0 656 217" fill="none" xmlns="http://www.w3.org/2000/svg">
<path opacity="0.5" d="M12.4941 110.319C17.1898 108.058 21.7432 106.761 26.7892 105.546C35.0491 103.558 43.1252 100.676 50.966 97.4152C62.1939 92.7462 73.3581 88.5732 84.9287 84.8471C91.7963 82.6355 98.3483 79.2816 105.268 77.3158C113.211 75.0593 121.415 74.4608 129.445 72.5908C134.039 71.521 138.251 69.5299 142.732 68.1536C147.959 66.5484 153.11 65.7349 158.491 64.9875C159.332 64.8706 167.45 64.0015 166.861 65.1794C164.836 69.23 158.452 71.1783 154.749 72.7107C144.245 77.057 133.695 81.2701 123.209 85.6626C102.294 94.4229 79.3883 97.4219 58.4493 106.002C53.3288 108.1 49.0941 111.156 44.2982 113.821C40.0564 116.177 35.7265 118.33 31.5382 120.777C29.5939 121.912 21.8584 125.066 26.8851 127.061C31.1424 128.75 37.8063 127.701 42.1635 127.133C46.3851 126.582 50.4941 125.716 54.5637 124.47C62.3391 122.09 69.2736 117.785 76.9657 115.164C86.2033 112.016 95.4303 108.8 104.98 106.769C116.722 104.273 127.506 100.188 138.799 96.168C149.53 92.3474 160.455 88.6498 170.315 82.8803C178.144 78.2997 187.475 77.0605 196.123 74.6295C207.179 71.5217 217.927 66.6794 229.174 64.316C233.902 63.3224 238.735 62.8051 243.445 61.7256C246.802 60.9563 250.067 59.4395 253.399 58.4876C254.435 58.1916 255.494 57.6572 256.565 57.5042C258.177 57.274 256.13 60.9967 255.941 61.2939C253.461 65.2034 249.265 68.1115 245.532 70.696C239.312 75.0019 232.486 78.5802 225.576 81.6331C216.628 85.5872 206.867 87.2392 198.09 91.5629C189.679 95.7058 181.549 100.925 172.45 103.435C163.844 105.809 155.08 107.064 146.426 109.168C137.357 111.373 129.056 115.317 120.139 117.874C115.624 119.169 111.219 120.376 106.947 122.312C106.265 122.621 100.466 125.722 101.262 126.917C101.831 127.769 104.13 127.884 105.028 127.972C107.911 128.253 110.822 128.444 113.711 128.692C118.28 129.084 122.823 129.315 127.406 129.315C138.204 129.315 148.932 127.046 159.57 125.43C170.728 123.734 181.964 121.77 193.221 120.896C200.052 120.366 206.767 120.249 213.632 120.249C215.31 120.249 220.207 119.518 217.254 122.024C211.814 126.639 202.991 128.617 196.363 130.658C190.528 132.455 183.474 133.597 178.374 137.086C174.302 139.872 170.227 143.113 165.734 145.241C158.945 148.457 150.41 147.167 143.308 146.344C142.024 146.196 127.181 144.854 127.358 144.234C127.431 143.979 142.584 147.482 143.308 147.592C153.291 149.1 163.577 149.606 173.673 149.606C182.312 149.606 190.795 149.278 199.289 147.688C211.526 145.396 223.951 144.489 236.226 142.483C243.227 141.339 252.507 139.284 258.052 134.592C259.678 133.216 259.707 132.638 257.333 131.762C247.693 128.204 237.359 126.251 227.471 123.487C224.542 122.668 221.622 121.819 218.717 120.92C216.411 120.208 216.492 119.746 215.263 117.802C213.823 115.524 211.344 114.508 212.625 111.83C214.432 108.052 221.308 106.923 225.001 106.865C232.125 106.755 239.491 106.357 246.563 107.321C257.417 108.801 268.229 109.904 279.111 111.087C286.541 111.894 294.255 112.478 301.609 112.478C304.371 112.478 307.529 112.057 310.243 112.574C311.163 112.749 312.095 113.254 312.762 112.454C314.944 109.835 299.314 102.337 298.107 101.78C290.373 98.2124 282.291 95.4139 273.906 93.8894C269.958 93.1716 265.995 92.509 261.986 92.2584C260.939 92.193 257.866 92.1614 258.868 91.8507C263.784 90.325 270.206 91.2741 275.201 91.347C286.369 91.51 297.483 92.5481 308.66 92.6182C314.179 92.6528 319.693 92.8257 325.21 92.954C328.452 93.0294 332.158 93.4828 335.404 93.002C336.321 92.866 334.187 91.5376 333.365 91.1071C329.012 88.827 323.834 88.1153 319.07 87.1976C304.924 84.4727 290.093 85.3932 276.113 82.0888C274.381 81.6795 272.892 80.6443 271.004 80.242C264.699 78.8982 258.448 78.1046 251.984 78.587C248.39 78.8552 244.424 79.2256 240.831 78.8029C240.329 78.7438 241.676 78.2456 242.078 77.9394C243.702 76.704 245.3 75.8102 247.259 75.1572C252.598 73.3773 257.655 71.4472 262.753 69.017C270.49 65.3293 279.173 63.9212 287.362 61.5817C290.343 60.7298 292.159 58.648 294.749 57.1205C301.59 53.0862 307.991 48.8156 315.712 46.4232C319.612 45.2148 323.401 44.7694 327.441 44.2645C328.086 44.1838 329.046 44.7352 329.383 44.6003C330.962 43.969 332.05 43.636 333.797 44.0727C338.926 45.355 344.404 44.4005 349.627 44.7922C355.326 45.2197 359.919 48.6866 365.553 49.3494C369.087 49.7652 372.55 49.877 376.106 49.877C379.604 49.877 382.98 50.2488 386.3 49.2054C389.17 48.3033 393.595 47.4743 394.814 44.2645C395.524 42.3965 396.115 40.8568 397.62 39.4676C398.38 38.7666 404.439 35.251 404.408 35.1982C403.65 33.8885 398.89 32.9342 397.429 32.6558C394.992 32.1917 391.082 34.736 389.202 36.0137C388.272 36.6456 386.198 38.0275 386.036 39.3236C385.844 40.8537 394.543 40.9498 395.03 40.9786C396.112 41.0427 408.018 40.5816 407.958 42.7295C407.928 43.7995 407.48 44.8155 406.999 45.7516C404.624 50.3696 401.666 54.7961 398.652 59.0153C393.715 65.9269 387.283 71.5309 380.04 75.8767C372.692 80.2852 365.225 84.1999 358.549 89.6201C356.694 91.126 336.86 106.445 338.546 107.921C340.581 109.701 348.042 107.058 349.914 106.386C358.909 103.156 364.817 98.078 371.525 91.5149C377.998 85.1811 384.824 80.282 393.567 77.5557C398.329 76.0706 404.681 75.8262 409.037 73.4063C410.018 72.8612 410.647 72.2148 411.46 71.4155C412.557 70.337 413.651 69.2606 414.962 68.4414C415.113 68.3467 417.534 67.0048 416.928 66.7624C415.29 66.1069 409.698 68.2054 408.797 68.4893C397.96 71.9067 387.881 77.324 378.504 83.6958C372.676 87.6565 367.889 92.9169 364.329 98.9982C363.753 99.9832 359.89 106.57 360.995 107.729C362.229 109.021 367.109 108.758 368.431 108.832C374.871 109.191 381.36 109.357 387.811 109.432C406.307 109.647 424.787 109.307 443.216 107.705C453.005 106.854 462.715 104.353 472.502 103.22C476.455 102.762 481.002 103.034 484.806 101.685C488.635 100.326 491.569 96.9573 494.424 94.2492C499.886 89.0669 509.339 86.9714 516.37 84.895C521.197 83.4697 526.036 82.0475 530.953 80.9615C531.476 80.8459 538.001 79.5262 537.357 80.17C536.268 81.2583 535.802 82.0643 534.359 82.5925C529.553 84.3506 524.48 85.0335 519.728 87.0537C509.947 91.212 500.465 95.9573 490.562 99.8617C484.354 102.309 478.406 104.969 472.861 108.712C471.259 109.793 469.303 110.138 469.264 112.238C469.225 114.256 467.072 117.435 467.561 119.146C467.962 120.55 476.082 120.927 477.275 120.92C484.075 120.882 489.071 117.701 494.184 113.485C497.591 110.675 501.45 108.878 505.457 107.057C509.612 105.169 515.057 103.671 518.721 100.821C519.579 100.154 520.224 99.1606 521.119 98.4705C522.325 97.5401 524.108 96.8729 525.172 95.8082C525.785 95.1958 526.189 94.3339 526.755 93.6735C528.627 91.4905 527.865 91.2181 524.957 91.5149C518.465 92.1773 511.997 93.7038 505.577 94.8248C493.664 96.9048 481.723 98.767 469.719 100.245C458.208 101.663 446.711 102.743 435.349 99.8137C422.539 96.5117 409.575 93.7415 396.685 90.7474C392.748 89.8329 388.823 89.215 384.789 88.9245C384.569 88.9087 378.373 88.8274 378.504 88.9965C381.035 92.2497 390.273 91.8103 393.615 92.1865C407.521 93.7515 421.403 94.2971 435.397 94.2971C446.607 94.2971 459.167 94.3426 469.983 90.7953C473.799 89.544 475.635 87.6562 476.891 84.0556C477.508 82.2874 478.103 80.1193 479.697 78.9708C483.411 76.2944 488.661 74.1866 493.153 73.3343C497.941 72.4257 501.774 71.7876 505.889 69.065C507.692 67.8713 512.877 64.7215 513.3 62.3972C513.425 61.7079 513.841 61.1093 513.971 60.4304C514.358 58.4199 509.956 57.8658 508.863 57.6002C498.462 55.0728 487.892 53.8065 477.37 51.9397C473.932 51.3298 467.064 48.7917 463.891 51.3881C462.776 52.2999 461.926 53.4117 460.629 54.0984C459.331 54.7853 468.338 56.6501 468.952 56.7607C469.176 56.8012 478.41 58.5116 474.444 58.5116C466.732 58.5116 459.138 56.5692 451.467 55.9692C445.798 55.5258 440.115 55.5271 434.437 55.2736C432.952 55.2073 431.344 55.2904 429.976 54.626C423.657 51.5566 415.652 51.3893 410.644 46.0874C406.86 42.0804 405.086 31.5472 412.035 29.5618C412.893 29.3167 411.671 27.0502 411.268 26.8035C408.455 25.0822 404.858 24.2426 401.77 23.2058C399.663 22.4982 395.931 22.0284 394.143 20.4955C393.343 19.8102 393.368 19.0916 392.847 18.2649C390.934 15.226 394.035 15.45 396.901 15.1468C403.99 14.397 411.747 13.7822 418.847 14.5712C420.602 14.7662 417.174 18.3729 416.832 18.7925C413.924 22.367 410.461 25.9667 408.054 29.9215C406.748 32.0672 408.124 32.6195 410.117 33.3034C416.478 35.4873 423.7 36.9356 430.456 36.3975C432.046 36.2709 434.142 35.2951 435.757 35.6539C436.61 35.8437 438.907 36.1541 439.378 36.9252C440.127 38.1499 425.366 38.6268 424.412 38.6521C420.494 38.7559 416.717 39.0631 412.851 39.7074C412.418 39.7796 407.761 39.9988 407.43 40.7148C406.551 42.6202 424.505 46.4632 425.827 46.807C443.703 51.4547 461.284 56.8674 479.529 60.0227C485.847 61.1153 491.501 61.8205 497.374 64.3639C503.927 67.2018 510.21 70.8794 516.898 73.3583C520.884 74.8361 525.048 75.7553 529.106 77.004C530.155 77.3268 533.195 77.9488 533.927 78.9948C534.611 79.9724 534.977 82.061 535.102 83.2161C535.756 89.229 533.583 95.6502 530.377 100.677C527.363 105.403 524.286 110.275 521.071 114.852C517.131 120.462 513.466 126.483 507.16 129.603C503.65 131.339 500.005 132.726 496.079 133.105C481.566 134.504 466.727 133.947 452.162 134.256C441.323 134.486 429.871 133.949 419.135 135.455C406.32 137.254 393.292 138.309 380.375 138.981C374.012 139.312 366.169 140.435 359.844 138.477C359.554 138.388 362.449 136.956 362.674 136.846C364.45 135.985 365.988 135.468 367.975 135.383C370.809 135.263 373.104 136.217 375.866 136.559C380.609 137.145 384.903 136.596 389.562 135.791C391.263 135.497 397.649 134.571 395.918 131.378C395.189 130.034 393.903 129.068 392.488 128.572C386.171 126.357 378.932 125.434 372.268 125.286C366.167 125.15 359.991 126.137 354.04 127.396C352.234 127.778 347.559 128.296 348.931 129.531C350.03 130.521 357.12 130.288 351.737 130.179C340.129 129.942 329.355 126.652 318.134 124.158C314.948 123.45 311.766 123.038 308.564 123.607C305.655 124.124 302.146 123.274 299.282 122.815C293.994 121.969 288.682 121.338 283.38 120.585C278.369 119.873 272.983 118.57 267.91 118.57C260.63 118.57 281.943 122.588 289.137 123.703C305.609 126.254 322.213 128.161 338.737 130.347C343.998 131.042 349.249 131.779 354.472 132.721C357.147 133.204 360.217 133.494 362.77 134.496C366.375 135.91 359.807 138.926 359.173 139.269C348.376 145.105 335.462 147.01 323.915 151.046C323.577 151.164 318.851 152.501 318.926 153.204C319.044 154.311 333.174 154.295 334.324 154.331C358.412 155.104 382.533 154.5 406.615 155.315C420.246 155.776 379.303 157.201 365.984 160.136C364.473 160.469 360.028 161.94 363.322 163.758C367.712 166.179 374.427 165.329 379.032 165.197C391.043 164.851 403.123 164.189 415.058 162.75C416.639 162.559 418.478 162.835 419.759 161.887C420.967 160.991 416.754 161.695 415.249 161.695C408.194 161.695 401.144 161.865 394.095 162.175C389.828 162.362 386.029 162.548 381.838 162.918C381.253 162.97 379.5 163.107 380.087 163.134C382.979 163.265 385.849 162.572 388.722 162.223C407.918 159.886 427.048 157.07 446.142 154.02C451.413 153.178 467.184 151.163 461.852 150.926C458.365 150.771 454.807 150.719 451.323 150.806C443.361 151.005 433.469 151.029 426.187 154.739C423.931 155.888 420.069 158.777 420.382 161.791C420.645 164.317 422.919 165.984 425.131 166.732C433.093 169.422 442.547 167.936 450.579 166.684C460.075 165.203 469.376 162.61 478.642 160.112C478.691 160.098 485.104 158.374 486.293 158.025C488.568 157.358 485.448 157.491 485.046 157.473C479.505 157.236 473.936 157.416 468.4 157.665C456.543 158.199 443.925 158.093 432.495 161.695C430.587 162.296 425.394 164.294 427.338 164.765C438.693 167.518 451.412 167.041 462.979 167.211C476.331 167.408 489.684 167.219 503.034 167.499C508.255 167.609 515.276 167.833 520.591 168.075C521.036 168.095 528.263 167.886 529.394 168.866C530.072 169.454 527.719 169.574 526.827 169.682C522.472 170.209 517.713 170.348 513.396 170.473C497.267 170.943 481.127 170.655 464.994 170.857C460.063 170.919 445.351 170.837 450.219 171.625C460.269 173.25 470.61 173.792 480.728 174.887C492.952 176.209 505.194 177.398 517.401 178.868C519.454 179.115 523.73 179.59 526.18 180.187C528.367 180.721 526.35 181.03 525.58 181.123C523.242 181.403 498.093 181.886 498.093 180.475C498.093 179.499 500.044 180.334 501.02 180.355C505.31 180.45 515.046 180.855 518.169 180.979C526.568 181.312 538.49 181.777 546.879 182.202C547.186 182.218 563.877 181.903 565.923 184.049C566.651 184.812 563.906 184.749 562.853 184.816C559.898 185.004 553.967 184.867 551.532 184.816C549.608 184.777 535.814 184.404 533.639 184.337C531.273 184.264 524.287 184.363 526.564 183.713C528.42 183.183 532.888 183.357 533.519 183.353C549.755 183.266 565.998 183.483 582.233 183.617C588.461 183.669 606.997 183.846 600.869 184.96C591.422 186.678 580.339 184.814 570.936 184.073C566.302 183.708 558.615 183.082 553.619 182.274C550.582 181.783 549.308 181.056 552.731 180.259C557.669 179.109 562.854 179.064 567.89 178.772C574.35 178.398 580.799 178.072 587.269 177.909C588.085 177.888 590.53 177.86 589.716 177.909C586.688 178.09 584.054 178.012 580.89 177.861C573.127 177.49 567.268 176.946 559.423 176.086C553.939 175.484 544.123 175.479 538.82 172.536C535.873 170.901 540.836 168.899 541.602 168.65C549.396 166.127 557.548 164.511 565.539 162.75C566.159 162.614 567.996 162.226 567.362 162.199C565.165 162.105 562.965 162.284 560.766 162.294C551.432 162.338 542.255 161.831 533.064 160.16C531.62 159.897 521.543 157.912 520.064 157.617C518.52 157.31 516.974 157.013 515.435 156.682C514.591 156.501 513.392 156.802 512.916 156.082C512.587 155.584 513.966 155.479 514.547 155.339C516.906 154.772 519.303 154.378 521.695 153.972C534.089 151.866 546.55 150.091 558.991 148.287C567.665 147.03 576.886 146.626 585.423 144.618C590.35 143.458 575.238 145.087 570.24 144.282C569.381 144.143 555.124 141.862 558.152 139.461C562.139 136.298 577.658 134.971 572.591 134.496C570.661 134.315 568.563 134.91 566.642 134.928C561.825 134.971 557.498 134.599 552.635 134.016C543.993 132.98 534.669 132.007 526.324 129.339C521.598 127.828 532.297 126.584 532.656 126.533C545.214 124.749 557.867 123.647 570.432 121.88C570.713 121.84 575.772 121.138 577.34 120.777C577.699 120.694 576.601 120.815 576.236 120.872C572.448 121.473 568.736 122.189 564.892 122.384C553.019 122.985 541.083 122.884 529.202 122.623C522.014 122.466 528.048 122.559 523.446 122.431C522.75 122.412 519.981 122.5 523.038 122.024C532.258 120.587 541.615 119.985 550.908 119.241C554.068 118.989 558.378 118.038 561.678 118.546C565.288 119.101 554.414 119.375 550.764 119.529C544.43 119.797 540.474 119.828 534.143 119.745C531.563 119.711 526.078 120.133 523.182 119.385C522.34 119.168 524.873 118.985 525.724 118.81C529.109 118.111 531.789 117.589 535.27 116.987C541.512 115.907 547.796 114.893 554.074 114.037C557.071 113.628 554.862 113.895 553.499 113.989C548.715 114.316 544.004 113.61 539.3 112.766C537.207 112.39 533.583 112.205 535.078 109.072C537.286 104.447 542.099 101.055 546.135 98.1587C547.196 97.3972 550.455 95.8169 549.157 95.6643C546.16 95.3116 543.512 94.9472 540.547 94.1053C538.875 93.6305 521.33 90.3545 529.058 87.0057C533.668 85.0082 538.923 83.9939 543.761 82.7844C547.56 81.8345 549.023 81.4989 552.515 80.7457C553.084 80.6231 554.744 80.2896 554.17 80.194C551.808 79.8002 549.104 80.3698 546.735 80.4338C542.108 80.5589 537.928 80.0167 533.855 77.6276C530.871 75.8776 529.83 74.1621 532.848 71.9432C535.476 70.0105 538.477 68.7769 541.554 67.7698C543.174 67.2397 543.674 67.1596 541.362 67.1462C535.248 67.1106 529.297 67.0912 523.254 65.9709C519.802 65.331 513.817 64.7631 511.573 61.5097C509.087 57.9046 515.89 56.0337 517.857 55.3456C523.182 53.4825 528.662 51.7573 534.167 50.5006C536.707 49.9209 538.699 49.8856 534.527 50.5486C530.059 51.2583 525.497 51.556 520.975 51.556C518.776 51.556 517.95 51.0603 519.68 49.3014C523.425 45.4934 529.549 43.6591 534.239 41.3144C534.932 40.9676 532.679 41.1759 531.912 41.2904C527.623 41.9306 523.406 42.3856 519.056 42.4417C515.963 42.4816 511.218 42.4232 508.167 42.1539C507.215 42.0698 502.621 41.6752 501.307 40.6188C499.105 38.8482 511.691 36.7787 512.029 36.7333C515.342 36.2873 519.091 35.4522 522.462 35.7019C528.236 36.1296 510.863 36.531 505.097 36.0137C503.026 35.8279 499.35 35.3732 497.182 34.5267C495.441 33.8468 496.087 32.9896 497.422 32.6558C502.227 31.4546 507.523 31.8561 512.436 31.7444" stroke="#4BBD5E" stroke-width="24.0107" stroke-linecap="round"/>
<path d="M87.8996 110.359C87.5385 116.052 87.4855 115.326 87.4855 117.29C87.4855 120.382 86.9736 123.432 86.9736 126.533C86.9736 132.984 87.7908 140.726 89.5616 146.924C90.1476 148.975 93.6342 148.741 95.1925 149.028C101.103 150.117 107.118 150.672 113.08 151.417C128.268 153.315 143.385 155.818 158.639 157.048C168.281 157.825 178.1 159.374 187.619 161.029C193.98 162.136 200.171 161.526 206.559 162.082C210.74 162.445 214.96 162.977 219.044 163.56C222.768 164.092 226.897 162.803 230.561 163.617C233.667 164.307 234.768 164.427 236.05 161.541C236.12 154.037 235.051 129.398 237.58 129.914M224.163 127.244C212.395 125.688 200.527 124.872 188.728 123.263C178.563 121.876 165.257 120.042 157.957 118.94C150.656 117.838 142.193 117.29 133.053 116.003" stroke="black" stroke-width="3" stroke-linecap="round"/>
<path d="M237.471 162.046C242.663 162.046 247.67 158.323 252.543 156.699C257.404 155.079 262.984 155.786 267.673 154.111C271.543 152.729 271.256 150.681 271.256 146.575C271.256 141.839 271.768 137.2 271.768 132.526C271.768 130.559 270.772 121.691 269.096 120.35C264.957 117.039 262.225 119.86 255.871 122.146C249.517 124.432 247.435 124.432 240.056 128.121" stroke="black" stroke-width="3" stroke-linecap="round"/>
<path d="M172.973 103.695C174.382 103.695 175.766 104.264 177.153 104.492C181.479 105.202 185.88 105.679 190.178 106.539C198.883 108.28 207.849 108.9 216.569 110.606C223.503 111.963 230.672 112.167 237.643 113.421C241.766 114.164 246.424 114.453 250.44 115.583C253.751 116.514 258.003 116.707 261.503 116.976C263.801 117.153 265.784 118.681 268.186 119.024C270.27 119.322 271.791 125.794 272.281 127.755" stroke="black" stroke-width="3" stroke-linecap="round"/>
<path d="M303.57 173.461C304.076 174.411 306.358 174.828 307.296 175.111C309.446 175.758 311.616 176.366 313.736 177.127C316.794 178.225 319.919 178.564 323.088 179.026C326.751 179.561 330.342 180.721 334.008 181.192C341.326 182.134 348.546 183.699 355.908 184.325C358.61 184.555 361.407 184.511 364.038 185.325C366.179 185.987 368.557 186.358 370.78 186.358C374.106 186.358 377.457 186.958 380.735 186.958" stroke="black" stroke-width="3" stroke-linecap="round"/>
<path d="M273.545 133.414C278.678 135.088 289.753 138.509 299.411 138.509" stroke="black" stroke-width="3" stroke-linecap="round"/>
<path d="M299.924 133.889C305.208 127.784 313.58 126.551 319.862 122.627C323.321 120.467 327.461 121.092 331.227 121.092C337.287 121.092 343.355 122.393 349.216 124.163C355.578 126.085 361.85 127.425 368.29 128.884C376.637 130.775 385.326 132.145 393.546 134.913" stroke="black" stroke-width="3" stroke-linecap="round"/>
<path d="M484.832 129.362C485.651 128.616 484.341 127.929 483.896 127.637C480.681 125.526 477.675 124.894 473.951 124.512C467.233 123.824 460.546 122.243 453.83 121.752C450.188 121.486 446.666 121.371 443.026 120.859C439.127 120.311 435.158 119.483 431.248 119.114C421.137 118.158 411.357 116.922 401.182 116.922" stroke="black" stroke-width="3" stroke-linecap="round"/>
<path d="M88.0586 109.561C88.5397 107.396 101.425 102.92 103.417 102.537C108.393 101.58 113.195 99.6401 118.261 98.9646C121.257 98.5651 124.115 97.1007 127.068 96.4444C128.737 96.0735 130.459 95.8616 131.942 94.9489C133.886 93.7527 137.051 92.9322 139.309 92.1795C141.149 91.566 142.891 90.8561 144.737 90.2409C145.869 89.8634 147.404 89.0248 148.503 88.9669C150.684 88.8522 153.064 87.4827 155.233 87.0007C158.286 86.3222 161.859 84.2285 165.065 83.982C167.473 83.7967 170.57 82.212 172.708 81.2402C175.12 80.1439 177.7 79.4722 179.909 78" stroke="black" stroke-width="3" stroke-linecap="round"/>
<path d="M155.482 71.0234C152.56 71.0234 157.594 71.1725 158.307 71.3004C162.348 72.0256 165.812 73.0386 169.745 74.2637C172.591 75.1504 176.287 75.153 178.911 76.3961C180.766 77.2748 182.822 78.0024 184.893 78.0024" stroke="black" stroke-width="3" stroke-linecap="round"/>
<path d="M11.915 137.703C18.6012 137.703 23.1967 139.92 31.9881 140.438C40.7794 140.957 46.1878 140.925 49.5895 141.833" stroke="black" stroke-width="3" stroke-linecap="round"/>
<path d="M8.05563 102.507C17.118 97.0996 18.3365 97.785 24.8096 95.5765C31.2828 93.368 66.8088 82.7529 83.8448 76.7904C90.3726 74.5056 95.3317 71.4899 101.978 69.5207C109.867 67.1832 115.132 66.1079 118.454 64.3632C121.776 62.6184 128.696 61.0453 133.024 59.3143C137.351 57.5833 141.421 56.7362 144.997 56.5737C152.113 56.2502 165.602 60.1389 172.543 61.5447C177.019 62.4513 182.331 63.5387 186.888 63.5387" stroke="black" stroke-width="3" stroke-linecap="round"/>
<path d="M186.39 62.0478C190.016 62.6522 193.021 65.5373 196.609 65.5373C200.445 65.5373 202.367 64.298 205.831 62.6571C207.489 61.8719 210.24 60.5523 212.062 60.5523C213.891 60.5523 217.534 58.8323 219.124 57.949C222.272 56.2002 224.918 55.3677 228.347 54.2657C232.873 52.8108 237.981 51.8811 242.221 49.9731C245.206 48.6302 248.63 46.5944 251.942 46.5944C255.923 46.5944 257.936 47.6808 261.164 49.4746C265.61 51.9442 270.744 48.6856 275.455 47.9791C284.671 46.5966 291.133 40.2445 299.826 38.0091C306.716 36.2373 312.57 31.6031 319.489 30.6147C320.764 30.4326 322.001 29.1469 323.227 29.1469C324.881 29.1469 326.303 28.6484 327.963 28.6484C332.886 28.6484 337.351 30.6424 342.419 30.6424C346.651 30.6424 351.515 32.0774 355.657 33.0241C360.428 34.1147 365.603 33.2782 370.335 34.6304" stroke="black" stroke-width="3" stroke-linecap="round"/>
<path d="M373.326 28.6454C397.579 16.0338 392.763 21.3883 371.443 15.2968C369.074 14.62 363.682 16.198 365.35 12.4443C366.3 10.3063 368.148 10.581 369.947 10.0902C373.711 9.06376 378.136 8.70553 382.05 8.70553C384.715 8.70553 387.688 7.26415 390.275 6.60076C394.599 5.49198 398.815 4.51189 403.125 3.60978C405.796 3.05071 408.547 1.72656 411.212 1.72656C415.268 1.72656 419.473 4.7723 423.48 5.24374C426.607 5.61159 429.656 6.14587 429.656 9.45328C429.656 11.8756 420.843 13.7669 419.188 14.4106C415.026 16.0291 410.297 16.0799 407.224 19.9217C405.341 22.2753 407.064 22.541 409.329 23.162C414.175 24.4907 419.373 24.6688 424.367 25.156C427.348 25.4468 430.011 26.7311 432.924 27.4269C434.919 27.9032 436.908 27.9204 438.906 28.3962C440.336 28.7366 442.605 28.6357 443.725 29.5317C444.849 30.4313 441.212 31.317 439.875 32.3565C437.851 33.9309 434.483 35.2818 432.149 36.5106C430.033 37.6241 428.134 39.1259 425.917 40.1109C424.065 40.9341 422.483 42.2654 420.683 43.2126C420.07 43.5352 417.94 44.6 417.692 45.0959" stroke="black" stroke-width="3" stroke-linecap="round"/>
<path d="M429.522 15.2734C429.653 17.0928 430.398 19.0366 430.086 20.867" stroke="black" stroke-width="3" stroke-linecap="round"/>
<path d="M444.363 35.9062C444.266 40.1212 444.583 44.5996 443.937 48.9462" stroke="black" stroke-width="3" stroke-linecap="round"/>
<path d="M365.96 19.375C365.96 20.8529 365.96 22.3299 365.96 23.8448C365.96 27.0461 365.96 30.2713 365.96 33.4948" stroke="black" stroke-width="3" stroke-linecap="round"/>
<path d="M326.475 54.2799C320.795 57.8028 288.481 70.5592 306.507 71.7518C316.926 72.4412 335.872 76.1857 342.282 76.1193C348.693 76.0529 356.218 67.176 365.161 63.016" stroke="black" stroke-width="3" stroke-linecap="round"/>
<path d="M332.61 54.4922C339.252 53.9198 346.218 55.9247 352.875 56.184C357.973 56.3826 363.039 56.8141 368.127 57.1781" stroke="black" stroke-width="3" stroke-linecap="round"/>
<path d="M441.846 70.0838C447.948 71.5388 454.275 71.0009 460.445 71.9793C465.185 72.7312 469.34 73.9103 474.186 73.9683C477.322 74.0058 478.455 75.2842 478.187 76.7859C477.919 78.2875 460.871 82.407 457.414 83.79C453.956 85.1731 445.164 87.1871 443.746 87.9041C441.723 88.9273 440.103 88.2934 437.829 87.9517C429.14 86.6461 420.122 85.3829 411.489 84.6517C409.218 84.4594 401.176 84.725 407.441 81.6159C413.595 78.5618 419.77 76.519 424.934 74.6545C430.099 72.7901 436.938 70.6776 440.181 68.9371" stroke="black" stroke-width="3" stroke-linecap="round"/>
<path d="M440.587 75.6873C440.687 77.2528 440.736 77.639 440.745 78.1535C440.77 79.7036 441.061 81.3023 441.158 82.8647" stroke="black" stroke-width="3" stroke-linecap="round"/>
<path d="M327.171 56.6172C326.424 60.3047 326.992 64.5669 327.823 68.4689" stroke="black" stroke-width="3" stroke-linecap="round"/>
<path d="M459.566 156.766C461.289 157.826 463.72 157.131 465.548 156.766" stroke="black" stroke-width="3" stroke-linecap="round"/>
<path d="M95.8135 111.367C101.403 113.044 107.386 113.291 113.15 113.86C117.007 114.24 120.847 114.857 124.726 114.857" stroke="black" stroke-width="3" stroke-linecap="round"/>
<path d="M13.5381 104.188C14.8617 104.493 16.3604 104.567 17.7711 104.687C20.1121 104.885 22.536 105.074 24.9079 105.105C27.8337 105.143 30.7092 105.173 33.6272 105.263C37.8877 105.394 42.1651 105.954 46.4371 105.954" stroke="black" stroke-width="3" stroke-linecap="round"/>
<path d="M545.945 202.022C558.329 205.247 574.401 208.074 586.935 204.095C591.958 202.5 596.948 197.597 600.102 193.497C600.79 192.603 604.654 186.067 605.387 187.074C609.362 192.54 617.707 183.931 620.568 188.475C621.569 190.065 623.196 193.203 623.196 189.41" stroke="black" stroke-width="3" stroke-linecap="round"/>
<path d="M584.308 156.823C584.8 161.25 600.644 159.366 603.693 159.479C611.084 159.753 623.859 162.946 628.334 155.217C630.187 152.016 629.623 147.611 628.567 144.269C627.826 141.921 627.609 143.862 628.743 143.656C629.832 143.458 631.172 143.102 632.129 142.517C632.64 142.205 633.225 140.088 633.735 140.853C634.791 142.437 636.036 143.568 638.114 143.568C641.348 143.568 640.178 142.054 642.639 144.853C643.123 145.403 646.916 149.08 647.865 147.655C647.908 147.592 648.174 148.389 648.216 148.473C648.915 149.873 650.06 150.982 651.34 151.86C654.104 153.757 654.819 155.617 652.215 158.282C649.549 161.012 651.508 160.501 654.201 160.501" stroke="black" stroke-width="3" stroke-linecap="round"/>
<path d="M636.858 158.394C637.605 158.394 638.832 158.07 638.931 159.066C639.295 162.705 639.07 167.338 637.063 170.481C634.496 174.499 630.706 176.04 627.224 178.889C623.455 181.973 629.303 186.902 631.078 188.874" stroke="black" stroke-width="3" stroke-linecap="round"/>
<path d="M621.618 200.961C623.653 206.659 629.685 208.8 634.99 210.654C640.393 212.542 645.936 214.21 651.572 215.15" stroke="black" stroke-width="3" stroke-linecap="round"/>
<path d="M490.768 156.297C490.966 157.09 494.003 157.765 494.709 158.165C498.768 160.469 502.339 163.83 505.686 167.041C512.867 173.929 520.43 175.741 530.181 175.741" stroke="black" stroke-width="3" stroke-linecap="round"/>
<path d="M531.757 147.891C531.909 149.105 534.082 151.582 534.793 152.62C536.49 155.101 537.472 158.762 538.588 161.554" stroke="black" stroke-width="3" stroke-linecap="round"/>
<path d="M560.135 99.5312C557.926 99.8074 561.231 107.648 561.945 108.582C565.454 113.171 571.557 115.103 576.951 116.348" stroke="black" stroke-width="3" stroke-linecap="round"/>
<path d="M518.094 112.67C520.64 111.464 522.829 110.138 524.896 108.174C527.383 105.812 525.763 104.968 529.451 106.364C530.731 106.848 536.059 109.145 537.246 107.619C538.736 105.703 538.026 105.694 541.041 106.364C542.733 106.74 548.68 107.998 550.15 106.656C551.789 105.16 552.727 101.687 554.88 100.7C557.103 99.6809 558.846 100.422 560.777 98.7731C563.146 96.7509 563.206 95.975 566.441 95.3281" stroke="black" stroke-width="3" stroke-linecap="round"/>
<path d="M516.896 62.2031C519.631 62.4961 522.975 62.2496 525.597 63.0206C527.613 63.6135 529.123 64.3076 531.348 64.3344C533.504 64.3603 539.16 63.1601 540.428 65.4146C541.654 67.5955 543.201 69.5503 544.486 71.6915C545.005 72.5573 546.51 72.1971 547.347 72.217C549.332 72.2643 549.066 72.9515 549.945 74.3191C551.097 76.1101 554.381 76.8068 556.339 76.9466C557.904 77.0584 554.046 78.8102 554.617 79.837C554.99 80.5093 554.899 81.2861 555.434 81.9098C556.18 82.7804 556.981 81.719 556.981 83.2528C556.981 84.5816 557.948 84.4796 558.762 85.384C559.858 86.6018 559.083 90.5595 559.083 92.1865" stroke="black" stroke-width="3" stroke-linecap="round"/>
<path d="M531.757 120.562C534.733 123.539 537.654 126.585 540.749 129.438C546.103 134.373 551.136 137.274 558.032 139.481" stroke="black" stroke-width="3" stroke-linecap="round"/>
<path d="M299.803 134.312C299.803 137.016 301.748 149.911 301.916 152.607C302.031 154.441 301.928 156.308 301.928 158.147C301.928 160.051 301.928 161.956 301.928 163.86" stroke="black" stroke-width="3" stroke-linecap="round"/>
<path d="M315.934 141.703C317.377 141.834 318.84 142.523 320.3 142.748C321.313 142.905 322.367 142.996 323.366 143.178C324.332 143.354 325.219 144.182 326.2 144.212C327.227 144.243 328.261 144.212 329.289 144.212C329.806 144.212 331.03 143.975 331.484 144.328C332.244 144.919 332.864 145.734 333.748 146.302C335.23 147.254 337.005 148.183 338.812 148.183C341.244 148.183 345.777 146.834 347.103 149.321C347.627 150.303 349.464 151.088 350.39 151.598C351.39 152.148 351.432 153.075 351.981 153.99C352.846 155.431 354.667 155.376 355.755 156.463C357.101 157.809 357.778 159.559 359.413 160.679C360.892 161.692 362.337 162.303 364.093 162.7C365.108 162.929 365.572 163.391 366.451 163.954C367.723 164.769 370.108 165.301 370.585 166.869C370.72 167.314 370.678 167.821 371.119 168.042" stroke="black" stroke-width="3" stroke-linecap="round"/>
<path d="M394.21 139.805C394.21 141.709 394.114 143.854 395.058 145.565C396.943 148.982 399.711 151.867 401.944 155.064C402.639 156.059 402.812 157.277 403.64 158.177C404.989 159.643 406.697 160.101 408.204 161.231C408.565 161.502 408.352 161.898 408.436 162.276C408.551 162.796 409.684 163.19 410.097 163.426" stroke="black" stroke-width="3" stroke-linecap="round"/>
<path d="M396.641 167.703C396.963 169.8 398.955 172.009 400.33 173.464C403.051 176.343 406.596 178.782 410.303 180.225C411.172 180.564 412.121 180.768 412.945 181.215C413.567 181.552 414.028 182.171 414.598 182.588C416.959 184.315 419.745 184.713 422.569 185.09C423.849 185.26 425.072 185.695 426.34 185.928C427.747 186.186 430.231 186.036 431.216 187.185C431.638 187.677 432.331 187.864 432.927 188.069C434.437 188.59 435.968 188.946 437.489 189.489" stroke="black" stroke-width="3" stroke-linecap="round"/>
<path d="M492.791 125.385C493.819 125.271 495.079 124.207 496.073 123.825C497.738 123.186 498.587 122.647 499.494 121.195" stroke="black" stroke-width="3" stroke-linecap="round"/>
<path d="M294.753 101.336C296.859 101.637 298.847 102.45 300.997 102.686C303.275 102.936 305.6 103.289 307.892 103.289C309.527 103.289 311.13 103.506 312.762 103.506C314.123 103.506 315.469 103.42 316.776 103.711C322.53 104.989 328.397 106.142 334.243 106.977" stroke="black" stroke-width="3" stroke-linecap="round"/>
<path d="M280.649 100.458C279.187 99.9315 277.863 99.8527 276.286 99.7587C274.182 99.6333 272.095 99.2284 269.993 99.156C266.262 99.0273 262.396 97.9006 258.734 97.2031" stroke="black" stroke-width="3" stroke-linecap="round"/>
<path d="M239.857 93.0797C239.461 92.7278 238.803 92.6636 238.314 92.5373C236.582 92.0893 234.799 91.8325 233.046 91.4765C231.695 91.2019 230.407 90.7375 229.081 90.3795C225.063 89.2954 220.525 88.7755 216.351 88.7401C212.356 88.7063 208.246 87.8273 204.321 87.173C203.495 87.0354 202.846 86.7873 201.994 86.7873C201.258 86.7873 200.34 86.9861 199.716 86.5703" stroke="black" stroke-width="3" stroke-linecap="round"/>
<path d="M198.151 91.6172C199.536 94.6642 199.279 98.2465 199.279 101.53C199.279 102.667 199.392 103.804 199.392 104.926" stroke="black" stroke-width="3" stroke-linecap="round"/>
<path d="M195.669 87.7891C193.004 88.6774 190.712 89.6458 188.313 91.085C185.76 92.6167 183.271 94.3263 180.656 95.747C179.088 96.5989 177.596 97.4808 175.994 98.2535C175.272 98.6015 174.295 98.9993 173.506 99.1746C172.221 99.4602 171.201 100.366 170.116 100.985C169.541 101.314 169.976 101.974 170.411 102.17C171.48 102.651 172.649 102.696 173.788 102.903" stroke="black" stroke-width="3" stroke-linecap="round"/>
<path d="M470.24 192.969C471.83 193.3 473.489 193.223 475.109 193.308C476.778 193.396 478.476 193.485 480.146 193.496C481.281 193.504 482.375 193.558 483.503 193.647C483.634 193.657 484.12 193.674 484.181 193.798" stroke="black" stroke-width="3" stroke-linecap="round"/>
<path d="M423.109 48.9455C423.588 48.5204 424.414 48.7458 424.983 48.8375C426.463 49.0762 428.059 49.5098 429.546 49.594C431.981 49.7318 434.314 50.0263 436.763 50.0263C439.41 50.0263 441.998 50.6748 444.617 50.6748C445.342 50.6748 446.449 51.1047 447.103 51.4313C447.832 51.7962 448.716 51.8193 449.312 52.356C450.195 53.1503 452.425 53.3464 453.563 53.4728C455.404 53.6773 457.358 53.701 459.207 53.701" stroke="black" stroke-width="3" stroke-linecap="round"/>
<path d="M468.17 50.1035C469.584 50.0203 471.011 48.0781 472.413 47.6106C474.832 46.8043 476.749 45.9921 479.383 46.1042C482.012 46.216 484.73 46.2364 487.339 46.5709C490.268 46.9464 493.071 47.5879 495.975 48.1834C496.437 48.2782 498.643 48.4007 498.913 48.873C499.151 49.2897 499.893 49.808 500.335 49.955C502.175 50.5686 503.606 50.8682 505.13 52.0767C506.144 52.8809 507.364 53.5064 508.567 53.9438C508.78 54.0213 509.476 54.5006 509.564 54.7288C509.861 55.5009 510.359 56.1691 510.561 56.9778" stroke="black" stroke-width="3" stroke-linecap="round"/>
<path d="M509.225 44.7578C509.993 45.1968 510.668 45.7903 511.368 46.3279C512.51 47.2055 513.729 47.8074 515.006 48.4601C517.18 49.5713 518.865 51.0757 520.629 52.7353C521.561 53.6125 522.167 54.7748 523.079 55.6633C524.137 56.6932 525.604 57.0158 526.983 57.3606" stroke="black" stroke-width="3" stroke-linecap="round"/>
<path d="M494.158 37.7948C494.305 36.1791 495.246 34.6234 495.611 33.0457C496.159 30.6823 496.474 28.2636 497.029 25.9042C497.361 24.492 501.213 28.6099 501.707 29.0053C502.926 29.9802 503.556 30.4179 504.702 29.3243C505.53 28.5342 505.812 27.2826 506.793 27.7472C507.548 28.1046 509.009 28.6227 509.717 27.8358C510.059 27.4558 510.067 25.3428 510.603 25.2662C510.912 25.2221 511.585 27.5553 511.702 27.9066" stroke="black" stroke-width="3" stroke-linecap="round"/>
<path d="M512.979 34.9305C513.101 33.8242 515.028 31.9742 515.991 31.4927C517.417 30.7795 518.318 31.458 519.482 32.3788C521.897 34.2882 524.254 36.5989 526.305 38.8823C529.078 41.9711 530.703 45.5375 532.631 49.1426C534.334 52.3274 536.398 53.4093 539.772 54.7069" stroke="black" stroke-width="3" stroke-linecap="round"/>
<path d="M354.049 109.996C354.069 109.857 354.479 110.177 354.514 110.196C355.747 110.85 357.18 111.251 358.505 111.667C359.579 112.004 360.682 112.257 361.739 112.645C363.15 113.164 364.216 114.082 365.211 115.187C366.294 116.39 367.266 117.952 368.867 118.529C369.906 118.904 371.108 118.374 372.117 118.865C372.975 119.282 373.65 119.936 374.6 120.174C375.782 120.469 377.262 120.418 378.461 120.309C378.886 120.27 379.536 119.754 379.77 119.449C380.249 118.823 380.819 118.076 381.013 117.296" stroke="black" stroke-width="3" stroke-linecap="round"/>
<path d="M57.4316 103.671C59.0782 102.93 60.9557 102.891 62.6792 102.413C65.2654 101.694 67.9539 101.434 70.5795 100.883C73.2747 100.317 76.0892 99.6168 78.6154 98.5205C81.113 97.4367 83.5919 96.2604 86.109 95.2287C89.6567 93.7748 93.2663 92.571 96.73 90.901C98.3716 90.1095 99.9819 89.4269 101.542 88.4709C101.938 88.2283 102.624 87.8125 103.091 87.8125" stroke="black" stroke-width="3" stroke-linecap="round"/>
<path d="M111.805 85.0326C116.136 84.686 120.364 82.9711 124.546 81.8957C126.948 81.278 129.103 80.3267 131.41 79.4559C132.901 78.8933 134.506 78.4618 135.922 77.7228C136.703 77.3151 137.277 76.634 138.042 76.2222C138.907 75.7567 139.763 75.2948 140.637 74.8473C142.135 74.0802 143.721 73.6941 145.265 73.0078" stroke="black" stroke-width="3" stroke-linecap="round"/>
<path d="M49.2417 106.459C49.2417 105.99 49.1927 105.622 49.3482 106.382C49.814 108.659 49.9286 110.981 50.113 113.295C50.3675 116.487 50.5952 119.682 50.8973 122.87C51.0188 124.153 51.0722 125.514 51.3717 126.772C52.0222 129.504 52.2043 131.762 52.2043 134.575C52.2043 135.917 52.03 137.198 52.03 138.525C52.03 138.804 51.8744 139.687 52.0688 139.881C52.2198 140.032 54.3255 139.095 54.6538 138.951C57.3462 137.774 60.2869 137.265 62.8058 135.669C64.0666 134.871 65.7204 134.345 67.1045 133.733C68.679 133.037 70.1944 132.273 71.7615 131.555C73.1391 130.923 74.744 130.615 76.0795 129.947C76.5954 129.69 77.1835 129.402 77.7351 129.279C78.3792 129.136 79.7773 128.69 80.0878 128.069" stroke="black" stroke-width="3" stroke-linecap="round"/>
<path d="M8.01671 102.555C7.9863 103.65 8.03209 104.727 8.18124 105.814C8.45896 107.837 8.72296 109.844 8.86037 111.884C9.06725 114.955 8.77239 118.023 8.59782 121.087C8.51994 122.455 8.55409 123.845 8.52431 125.215C8.50177 126.251 8.49414 127.299 8.56982 128.334C8.68633 129.926 8.61849 131.524 8.72385 133.116C8.78017 133.967 9.03116 134.8 9.09142 135.643C9.1116 135.926 9.17463 136.226 9.22795 136.504C9.25713 136.657 9.25149 136.714 9.33997 136.581" stroke="black" stroke-width="3" stroke-linecap="round"/>
</svg>
