<svg width="551" height="337" viewBox="0 0 551 337" fill="none" xmlns="http://www.w3.org/2000/svg">
<path d="M3.44824 23.8672C12.3617 38.3929 24.4347 49.4451 36.8515 60.9819C54.1904 77.0921 71.795 92.7567 90.9239 106.735C99.4496 112.966 110.052 120.344 116.776 128.62C118.853 131.176 118.632 129.531 118.632 126.893C118.632 122.811 119.674 118.909 119.784 114.862C119.967 108.09 118.693 119.75 118.632 121.517C118.516 124.879 117.48 128.047 117.48 131.564C117.48 134.897 102.621 133.752 100.203 132.14" stroke="black" stroke-width="4" stroke-linecap="round"/>
<path d="M548.27 2C537.146 8.98491 528.018 18.7178 517.17 26.1886C500.041 37.9854 482.33 49.831 465.914 62.5994C449.038 75.7247 435.32 90.8641 416.961 102.21C409.451 106.85 401.976 111.827 394.564 116.544C387.829 120.829 396.491 106.809 397.955 105.089C400.27 102.372 406.527 93.7696 404.93 96.9626C402.848 101.127 398.923 104.798 396.483 108.865C395.816 109.977 389.898 118.409 392.324 119.487C400.374 123.065 409.641 126.584 418.112 128.702" stroke="black" stroke-width="4" stroke-linecap="round"/>
<path d="M226.926 281.921C238.461 282.251 230.573 305.76 233.837 301.502C237.101 297.245 241.9 292.862 241.9 289.472C241.9 283.207 239.862 278.827 245.612 277.058C251.54 275.234 258.999 275.01 265.193 275.01C274.841 275.01 284.127 277.314 293.733 277.314C297.501 277.314 302.503 278.138 306.147 277.058C309.819 275.97 308.928 273.897 311.011 271.555C314.595 267.522 314.466 259.377 314.466 254.277C314.466 244.383 317.396 232.296 320.481 222.922L320.58 222.62C323.364 214.167 328.191 199.505 323.425 190.926C319.847 184.486 305.241 187.471 299.492 187.471C262.76 187.471 225.536 187.295 188.916 184.271C179.438 183.488 169.9 182.51 160.376 182.863C157.09 182.985 156.808 186.284 155.768 188.622C154.586 191.283 155.484 195.165 154.617 198.093C153.165 202.992 154.839 208.915 154.105 213.963C151.611 231.106 153.971 249.63 156.408 266.691C157.075 271.359 157.264 274.887 162.68 275.01C169.591 275.167 175.853 277.098 182.645 278.21C192.038 279.747 201.987 278.523 211.441 279.873C216.446 280.589 221.899 281.778 226.926 281.921Z" fill="#EF9BB8" stroke="black" stroke-width="4" stroke-linecap="round"/>
<path d="M272.714 271.343C261.18 271.673 269.067 295.182 265.803 290.924C262.539 286.667 257.74 282.284 257.74 278.894C257.74 272.629 259.778 268.249 254.029 266.48C248.101 264.656 240.641 264.432 234.448 264.432C224.8 264.432 215.514 266.736 205.908 266.736C202.14 266.736 197.137 267.559 193.493 266.48C189.822 265.392 190.712 263.319 188.63 260.977C185.046 256.944 185.175 248.798 185.175 243.699C185.175 233.805 182.245 221.718 179.159 212.343L179.06 212.042C176.277 203.589 171.45 188.927 176.216 180.348C179.794 173.908 194.4 176.892 200.148 176.892C236.881 176.892 274.105 176.717 310.725 173.693C320.203 172.91 329.74 171.932 339.265 172.285C342.55 172.407 342.833 175.705 343.872 178.044C345.054 180.705 344.156 184.587 345.024 187.515C346.475 192.413 344.802 198.337 345.536 203.385C348.029 220.528 345.67 239.052 343.232 256.113C342.565 260.781 342.376 264.309 336.961 264.432C330.049 264.589 323.788 266.52 316.996 267.632C307.603 269.169 297.654 267.945 288.2 269.295C283.195 270.01 277.742 271.199 272.714 271.343Z" fill="#9BA3EF" stroke="black" stroke-width="4" stroke-linecap="round"/>
</svg>
