<svg width="563" height="320" viewBox="0 0 563 320" fill="none" xmlns="http://www.w3.org/2000/svg">
<path d="M81.1455 75.3393C80.6543 86.6583 72.3711 96.9059 69.8756 107.813C67.2343 119.357 65.956 130.947 64.8646 142.656C62.0628 172.713 63.0778 202.761 59.2272 232.748C56.7343 252.162 56.7947 272.53 56.0953 291.981C55.8215 299.598 56.0953 307.259 56.0953 314.877M81.6012 60.2171C81.8328 63.4172 80.697 75.8492 81.6012 79.0222C83.4092 85.3667 86.2121 98.5497 87.137 105.018C88.8832 117.231 91.4995 129.11 93.6791 141.241C98.285 166.874 102.448 191.548 102.448 217.64C102.448 240.359 104.954 263.051 104.954 285.811V314.875M93.0999 132.74C102.59 132.74 112.332 133.945 121.544 128.42C131.919 122.196 140.991 102.132 143.61 80.6146C144.977 69.387 144.32 56.2454 144.192 44.7728C144.098 36.3284 143.184 28.6361 142.539 20.4194C142.245 16.668 141.585 3.59008 140.025 2M108.436 47.4138C104.142 60.2225 66.7152 67.1444 59.8579 50.022C53.0006 32.8997 62.4919 18.0217 74.5933 11.971C83.9274 7.30396 100.371 7.73731 105.44 15.5194C110.509 23.3015 112.729 34.6051 108.436 47.4138Z" stroke="black" stroke-width="3" stroke-linecap="round"/>
<path d="M65.3831 26.3202C65.3462 23.0807 68.8551 22.4627 71.4107 22.2869C73.9662 22.1111 94.8928 19.6959 101.244 21.0851C107.595 22.4743 105.352 27.8749 104.46 31.0029C103.569 34.131 103.101 34.8751 96.7864 36.7254C90.472 38.5756 77.8757 40.5651 71.595 38.4841C65.3143 36.403 65.42 29.5596 65.3831 26.3202Z" fill="#F6C30E" stroke="black" stroke-width="3" stroke-linecap="round"/>
<path d="M1.86816 317.926C81.8364 314.116 149.541 316.594 210.359 316.109C324.554 315.2 419.483 314.146 561 313.859" stroke="black" stroke-width="3" stroke-linecap="round"/>
</svg>
