<svg width="57" height="189" viewBox="0 0 57 189" fill="none" xmlns="http://www.w3.org/2000/svg">
<path d="M17.8648 45.3093C17.5747 51.9935 12.6833 58.045 11.2096 64.486C9.64979 71.3031 8.8949 78.1476 8.2504 85.0617C6.59586 102.811 7.19525 120.556 4.92135 138.264C3.4492 149.729 3.48487 161.757 3.07188 173.243C2.91015 177.741 3.07188 182.265 3.07188 186.764M18.1339 36.3791C18.2707 38.2689 17.6 45.6103 18.1339 47.4842C19.2016 51.2307 20.8568 59.0157 21.403 62.8356C22.4342 70.0477 23.9792 77.0627 25.2663 84.2263C27.9862 99.3637 30.4448 113.934 30.4448 129.342C30.4448 142.759 31.9244 156.159 31.9244 169.6V186.763M24.9243 79.206C30.5284 79.206 36.2815 79.9181 41.7214 76.6549C47.8481 72.9797 53.2053 61.1313 54.7522 48.4245C55.5593 41.7942 55.1713 34.0337 55.0958 27.2588C55.0403 22.2721 54.5005 17.7295 54.1199 12.8772C53.9461 10.6619 53.5562 2.93899 52.6354 2M33.9806 28.8183C31.4453 36.3823 9.34326 40.4699 5.29378 30.3586C1.2443 20.2473 6.84926 11.4613 13.9955 7.88821C19.5076 5.13216 29.2182 5.38807 32.2117 9.98366C35.2052 14.5793 36.5159 21.2544 33.9806 28.8183Z" stroke="black" stroke-width="1.89058" stroke-linecap="round"/>
<path d="M8.55644 16.3599C8.53467 14.4469 10.6068 14.0819 12.1159 13.9781C13.6251 13.8743 25.9829 12.448 29.7336 13.2684C33.4842 14.0887 32.1594 17.278 31.6329 19.1252C31.1064 20.9724 30.83 21.4118 27.1011 22.5045C23.3722 23.5971 15.9337 24.772 12.2248 23.5431C8.51584 22.3141 8.57821 18.2729 8.55644 16.3599Z" fill="#F6C30E" stroke="black" stroke-width="1.89058" stroke-linecap="round"/>
</svg>
