<svg width="96" height="100" viewBox="0 0 96 100" fill="none" xmlns="http://www.w3.org/2000/svg">
<path fill-rule="evenodd" clip-rule="evenodd" d="M2 50.9618C3.23246 49.3548 8.87053 50.1674 10.7779 50.2308C13.5785 50.3239 10.682 38.0967 12.311 36.6947C13.9401 35.2928 17.773 37.4199 18.6354 36.163C19.4979 34.906 18.7076 32.5639 19.0309 31.2855C19.3541 30.0072 26.0206 32.0598 27.5769 30.4074C28.1456 29.8037 27.1451 22.5118 27.0868 21.3986C27.0313 20.3364 21.2813 21.3946 20.3327 20.7911C19.3841 20.1877 19.3759 11.4113 20.3327 10.7148C21.2895 10.0184 25.7482 9.67094 27.0868 10.4221C28.4138 11.1667 29.2923 17.1895 29.2923 19.0569C29.2923 20.3482 29.4159 20.8132 30.6707 20.8132C32.1736 20.8132 35.5139 20.2941 35.6329 22.5694C35.7385 24.587 35.5821 28.9726 36.014 30.1197C36.4458 31.2667 56.9649 30.7652 59.0657 30.7652C60.4451 30.7652 60.445 30.6223 60.4441 29.2646C60.4441 27.0802 60.1602 23.2036 60.4594 21.8539C60.7586 20.5042 62.7593 20.5888 63.2009 20.5367C64.9274 20.333 66.7047 20.6288 68.4388 20.5205C69.0166 20.4844 68.01 12.0495 68.7145 11.4466C69.419 10.8436 70.1331 11.0903 70.8785 11.1357C73.0164 11.2658 77.7813 10.2628 77.7813 12.5135C77.7813 15.2186 78.3633 17.5913 78.3633 20.2278C78.3633 21.2189 75.3317 21.2909 72.7215 21.3529C71.0649 21.3923 70.6442 20.9653 69.419 21.6251C68.1938 22.285 68.6892 29.8499 69.419 30.3051C70.1487 30.7603 76.2649 30.3738 77.7813 30.772C79.2976 31.1702 78.639 35.3744 78.639 35.8875C78.639 38.9129 82.872 38.0828 84.9796 38.0828C87.0719 38.0828 85.6767 46.7751 86.0976 47.2868C87.0367 48.4282 93.3543 47.2868 93.8013 48.0254C94.2483 48.7639 93.8013 77.533 93.8013 77.533C93.8013 78.009 94.1098 83.1922 93.5082 83.7912C92.5264 84.7686 88.0112 84.4718 87.0625 84.0376C86.1138 83.6034 86.1948 76.874 86.1948 74.8792C86.1948 73.5362 88.2873 60.6211 85.9445 60.6211C84.4431 60.6211 77.6979 61.1533 77.2759 61.9546C76.8538 62.7559 76.9417 65.0979 76.9704 66.652C77.0698 72.0323 76.9849 77.4205 76.9849 82.8017C76.9849 83.6846 76.072 83.8683 75.1341 84.057C74.1436 84.2562 73.1644 83.655 73.1644 84.6951C73.1644 85.4697 73.6244 89.4574 72.574 89.4574C67.9238 89.4574 63.2855 89.9603 58.6369 89.8917C57.7184 89.8782 56.0332 89.7278 56.0332 88.4282C56.0332 86.8064 55.1707 80.6809 55.9107 79.9492C57.6439 78.2353 63.1563 78.9922 65.419 79.2745C66.6817 79.432 68.1631 79.6169 68.1631 78.1882V73.6465C68.1631 73.3301 68.1977 72.9725 68.233 72.6079C68.3557 71.34 68.4866 69.9877 67.1982 69.9877C61.8188 69.9877 28.713 70.2764 28.7409 71.3002C28.7689 72.324 28.6665 74.4872 28.9553 75.4841C29.5338 77.4802 27.9719 79.686 30.7811 80.0507C33.7079 80.4307 37.0713 80.3741 40.0285 80.3741C41.1819 80.3741 40.8555 82.8299 40.9756 84.7168C41.0958 86.6038 41.2161 88.0965 40.8555 89.4364C40.6391 90.2405 38.808 89.8917 38.2519 89.8917C34.0004 89.8917 29.6016 89.5438 25.3672 89.9409C24.2837 90.0426 22.9517 90.1675 22.9517 88.8672C22.9517 87.5952 22.9517 82.4824 22.5137 82.0188C22.0758 81.5553 20.6343 81.9953 20.4017 82.0188C20.1242 82.0469 19.8473 82.075 19.7048 81.9236C17.7971 79.8982 18.8165 69.4105 18.8165 66.2476C18.8165 64.45 17.3787 64.7732 16.104 64.6705C14.6634 64.5544 12.2001 64.3559 12.2001 65.5971C12.2001 71.1581 12.4758 76.7164 12.4758 82.2814C12.4758 83.7575 12.2743 83.7558 11.133 83.7465C8.64708 83.7262 3.90425 83.7465 3.3784 83.6799C2.85255 83.6132 3.01373 82.0153 3.07372 81.1398C3.76511 71.0502 2.06625 61.0212 2 50.9618ZM61.5028 44.3216C61.918 43.8243 63.9546 44.2633 64.7197 44.2039C65.9714 44.1067 66.6329 43.6675 67.3285 44.1538C68.024 44.6401 68.3622 52.4447 68.459 53.4485C68.5479 54.371 68.6362 55.2869 67.3152 55.5058C65.79 55.7585 63.8456 55.5156 62.2707 55.5156C61.1113 55.5156 61.1629 54.992 61.23 54.312C61.5523 51.0442 61.0876 44.8189 61.5028 44.3216ZM29.4372 55.4627C30.644 55.6982 32.0626 55.6193 33.421 55.5438C34.069 55.5078 34.7034 55.4725 35.2945 55.4725C36.3247 55.4725 36.2844 54.8665 36.2372 54.1574C36.1737 53.2038 36.1761 52.2463 36.1151 51.2915C36.0458 50.2047 36.4354 46.3464 35.6542 45.6605C34.7194 44.8397 29.1722 45.0406 28.9313 45.5223C28.6903 46.0039 27.6512 55.1142 29.4372 55.4627Z" fill="#E75C41"/>
</svg>
