<svg width="1055" height="492" viewBox="0 0 1055 492" fill="none" xmlns="http://www.w3.org/2000/svg">
  <path d="M26.5344 86C25.3552 92.0543 23.6036 97.1025 24.1186 103.293C24.6206 109.328 24.1625 115.604 24.1625 121.642C24.1625 141.573 22.0595 161.555 21.7906 181.486C21.7051 187.83 21 194.068 21 200.451C21 205.2 22.3073 206.59 25.5681 209.736C36.1305 219.925 51.7244 219.897 65.4511 221.616C87.5292 224.381 110.171 224.287 132.128 227.953C139.25 229.142 136.638 244.337 136.037 249.514C134.884 259.444 135.334 269.36 134.236 279.26C133.683 284.25 134.397 289.281 133.665 294.265C133.217 297.319 132.479 300.783 132.479 303.857C132.479 308.595 132.479 313.333 132.479 318.07C132.479 327.056 134.06 336.075 134.06 345" stroke="black" stroke-width="5" stroke-linecap="round"/>
  <path d="M109.534 158C108.355 164.054 106.604 169.103 107.119 175.293C107.621 181.328 107.163 187.604 107.163 193.642C107.163 213.573 105.059 233.555 104.791 253.486C104.705 259.83 104 266.068 104 272.451C104 277.2 105.307 278.59 108.568 281.736C119.13 291.925 134.724 291.897 148.451 293.616C170.529 296.381 193.171 296.287 215.128 299.953C222.25 301.142 219.638 316.337 219.037 321.514C217.884 331.444 218.334 341.36 217.236 351.26C216.683 356.25 217.397 361.281 216.665 366.265C216.217 369.319 215.479 372.783 215.479 375.857C215.479 380.595 215.479 385.333 215.479 390.07C215.479 399.056 217.06 408.075 217.06 417" stroke="black" stroke-width="5" stroke-linecap="round"/>
  <path d="M192.534 230C191.355 236.054 189.604 241.103 190.119 247.293C190.621 253.328 190.163 259.604 190.163 265.642C190.163 285.573 188.059 305.555 187.791 325.486C187.705 331.83 187 338.068 187 344.451C187 349.2 188.307 350.59 191.568 353.736C202.13 363.925 217.724 363.897 231.451 365.616C253.529 368.381 276.171 368.287 298.128 371.953C305.25 373.142 302.638 388.337 302.037 393.514C300.884 403.444 301.334 413.36 300.236 423.26C299.683 428.25 300.397 433.281 299.665 438.265C299.217 441.319 298.479 444.783 298.479 447.857C298.479 452.595 298.479 457.333 298.479 462.07C298.479 471.056 300.06 480.075 300.06 489" stroke="black" stroke-width="5" stroke-linecap="round"/>
  <path d="M26.297 83C18.4839 79.5047 -0.00186244 72.5504 3.41729 60.6078C6.65788 49.289 4.05086 36.4009 15.9614 30.4578C25.1483 25.8737 36.0453 27.009 45.9966 27.4604C51.1673 27.695 52.9674 31.4096 54.7421 35.3946C55.7815 37.7283 57.0978 44.1223 53.7262 44.1223C50.0484 44.1223 35.0426 43.0263 35.0426 48.4861C35.0426 51.2244 33.9969 53.6266 36.3235 56.4644C40.2561 61.261 46.1823 63.4776 52.2245 64.0019C62.0088 64.851 74 66.5585 74 54.0401C74 49.6138 55.2866 42.5948 54.1238 44.9157" stroke="black" stroke-width="5" stroke-linecap="round"/>
  <path d="M109.297 155C101.484 151.505 82.9981 144.55 86.4173 132.608C89.6579 121.289 87.0509 108.401 98.9614 102.458C108.148 97.8737 119.045 99.009 128.997 99.4604C134.167 99.695 135.967 103.41 137.742 107.395C138.781 109.728 140.098 116.122 136.726 116.122C133.048 116.122 118.043 115.026 118.043 120.486C118.043 123.224 116.997 125.627 119.323 128.464C123.256 133.261 129.182 135.478 135.224 136.002C145.009 136.851 157 138.559 157 126.04C157 121.614 138.287 114.595 137.124 116.916" stroke="black" stroke-width="5" stroke-linecap="round"/>
  <path d="M192.297 227C184.484 223.505 165.998 216.55 169.417 204.608C172.658 193.289 170.051 180.401 181.961 174.458C191.148 169.874 202.045 171.009 211.997 171.46C217.167 171.695 218.967 175.41 220.742 179.395C221.781 181.728 223.098 188.122 219.726 188.122C216.048 188.122 201.043 187.026 201.043 192.486C201.043 195.224 199.997 197.627 202.323 200.464C206.256 205.261 212.182 207.478 218.224 208.002C228.009 208.851 240 210.559 240 198.04C240 193.614 221.287 186.595 220.124 188.916" stroke="black" stroke-width="5" stroke-linecap="round"/>
  <path d="M56 63C54.8308 68.8102 52.5933 78.2163 45.4189 79.7622C39.5617 81.0243 32.6397 80.1771 27 82" stroke="black" stroke-width="5" stroke-linecap="round"/>
  <path d="M139 135C137.831 140.81 135.593 150.216 128.419 151.762C122.562 153.024 115.64 152.177 110 154" stroke="black" stroke-width="5" stroke-linecap="round"/>
  <path d="M222 207C220.79 213.116 218.476 223.017 211.054 224.644C204.995 225.973 197.834 225.081 192 227" stroke="black" stroke-width="5" stroke-linecap="round"/>
  <path d="M485.436 25.7539C494.705 40.8593 507.26 52.3525 520.172 64.3498C538.203 81.1028 556.51 97.3926 576.402 111.929C585.268 118.408 596.293 126.081 603.286 134.687C605.446 137.345 605.216 135.635 605.216 132.891C605.216 128.646 606.3 124.589 606.414 120.38C606.604 113.338 605.279 125.463 605.216 127.301C605.095 130.797 604.018 134.091 604.018 137.749C604.018 141.214 588.566 140.024 586.051 138.347" stroke="black" stroke-width="5" stroke-linecap="round"/>
  <path d="M481.846 428.216C499.144 415.723 516.52 405.327 531.887 390.152C541.257 380.9 551.587 372.848 560.901 363.534C573.768 350.667 583.273 331.264 599.23 321.877C599.808 321.537 602.681 319.577 600.761 319.282C593.074 318.099 585.53 317.704 577.936 315.622C565.874 312.315 586.377 319.184 589.382 320.413C592.066 321.511 607.525 327.552 606.417 328.798C602.751 332.922 602.088 338.191 600.428 343.172" stroke="black" stroke-width="5" stroke-linecap="round"/>
  <path d="M1023.26 403.073C996.334 386.168 969.691 366.253 946.597 344.314C938.394 336.521 929.053 330.268 920.777 322.82C917.741 320.088 917.984 315.272 914.855 312.838C913.123 311.491 906.251 323.648 905.938 325.681C905.683 327.336 913.452 318.427 914.522 315.899C916.524 311.167 936.655 317.39 939.41 319.227" stroke="black" stroke-width="5" stroke-linecap="round"/>
  <path d="M1052 3C1040.43 10.2637 1030.94 20.385 1019.66 28.1539C1001.84 40.4215 983.427 52.7398 966.355 66.0178C948.806 79.6668 934.54 95.4104 915.448 107.209C907.639 112.035 899.866 117.21 892.158 122.115C885.155 126.571 894.161 111.991 895.685 110.203C898.092 107.377 904.598 98.4318 902.938 101.752C900.772 106.083 896.691 109.901 894.154 114.13C893.46 115.286 887.305 124.055 889.829 125.176C898.2 128.897 907.836 132.556 916.646 134.758" stroke="black" stroke-width="5" stroke-linecap="round"/>
  <path d="M717.833 294.088C729.828 294.431 721.625 318.878 725.02 314.451C728.414 310.023 733.404 305.465 733.404 301.941C733.404 295.426 731.285 290.871 737.264 289.031C743.428 287.134 751.186 286.901 757.627 286.901C767.659 286.901 777.316 289.297 787.306 289.297C791.224 289.297 796.426 290.154 800.215 289.031C804.033 287.9 803.107 285.744 805.273 283.308C809 279.115 808.866 270.644 808.866 265.341C808.866 255.052 811.913 242.483 815.121 232.734L815.224 232.42C818.119 223.63 823.139 208.383 818.182 199.462C814.462 192.765 799.273 195.868 793.295 195.868C755.096 195.868 716.387 195.685 678.305 192.541C668.45 191.727 658.531 190.71 648.627 191.077C645.21 191.204 644.916 194.634 643.835 197.066C642.606 199.833 643.54 203.87 642.637 206.915C641.128 212.009 642.869 218.169 642.105 223.418C639.512 241.245 641.966 260.509 644.501 278.251C645.194 283.105 645.391 286.773 651.022 286.901C658.21 287.065 664.721 289.073 671.784 290.229C681.552 291.827 691.898 290.554 701.729 291.959C706.934 292.702 712.605 293.939 717.833 294.088Z" fill="#EF9BB8" stroke="black" stroke-width="5" stroke-linecap="round"/>
  <path d="M765.444 283.088C753.45 283.431 761.652 307.878 758.258 303.451C754.863 299.023 749.873 294.465 749.873 290.941C749.873 284.426 751.992 279.871 746.013 278.031C739.849 276.134 732.092 275.901 725.651 275.901C715.618 275.901 705.961 278.297 695.972 278.297C692.054 278.297 686.851 279.154 683.062 278.031C679.244 276.9 680.17 274.744 678.005 272.308C674.277 268.115 674.411 259.644 674.411 254.341C674.411 244.052 671.365 231.483 668.156 221.734L668.053 221.42C665.159 212.63 660.139 197.383 665.095 188.462C668.816 181.765 684.005 184.868 689.983 184.868C728.181 184.868 766.89 184.685 804.972 181.541C814.828 180.727 824.746 179.71 834.651 180.077C838.067 180.204 838.361 183.634 839.442 186.066C840.672 188.833 839.738 192.87 840.64 195.915C842.149 201.009 840.409 207.169 841.172 212.418C843.765 230.245 841.311 249.509 838.777 267.251C838.083 272.105 837.886 275.773 832.255 275.901C825.067 276.065 818.557 278.073 811.493 279.229C801.725 280.827 791.379 279.554 781.548 280.959C776.343 281.702 770.673 282.939 765.444 283.088Z" fill="#9BA3EF" stroke="black" stroke-width="5" stroke-linecap="round"/>
  </svg>
  