<svg width="2301" height="801" viewBox="0 0 2301 801" fill="none" xmlns="http://www.w3.org/2000/svg">
  <path d="M1101.91 584.976C1107.49 582.291 1112.9 580.751 1118.89 579.308C1128.7 576.947 1138.29 573.524 1147.6 569.652C1160.93 564.108 1174.19 559.152 1187.93 554.727C1196.09 552.101 1203.87 548.118 1212.09 545.784C1221.52 543.104 1231.26 542.393 1240.8 540.173C1246.25 538.902 1251.25 536.538 1256.58 534.903C1262.78 532.997 1268.9 532.031 1275.29 531.144C1276.29 531.005 1285.93 529.973 1285.23 531.372C1282.82 536.182 1275.24 538.495 1270.85 540.315C1258.37 545.476 1245.84 550.48 1233.39 555.696C1208.55 566.099 1181.35 569.66 1156.49 579.849C1150.41 582.341 1145.38 585.97 1139.68 589.135C1134.64 591.933 1129.5 594.489 1124.53 597.395C1122.22 598.743 1113.03 602.488 1119 604.857C1124.06 606.863 1131.97 605.617 1137.15 604.942C1142.16 604.289 1147.04 603.26 1151.87 601.781C1161.11 598.954 1169.34 593.842 1178.48 590.73C1189.45 586.992 1200.4 583.172 1211.74 580.761C1225.69 577.796 1238.49 572.946 1251.9 568.171C1264.65 563.634 1277.62 559.243 1289.33 552.392C1298.63 546.952 1309.71 545.481 1319.98 542.594C1333.11 538.903 1345.87 533.153 1359.23 530.346C1364.84 529.166 1370.58 528.552 1376.17 527.27C1380.16 526.357 1384.04 524.555 1387.99 523.425C1389.22 523.073 1390.48 522.439 1391.75 522.257C1393.67 521.984 1391.24 526.404 1391.01 526.757C1388.07 531.4 1383.09 534.853 1378.65 537.923C1371.27 543.036 1363.16 547.285 1354.95 550.911C1344.33 555.606 1332.74 557.568 1322.31 562.703C1312.33 567.622 1302.67 573.821 1291.87 576.802C1281.65 579.621 1271.24 581.11 1260.96 583.609C1250.19 586.228 1240.33 590.911 1229.74 593.948C1224.38 595.486 1219.15 596.919 1214.08 599.217C1213.27 599.584 1206.38 603.268 1207.33 604.686C1208 605.698 1210.73 605.835 1211.8 605.939C1215.22 606.273 1218.68 606.499 1222.11 606.794C1227.54 607.26 1232.93 607.534 1238.37 607.534C1251.2 607.534 1263.94 604.84 1276.57 602.92C1289.82 600.906 1303.16 598.574 1316.53 597.537C1324.64 596.908 1332.62 596.768 1340.77 596.768C1342.76 596.768 1348.58 595.9 1345.07 598.876C1338.61 604.357 1328.13 606.705 1320.26 609.129C1313.33 611.263 1304.96 612.619 1298.9 616.763C1294.07 620.071 1289.23 623.92 1283.89 626.447C1275.83 630.266 1265.69 628.734 1257.26 627.757C1255.73 627.581 1238.11 625.987 1238.32 625.251C1238.4 624.948 1256.4 629.108 1257.26 629.238C1269.11 631.03 1281.33 631.631 1293.32 631.631C1303.58 631.631 1313.65 631.241 1323.74 629.352C1338.27 626.631 1353.02 625.553 1367.6 623.171C1375.92 621.813 1386.94 619.372 1393.52 613.801C1395.45 612.167 1395.49 611.48 1392.67 610.44C1381.22 606.215 1368.95 603.896 1357.2 600.613C1353.73 599.641 1350.26 598.632 1346.81 597.565C1344.07 596.719 1344.17 596.171 1342.71 593.863C1341 591.157 1338.05 589.951 1339.57 586.77C1341.72 582.284 1349.89 580.943 1354.27 580.875C1362.73 580.743 1371.48 580.27 1379.88 581.416C1392.77 583.173 1405.61 584.483 1418.53 585.888C1427.35 586.847 1436.51 587.54 1445.24 587.54C1448.53 587.54 1452.27 587.039 1455.5 587.653C1456.59 587.861 1457.7 588.461 1458.49 587.511C1461.08 584.401 1442.52 575.498 1441.09 574.836C1431.9 570.599 1422.3 567.276 1412.35 565.465C1407.66 564.613 1402.95 563.826 1398.19 563.529C1396.95 563.451 1393.3 563.413 1394.49 563.044C1400.33 561.233 1407.95 562.36 1413.89 562.446C1427.15 562.64 1440.35 563.873 1453.62 563.956C1460.17 563.997 1466.72 564.202 1473.27 564.355C1477.12 564.444 1481.52 564.983 1485.38 564.412C1486.47 564.25 1483.93 562.673 1482.96 562.161C1477.79 559.454 1471.64 558.609 1465.98 557.519C1449.18 554.283 1431.57 555.376 1414.97 551.452C1412.91 550.966 1411.14 549.737 1408.9 549.259C1401.41 547.663 1393.99 546.721 1386.31 547.293C1382.05 547.612 1377.34 548.052 1373.07 547.55C1372.47 547.48 1374.07 546.888 1374.55 546.524C1376.48 545.057 1378.38 543.996 1380.7 543.22C1387.04 541.107 1393.05 538.815 1399.1 535.929C1408.29 531.55 1418.6 529.877 1428.33 527.099C1431.87 526.088 1434.02 523.615 1437.1 521.801C1445.22 517.011 1452.82 511.939 1461.99 509.098C1466.62 507.663 1471.12 507.134 1475.92 506.535C1476.69 506.439 1477.83 507.094 1478.23 506.933C1480.1 506.184 1481.39 505.788 1483.47 506.307C1489.56 507.83 1496.07 506.696 1502.27 507.161C1509.04 507.669 1514.49 511.786 1521.18 512.573C1525.38 513.067 1529.49 513.2 1533.71 513.2C1537.87 513.2 1541.88 513.641 1545.82 512.402C1549.23 511.331 1554.48 510.346 1555.93 506.535C1556.77 504.316 1557.47 502.488 1559.26 500.838C1560.16 500.006 1567.36 495.831 1567.32 495.768C1566.42 494.213 1560.77 493.08 1559.03 492.749C1556.14 492.198 1551.5 495.219 1549.26 496.737C1548.16 497.487 1545.7 499.128 1545.5 500.667C1545.28 502.484 1555.61 502.598 1556.19 502.632C1557.47 502.709 1571.61 502.161 1571.54 504.712C1571.5 505.982 1570.97 507.189 1570.4 508.301C1567.58 513.785 1564.06 519.041 1560.49 524.052C1554.62 532.259 1546.98 538.914 1538.38 544.075C1529.66 549.31 1520.79 553.959 1512.86 560.395C1510.66 562.184 1487.11 580.376 1489.11 582.128C1491.52 584.242 1500.39 581.103 1502.61 580.305C1513.29 576.469 1520.31 570.439 1528.27 562.646C1535.96 555.124 1544.07 549.306 1554.45 546.069C1560.1 544.305 1567.65 544.015 1572.82 541.141C1573.98 540.494 1574.73 539.726 1575.7 538.777C1577 537.496 1578.3 536.218 1579.85 535.245C1580.03 535.133 1582.91 533.539 1582.19 533.251C1580.24 532.473 1573.6 534.965 1572.53 535.302C1559.66 539.36 1547.69 545.794 1536.56 553.36C1529.64 558.064 1523.95 564.311 1519.73 571.532C1519.04 572.702 1514.46 580.524 1515.77 581.9C1517.23 583.435 1523.03 583.123 1524.6 583.21C1532.25 583.636 1539.95 583.833 1547.61 583.922C1569.58 584.178 1591.52 583.775 1613.41 581.871C1625.03 580.861 1636.56 577.891 1648.18 576.545C1652.88 576.002 1658.28 576.325 1662.8 574.722C1667.34 573.109 1670.83 569.109 1674.22 565.893C1680.7 559.739 1691.93 557.25 1700.28 554.784C1706.01 553.092 1711.76 551.403 1717.6 550.113C1718.22 549.976 1725.97 548.409 1725.2 549.173C1723.91 550.466 1723.36 551.423 1721.64 552.05C1715.93 554.138 1709.91 554.949 1704.27 557.348C1692.65 562.286 1681.39 567.921 1669.63 572.558C1662.26 575.464 1655.2 578.623 1648.61 583.068C1646.71 584.352 1644.39 584.761 1644.34 587.255C1644.29 589.651 1641.74 593.427 1642.32 595.458C1642.79 597.125 1652.44 597.573 1653.85 597.565C1661.93 597.52 1667.86 593.742 1673.93 588.736C1677.98 585.399 1682.56 583.265 1687.32 581.102C1692.25 578.86 1698.72 577.081 1703.07 573.697C1704.09 572.904 1704.86 571.725 1705.92 570.906C1707.35 569.801 1709.47 569.008 1710.73 567.744C1711.46 567.017 1711.94 565.993 1712.61 565.209C1714.83 562.617 1713.93 562.293 1710.48 562.646C1702.77 563.432 1695.09 565.245 1687.46 566.576C1673.32 569.046 1659.14 571.258 1644.88 573.013C1631.21 574.697 1617.56 575.979 1604.06 572.501C1588.85 568.579 1573.46 565.29 1558.15 561.734C1553.48 560.648 1548.81 559.914 1544.02 559.569C1543.76 559.551 1536.4 559.454 1536.56 559.655C1539.57 563.518 1550.54 562.996 1554.5 563.443C1571.02 565.302 1587.5 565.95 1604.12 565.95C1617.43 565.95 1632.35 566.004 1645.19 561.791C1649.72 560.305 1651.91 558.063 1653.4 553.787C1654.13 551.688 1654.84 549.113 1656.73 547.749C1661.14 544.571 1667.37 542.068 1672.71 541.056C1678.39 539.977 1682.95 539.219 1687.83 535.986C1689.97 534.568 1696.13 530.828 1696.63 528.068C1696.78 527.249 1697.28 526.538 1697.43 525.732C1697.89 523.344 1692.66 522.686 1691.36 522.371C1679.01 519.37 1666.46 517.866 1653.97 515.649C1649.88 514.925 1641.73 511.911 1637.96 514.994C1636.64 516.077 1635.63 517.397 1634.09 518.213C1632.54 519.028 1643.24 521.243 1643.97 521.374C1644.24 521.422 1655.2 523.453 1650.49 523.453C1641.33 523.453 1632.31 521.147 1623.2 520.434C1616.47 519.908 1609.72 519.909 1602.98 519.608C1601.22 519.529 1599.31 519.628 1597.68 518.839C1590.18 515.194 1580.67 514.995 1574.73 508.699C1570.23 503.941 1568.13 491.432 1576.38 489.075C1577.4 488.784 1575.95 486.092 1575.47 485.799C1572.13 483.755 1567.86 482.758 1564.19 481.527C1561.69 480.687 1557.26 480.129 1555.13 478.308C1554.18 477.494 1554.21 476.641 1553.59 475.659C1551.32 472.051 1555 472.317 1558.41 471.957C1566.83 471.066 1576.04 470.336 1584.47 471.273C1586.55 471.505 1582.48 475.788 1582.08 476.286C1578.62 480.531 1574.51 484.806 1571.65 489.502C1570.1 492.05 1571.73 492.706 1574.1 493.518C1581.66 496.111 1590.23 497.831 1598.25 497.192C1600.14 497.042 1602.63 495.883 1604.55 496.309C1605.56 496.535 1608.29 496.903 1608.85 497.819C1609.74 499.273 1592.21 499.84 1591.08 499.87C1586.42 499.993 1581.94 500.358 1577.35 501.123C1576.83 501.209 1571.3 501.469 1570.91 502.319C1569.87 504.582 1591.19 509.146 1592.76 509.554C1613.99 515.073 1634.86 521.501 1656.53 525.248C1664.03 526.545 1670.75 527.383 1677.72 530.403C1685.5 533.773 1692.96 538.14 1700.91 541.084C1705.64 542.839 1710.58 543.931 1715.4 545.414C1716.65 545.797 1720.26 546.535 1721.13 547.778C1721.94 548.939 1722.38 551.419 1722.52 552.791C1723.3 559.931 1720.72 567.556 1716.91 573.526C1713.33 579.139 1709.68 584.924 1705.86 590.359C1701.18 597.021 1696.83 604.171 1689.34 607.876C1685.17 609.938 1680.85 611.585 1676.18 612.035C1658.95 613.696 1641.33 613.035 1624.03 613.402C1611.16 613.675 1597.56 613.037 1584.81 614.826C1569.59 616.962 1554.12 618.215 1538.78 619.013C1531.23 619.406 1521.91 620.74 1514.4 618.415C1514.06 618.308 1517.49 616.608 1517.76 616.478C1519.87 615.455 1521.7 614.841 1524.06 614.741C1527.42 614.597 1530.15 615.731 1533.43 616.136C1539.06 616.832 1544.16 616.181 1549.69 615.225C1551.71 614.875 1559.3 613.776 1557.24 609.984C1556.37 608.388 1554.85 607.241 1553.17 606.651C1545.67 604.021 1537.07 602.926 1529.16 602.749C1521.91 602.588 1514.58 603.761 1507.51 605.256C1505.36 605.709 1499.81 606.325 1501.44 607.791C1502.75 608.966 1511.17 608.69 1504.77 608.56C1490.99 608.278 1478.19 604.372 1464.87 601.411C1461.09 600.57 1457.31 600.08 1453.5 600.756C1450.05 601.37 1445.88 600.36 1442.48 599.816C1436.2 598.811 1429.89 598.061 1423.6 597.167C1417.65 596.321 1411.25 594.774 1405.23 594.774C1396.58 594.774 1421.89 599.546 1430.43 600.869C1450 603.899 1469.71 606.164 1489.34 608.759C1495.58 609.585 1501.82 610.46 1508.02 611.579C1511.2 612.152 1514.84 612.497 1517.88 613.687C1522.16 615.366 1514.36 618.948 1513.6 619.355C1500.78 626.285 1485.45 628.548 1471.73 633.34C1471.33 633.48 1465.72 635.068 1465.81 635.903C1465.95 637.217 1482.73 637.198 1484.1 637.242C1512.7 638.16 1541.34 637.442 1569.94 638.41C1586.13 638.958 1537.51 640.65 1521.69 644.135C1519.9 644.53 1514.62 646.278 1518.53 648.436C1523.74 651.312 1531.72 650.302 1537.19 650.145C1551.45 649.735 1565.8 648.948 1579.97 647.239C1581.85 647.013 1584.03 647.34 1585.55 646.214C1586.99 645.151 1581.98 645.986 1580.2 645.986C1571.82 645.986 1563.45 646.188 1555.07 646.556C1550.01 646.778 1545.5 647 1540.52 647.439C1539.82 647.5 1537.74 647.663 1538.44 647.695C1541.87 647.851 1545.28 647.028 1548.69 646.613C1571.49 643.839 1594.21 640.494 1616.88 636.872C1623.14 635.872 1641.87 633.479 1635.54 633.197C1631.4 633.013 1627.17 632.951 1623.03 633.055C1613.58 633.291 1601.83 633.32 1593.18 637.726C1590.51 639.091 1585.92 642.522 1586.29 646.1C1586.6 649.099 1589.3 651.08 1591.93 651.967C1601.39 655.162 1612.61 653.398 1622.15 651.91C1633.43 650.152 1644.47 647.072 1655.48 644.106C1655.53 644.09 1663.15 642.042 1664.56 641.628C1667.26 640.836 1663.56 640.994 1663.08 640.973C1656.5 640.692 1649.89 640.905 1643.31 641.201C1629.23 641.835 1614.25 641.708 1600.68 645.986C1598.41 646.7 1592.24 649.072 1594.55 649.632C1608.04 652.901 1623.14 652.334 1636.88 652.537C1652.73 652.771 1668.59 652.546 1684.44 652.879C1690.64 653.009 1698.98 653.275 1705.29 653.562C1705.82 653.587 1714.4 653.339 1715.75 654.502C1716.55 655.201 1713.76 655.343 1712.7 655.471C1707.53 656.097 1701.87 656.262 1696.75 656.411C1677.59 656.968 1658.43 656.626 1639.27 656.866C1633.41 656.94 1615.94 656.843 1621.72 657.778C1633.66 659.708 1645.94 660.352 1657.95 661.652C1672.47 663.222 1687.01 664.634 1701.5 666.38C1703.94 666.673 1709.02 667.237 1711.93 667.946C1714.53 668.58 1712.13 668.947 1711.22 669.057C1708.44 669.39 1678.58 669.964 1678.58 668.288C1678.58 667.129 1680.89 668.12 1682.05 668.146C1687.15 668.258 1698.71 668.739 1702.42 668.886C1712.39 669.282 1726.55 669.834 1736.51 670.339C1736.87 670.357 1756.69 669.984 1759.12 672.532C1759.99 673.439 1756.73 673.364 1755.48 673.443C1751.97 673.667 1744.93 673.503 1742.03 673.443C1739.75 673.396 1723.37 672.954 1720.79 672.874C1717.98 672.787 1709.68 672.906 1712.38 672.133C1714.59 671.503 1719.9 671.71 1720.64 671.706C1739.92 671.603 1759.21 671.86 1778.49 672.019C1785.89 672.081 1807.9 672.291 1800.62 673.614C1789.41 675.654 1776.24 673.44 1765.08 672.56C1759.57 672.127 1750.45 671.384 1744.51 670.424C1740.91 669.841 1739.39 668.978 1743.46 668.032C1749.32 666.666 1755.48 666.612 1761.46 666.266C1769.13 665.821 1776.79 665.434 1784.47 665.24C1785.44 665.216 1788.35 665.182 1787.38 665.24C1783.78 665.456 1780.66 665.363 1776.9 665.183C1767.68 664.743 1760.72 664.097 1751.41 663.076C1744.89 662.361 1733.24 662.355 1726.94 658.86C1723.44 656.919 1729.33 654.541 1730.24 654.246C1739.5 651.249 1749.18 649.33 1758.67 647.239C1759.41 647.077 1761.59 646.616 1760.83 646.584C1758.22 646.473 1755.61 646.686 1753 646.698C1741.92 646.75 1731.02 646.148 1720.1 644.163C1718.39 643.852 1706.42 641.494 1704.67 641.144C1702.83 640.779 1701 640.426 1699.17 640.033C1698.17 639.818 1696.74 640.176 1696.18 639.321C1695.79 638.729 1697.42 638.604 1698.11 638.438C1700.92 637.765 1703.76 637.297 1706.6 636.815C1721.32 634.314 1736.12 632.206 1750.89 630.064C1761.19 628.571 1772.14 628.092 1782.28 625.706C1788.13 624.33 1770.19 626.264 1764.25 625.308C1763.23 625.143 1746.3 622.434 1749.9 619.583C1754.63 615.827 1773.06 614.251 1767.04 613.687C1764.75 613.472 1762.26 614.179 1759.98 614.199C1754.26 614.251 1749.12 613.81 1743.35 613.117C1733.08 611.886 1722.01 610.731 1712.1 607.563C1706.49 605.769 1719.19 604.291 1719.62 604.23C1734.53 602.112 1749.56 600.804 1764.48 598.705C1764.81 598.658 1770.82 597.824 1772.68 597.395C1773.11 597.296 1771.81 597.44 1771.37 597.508C1766.87 598.221 1762.47 599.072 1757.9 599.303C1743.8 600.017 1729.63 599.897 1715.52 599.588C1706.98 599.401 1714.15 599.512 1708.68 599.36C1707.86 599.337 1704.57 599.441 1708.2 598.876C1719.15 597.169 1730.26 596.455 1741.29 595.572C1745.05 595.271 1750.16 594.143 1754.08 594.746C1758.37 595.405 1745.46 595.731 1741.12 595.913C1733.6 596.231 1728.9 596.269 1721.38 596.17C1718.32 596.129 1711.81 596.63 1708.37 595.743C1707.37 595.485 1710.38 595.267 1711.39 595.059C1715.41 594.229 1718.59 593.609 1722.72 592.894C1730.14 591.612 1737.6 590.408 1745.05 589.391C1748.61 588.906 1745.99 589.223 1744.37 589.334C1738.69 589.723 1733.09 588.885 1727.51 587.881C1725.02 587.435 1720.72 587.215 1722.5 583.495C1725.12 578.002 1730.83 573.975 1735.63 570.535C1736.89 569.631 1740.76 567.754 1739.22 567.573C1735.66 567.154 1732.51 566.722 1728.99 565.722C1727 565.158 1706.17 561.268 1715.35 557.291C1720.82 554.919 1727.06 553.714 1732.81 552.278C1737.32 551.15 1739.06 550.751 1743.2 549.857C1743.88 549.711 1745.85 549.315 1745.17 549.202C1742.36 548.734 1739.15 549.411 1736.34 549.487C1730.84 549.635 1725.88 548.991 1721.04 546.154C1717.5 544.076 1716.26 542.039 1719.85 539.404C1722.97 537.109 1726.53 535.644 1730.19 534.448C1732.11 533.818 1732.7 533.723 1729.96 533.707C1722.7 533.665 1715.63 533.642 1708.45 532.312C1704.35 531.552 1697.25 530.877 1694.58 527.014C1691.63 522.733 1699.71 520.511 1702.05 519.694C1708.37 517.481 1714.88 515.432 1721.41 513.94C1724.43 513.252 1726.8 513.21 1721.84 513.997C1716.54 514.84 1711.12 515.193 1705.75 515.193C1703.14 515.193 1702.16 514.605 1704.21 512.516C1708.66 507.994 1715.93 505.816 1721.5 503.031C1722.32 502.619 1719.65 502.867 1718.74 503.003C1713.64 503.763 1708.64 504.303 1703.47 504.37C1699.8 504.417 1694.16 504.348 1690.54 504.028C1689.41 503.928 1683.95 503.46 1682.39 502.205C1679.78 500.103 1694.72 497.645 1695.12 497.591C1699.06 497.061 1703.51 496.07 1707.51 496.366C1714.37 496.874 1693.74 497.351 1686.89 496.737C1684.43 496.516 1680.07 495.976 1677.49 494.971C1675.43 494.163 1676.19 493.145 1677.78 492.749C1683.48 491.322 1689.77 491.799 1695.61 491.667" stroke="#F4ECAB" stroke-width="28.5133" stroke-linecap="round"/>
  <path d="M726.81 180.253C706.706 170.201 704.458 206.297 706.929 218.807C710.529 237.032 721.58 259.41 739.848 266.536C757.123 273.274 779.113 269.969 794.66 260.419C826.926 240.598 823.126 191.368 800.375 165.283C768.053 128.224 712.015 153.297 692.039 190.395" stroke="black" stroke-width="5.70267" stroke-linecap="round"/>
  <path d="M810.839 184.599C802.036 181.819 791.908 192.944 794.259 201.341C797.55 213.095 806.038 214.481 816.634 212.126" stroke="black" stroke-width="5.70267" stroke-linecap="round"/>
  <path d="M757.234 271.523C757.234 278.667 759.791 285.785 758.361 292.933C756.305 303.215 750.959 314.015 747.093 323.679C732.238 360.816 719.927 398.843 709.103 437.327C694.904 487.813 688.062 540.813 685.118 593.15C683.495 622.007 683.466 651.698 689.142 680.077" stroke="black" stroke-width="5.70267" stroke-linecap="round"/>
  <path d="M760.134 280.211C757.291 286.608 760.818 295.294 763.112 301.46C769.874 319.632 773.814 339.011 778.888 357.72C789.104 395.395 793.456 437.746 793.456 476.6C793.456 520.653 793.456 564.707 793.456 608.76C793.456 634.061 797.802 659.209 797.802 684.418" stroke="black" stroke-width="5.70267" stroke-linecap="round"/>
  <path d="M1191.46 585.023C1191.03 591.784 1190.96 590.922 1190.96 593.254C1190.96 596.925 1190.36 600.548 1190.36 604.23C1190.36 611.891 1191.33 621.085 1193.43 628.444C1194.12 630.88 1198.27 630.603 1200.12 630.944C1207.13 632.237 1214.28 632.895 1221.36 633.78C1239.39 636.035 1257.35 639.006 1275.46 640.467C1286.91 641.391 1298.57 643.229 1309.87 645.195C1317.43 646.509 1324.78 645.785 1332.37 646.445C1337.33 646.877 1342.34 647.508 1347.19 648.201C1351.62 648.833 1356.52 647.301 1360.87 648.268C1364.56 649.088 1365.86 649.23 1367.39 645.803C1367.47 636.892 1366.2 607.633 1369.2 608.246M1353.27 605.074C1339.3 603.226 1325.2 602.257 1311.19 600.346C1299.12 598.7 1283.32 596.521 1274.65 595.213C1265.98 593.905 1255.93 593.254 1245.08 591.725" stroke="#33322F" stroke-width="5.70267" stroke-linecap="round"/>
  <path d="M1369.08 646.406C1375.24 646.406 1381.19 641.986 1386.98 640.057C1392.75 638.133 1399.37 638.973 1404.94 636.984C1409.54 635.343 1409.2 632.911 1409.2 628.034C1409.2 622.41 1409.8 616.902 1409.8 611.351C1409.8 609.015 1408.62 598.484 1406.63 596.892C1401.72 592.96 1398.47 596.309 1390.93 599.024C1383.38 601.739 1380.91 601.739 1372.15 606.121" stroke="#33322F" stroke-width="5.70267" stroke-linecap="round"/>
  <path d="M1292.48 577.105C1294.16 577.105 1295.8 577.781 1297.45 578.051C1302.59 578.895 1307.81 579.462 1312.92 580.483C1323.25 582.55 1333.9 583.286 1344.26 585.312C1352.49 586.923 1361 587.166 1369.28 588.655C1374.18 589.537 1379.71 589.881 1384.48 591.222C1388.41 592.328 1393.46 592.557 1397.62 592.877C1400.35 593.087 1402.7 594.901 1405.55 595.308C1408.03 595.662 1409.83 603.348 1410.42 605.676" stroke="#33322F" stroke-width="5.70267" stroke-linecap="round"/>
  <path d="M1447.57 659.961C1448.17 661.089 1450.88 661.584 1451.99 661.92C1454.55 662.689 1457.13 663.41 1459.64 664.314C1463.27 665.618 1466.99 666.021 1470.75 666.57C1475.1 667.205 1479.36 668.582 1483.72 669.142C1492.41 670.261 1500.98 672.119 1509.72 672.862C1512.93 673.135 1516.25 673.083 1519.38 674.049C1521.92 674.836 1524.74 675.276 1527.38 675.276C1531.33 675.276 1535.31 675.989 1539.21 675.989" stroke="#33322F" stroke-width="5.70267" stroke-linecap="round"/>
  <path d="M1411.91 612.391C1418.01 614.378 1431.16 618.441 1442.63 618.441" stroke="#33322F" stroke-width="5.70267" stroke-linecap="round"/>
  <path d="M1443.24 612.973C1449.51 605.722 1459.46 604.258 1466.92 599.599C1471.02 597.034 1475.94 597.775 1480.41 597.775C1487.61 597.775 1494.81 599.32 1501.77 601.423C1509.33 603.705 1516.78 605.296 1524.43 607.029C1534.34 609.274 1544.66 610.902 1554.42 614.188" stroke="#33322F" stroke-width="5.70267" stroke-linecap="round"/>
  <path d="M1662.82 607.606C1663.79 606.72 1662.24 605.904 1661.71 605.557C1657.89 603.05 1654.32 602.299 1649.9 601.846C1641.92 601.028 1633.98 599.15 1626.01 598.568C1621.68 598.252 1617.5 598.115 1613.18 597.508C1608.55 596.856 1603.83 595.874 1599.19 595.435C1587.18 594.3 1575.57 592.832 1563.48 592.832" stroke="#33322F" stroke-width="5.70267" stroke-linecap="round"/>
  <path d="M1191.65 584.066C1192.22 581.495 1207.52 576.179 1209.89 575.724C1215.79 574.588 1221.5 572.284 1227.51 571.482C1231.07 571.008 1234.46 569.268 1237.97 568.489C1239.95 568.049 1242 567.797 1243.76 566.713C1246.07 565.293 1249.83 564.318 1252.51 563.424C1254.69 562.696 1256.76 561.853 1258.95 561.122C1260.3 560.674 1262.12 559.678 1263.43 559.609C1266.02 559.473 1268.84 557.847 1271.42 557.274C1275.04 556.469 1279.29 553.982 1283.09 553.69C1285.95 553.47 1289.63 551.588 1292.17 550.434C1295.03 549.132 1298.1 548.334 1300.72 546.586" stroke="#33322F" stroke-width="5.70267" stroke-linecap="round"/>
  <path d="M1271.71 538.301C1268.24 538.301 1274.22 538.478 1275.06 538.63C1279.86 539.491 1283.98 540.694 1288.65 542.149C1292.03 543.202 1296.42 543.205 1299.53 544.681C1301.74 545.724 1304.18 546.588 1306.64 546.588" stroke="#33322F" stroke-width="5.70267" stroke-linecap="round"/>
  <path d="M1101.22 617.5C1109.16 617.5 1114.62 620.133 1125.06 620.748C1135.5 621.364 1141.92 621.327 1145.96 622.404" stroke="#33322F" stroke-width="5.70267" stroke-linecap="round"/>
  <path d="M1096.64 575.706C1107.4 569.285 1108.85 570.099 1116.53 567.476C1124.22 564.853 1166.41 552.248 1186.64 545.167C1194.39 542.454 1200.28 538.873 1208.17 536.534C1217.54 533.758 1223.79 532.481 1227.74 530.409C1231.68 528.338 1239.9 526.469 1245.04 524.414C1250.18 522.358 1255.01 521.352 1259.26 521.159C1267.71 520.775 1283.73 525.393 1291.97 527.062C1297.29 528.139 1303.59 529.43 1309.01 529.43" stroke="#33322F" stroke-width="5.70267" stroke-linecap="round"/>
  <path d="M1308.41 527.651C1312.72 528.369 1316.29 531.795 1320.55 531.795C1325.1 531.795 1327.39 530.323 1331.5 528.374C1333.47 527.442 1336.73 525.875 1338.9 525.875C1341.07 525.875 1345.4 523.832 1347.29 522.783C1351.02 520.707 1354.17 519.718 1358.24 518.409C1363.61 516.682 1369.68 515.578 1374.71 513.312C1378.26 511.717 1382.32 509.3 1386.26 509.3C1390.98 509.3 1393.37 510.59 1397.21 512.72C1402.49 515.653 1408.59 511.783 1414.18 510.944C1425.12 509.302 1432.8 501.759 1443.12 499.104C1451.3 497 1458.25 491.497 1466.47 490.323C1467.98 490.107 1469.45 488.58 1470.91 488.58C1472.87 488.58 1474.56 487.988 1476.53 487.988C1482.38 487.988 1487.68 490.356 1493.7 490.356C1498.73 490.356 1504.5 492.06 1509.42 493.185C1515.09 494.48 1521.23 493.486 1526.85 495.092" stroke="#33322F" stroke-width="5.70267" stroke-linecap="round"/>
  <path d="M1530.41 487.99C1559.21 473.014 1553.49 479.372 1528.17 472.138C1525.36 471.335 1518.96 473.209 1520.94 468.751C1522.07 466.212 1524.26 466.538 1526.4 465.956C1530.87 464.737 1536.12 464.311 1540.77 464.311C1543.94 464.311 1547.46 462.599 1550.54 461.812C1555.67 460.495 1560.68 459.331 1565.8 458.26C1568.97 457.596 1572.24 456.023 1575.4 456.023C1580.22 456.023 1585.21 459.64 1589.97 460.2C1593.68 460.637 1597.3 461.271 1597.3 465.199C1597.3 468.076 1586.84 470.322 1584.87 471.086C1579.93 473.008 1574.31 473.068 1570.66 477.631C1568.43 480.426 1570.47 480.741 1573.16 481.479C1578.92 483.056 1585.09 483.268 1591.02 483.846C1594.56 484.192 1597.72 485.717 1601.18 486.543C1603.55 487.109 1605.92 487.129 1608.29 487.694C1609.99 488.099 1612.68 487.979 1614.01 489.043C1615.35 490.111 1611.03 491.163 1609.44 492.397C1607.04 494.267 1603.04 495.871 1600.26 497.33C1597.75 498.653 1595.5 500.436 1592.86 501.606C1590.66 502.583 1588.79 504.164 1586.65 505.289C1585.92 505.672 1583.39 506.937 1583.1 507.526" stroke="#33322F" stroke-width="5.70267" stroke-linecap="round"/>
  <path d="M1597.14 472.105C1597.3 474.266 1598.18 476.574 1597.81 478.748" stroke="#33322F" stroke-width="5.70267" stroke-linecap="round"/>
  <path d="M1614.76 496.598C1614.65 501.603 1615.02 506.921 1614.26 512.083" stroke="#33322F" stroke-width="5.70267" stroke-linecap="round"/>
  <path d="M1521.66 476.984C1521.66 478.739 1521.66 480.493 1521.66 482.292C1521.66 486.094 1521.66 489.924 1521.66 493.752" stroke="#33322F" stroke-width="5.70267" stroke-linecap="round"/>
  <path d="M1474.77 518.434C1468.03 522.617 1429.65 537.766 1451.06 539.182C1463.43 540.001 1485.93 544.448 1493.54 544.369C1501.16 544.29 1510.09 533.748 1520.71 528.808" stroke="#33322F" stroke-width="5.70267" stroke-linecap="round"/>
  <path d="M1482.05 518.684C1489.94 518.004 1498.21 520.385 1506.12 520.693C1512.17 520.929 1518.19 521.441 1524.23 521.873" stroke="#33322F" stroke-width="5.70267" stroke-linecap="round"/>
  <path d="M1611.78 537.208C1619.02 538.936 1626.54 538.297 1633.86 539.459C1639.49 540.352 1644.43 541.752 1650.18 541.821C1653.91 541.865 1655.25 543.383 1654.93 545.167C1654.62 546.95 1634.37 551.842 1630.26 553.484C1626.16 555.127 1615.72 557.518 1614.03 558.37C1611.63 559.585 1609.71 558.832 1607.01 558.426C1596.69 556.876 1585.98 555.376 1575.73 554.508C1573.03 554.279 1563.48 554.595 1570.92 550.902C1578.23 547.276 1585.56 544.85 1591.7 542.636C1597.83 540.422 1605.95 537.913 1609.8 535.846" stroke="#33322F" stroke-width="5.70267" stroke-linecap="round"/>
  <path d="M1610.28 543.867C1610.4 545.726 1610.46 546.185 1610.47 546.796C1610.5 548.636 1610.84 550.535 1610.96 552.39" stroke="#33322F" stroke-width="5.70267" stroke-linecap="round"/>
  <path d="M1475.6 521.203C1474.71 525.582 1475.39 530.644 1476.37 535.277" stroke="#33322F" stroke-width="5.70267" stroke-linecap="round"/>
  <path d="M1632.82 640.125C1634.86 641.384 1637.75 640.559 1639.92 640.125" stroke="#33322F" stroke-width="5.70267" stroke-linecap="round"/>
  <path d="M1200.85 586.227C1207.49 588.218 1214.59 588.512 1221.44 589.186C1226.02 589.638 1230.58 590.37 1235.19 590.37" stroke="#33322F" stroke-width="5.70267" stroke-linecap="round"/>
  <path d="M1103.15 577.695C1104.72 578.059 1106.5 578.146 1108.18 578.288C1110.96 578.524 1113.84 578.748 1116.65 578.785C1120.13 578.83 1123.54 578.866 1127.01 578.972C1132.07 579.128 1137.15 579.793 1142.22 579.793" stroke="#33322F" stroke-width="5.70267" stroke-linecap="round"/>
  <path d="M1735.4 693.864C1750.1 697.694 1769.19 701.051 1784.07 696.326C1790.04 694.432 1795.97 688.61 1799.71 683.741C1800.53 682.679 1805.12 674.917 1805.99 676.113C1810.71 682.604 1820.62 672.381 1824.01 677.777C1825.2 679.665 1827.13 683.392 1827.13 678.887" stroke="#33322F" stroke-width="5.70267" stroke-linecap="round"/>
  <path d="M1780.95 640.204C1781.54 645.461 1800.35 643.225 1803.97 643.359C1812.75 643.684 1827.92 647.476 1833.24 638.297C1835.44 634.496 1834.77 629.264 1833.51 625.296C1832.63 622.507 1832.37 624.813 1833.72 624.568C1835.01 624.332 1836.61 623.91 1837.74 623.216C1838.35 622.845 1839.04 620.331 1839.65 621.239C1840.9 623.121 1842.38 624.464 1844.85 624.464C1848.69 624.464 1847.3 622.665 1850.22 625.989C1850.8 626.642 1855.3 631.009 1856.43 629.318C1856.48 629.242 1856.8 630.188 1856.85 630.288C1857.68 631.95 1859.04 633.268 1860.56 634.31C1863.84 636.563 1864.69 638.772 1861.6 641.937C1858.43 645.179 1860.76 644.572 1863.95 644.572" stroke="#33322F" stroke-width="5.70267" stroke-linecap="round"/>
  <path d="M1843.35 642.076C1844.24 642.076 1845.7 641.69 1845.82 642.873C1846.25 647.195 1845.98 652.697 1843.6 656.429C1840.55 661.2 1836.05 663.031 1831.91 666.414C1827.44 670.076 1834.38 675.929 1836.49 678.271" stroke="#33322F" stroke-width="5.70267" stroke-linecap="round"/>
  <path d="M1825.26 692.617C1827.68 699.384 1834.84 701.927 1841.14 704.128C1847.56 706.37 1854.14 708.351 1860.83 709.467" stroke="#33322F" stroke-width="5.70267" stroke-linecap="round"/>
  <path d="M1669.88 639.578C1670.11 640.52 1673.72 641.321 1674.56 641.797C1679.38 644.533 1683.62 648.524 1687.59 652.337C1696.12 660.516 1705.1 662.668 1716.68 662.668" stroke="#33322F" stroke-width="5.70267" stroke-linecap="round"/>
  <path d="M1718.55 629.598C1718.73 631.04 1721.31 633.981 1722.15 635.214C1724.17 638.16 1725.33 642.507 1726.66 645.823" stroke="#33322F" stroke-width="5.70267" stroke-linecap="round"/>
  <path d="M1752.25 572.18C1749.62 572.508 1753.55 581.818 1754.4 582.927C1758.56 588.378 1765.81 590.671 1772.22 592.15" stroke="#33322F" stroke-width="5.70267" stroke-linecap="round"/>
  <path d="M1702.32 587.785C1705.34 586.353 1707.94 584.778 1710.4 582.446C1713.35 579.641 1711.43 578.64 1715.81 580.297C1717.33 580.872 1723.65 583.599 1725.06 581.787C1726.83 579.511 1725.99 579.501 1729.57 580.297C1731.58 580.743 1738.64 582.238 1740.39 580.643C1742.33 578.867 1743.45 574.742 1746 573.571C1748.64 572.36 1750.71 573.24 1753.01 571.282C1755.82 568.881 1755.89 567.96 1759.73 567.191" stroke="#33322F" stroke-width="5.70267" stroke-linecap="round"/>
  <path d="M1700.9 527.828C1704.15 528.176 1708.12 527.883 1711.23 528.799C1713.62 529.503 1715.42 530.327 1718.06 530.359C1720.62 530.39 1727.34 528.965 1728.84 531.642C1730.3 534.232 1732.14 536.553 1733.66 539.096C1734.28 540.124 1736.07 539.696 1737.06 539.72C1739.42 539.776 1739.1 540.592 1740.14 542.216C1741.51 544.343 1745.41 545.17 1747.74 545.336C1749.6 545.469 1745.01 547.549 1745.69 548.769C1746.14 549.567 1746.03 550.49 1746.66 551.23C1747.55 552.264 1748.5 551.004 1748.5 552.825C1748.5 554.403 1749.65 554.282 1750.62 555.356C1751.92 556.802 1751 561.502 1751 563.434" stroke="#33322F" stroke-width="5.70267" stroke-linecap="round"/>
  <path d="M1718.55 597.141C1722.08 600.675 1725.55 604.292 1729.23 607.68C1735.58 613.541 1741.56 616.986 1749.75 619.607" stroke="#33322F" stroke-width="5.70267" stroke-linecap="round"/>
  <path d="M1443.1 613.469C1443.1 616.679 1445.41 631.992 1445.61 635.194C1445.75 637.372 1445.62 639.589 1445.62 641.772C1445.62 644.034 1445.62 646.296 1445.62 648.557" stroke="#33322F" stroke-width="5.70267" stroke-linecap="round"/>
  <path d="M1462.25 622.246C1463.96 622.402 1465.7 623.219 1467.44 623.487C1468.64 623.673 1469.89 623.782 1471.08 623.998C1472.22 624.206 1473.28 625.19 1474.44 625.225C1475.66 625.262 1476.89 625.225 1478.11 625.225C1478.72 625.225 1480.18 624.944 1480.72 625.363C1481.62 626.065 1482.36 627.033 1483.41 627.707C1485.16 628.838 1487.27 629.941 1489.42 629.941C1492.31 629.941 1497.69 628.339 1499.26 631.293C1499.89 632.459 1502.07 633.391 1503.17 633.996C1504.36 634.649 1504.41 635.751 1505.06 636.837C1506.08 638.548 1508.25 638.482 1509.54 639.774C1511.14 641.373 1511.94 643.45 1513.88 644.78C1515.64 645.983 1517.35 646.709 1519.44 647.18C1520.65 647.452 1521.2 648 1522.24 648.669C1523.75 649.638 1526.58 650.269 1527.15 652.131C1527.31 652.659 1527.26 653.262 1527.78 653.524" stroke="#33322F" stroke-width="5.70267" stroke-linecap="round"/>
  <path d="M1555.21 619.996C1555.21 622.257 1555.09 624.805 1556.21 626.836C1558.45 630.894 1561.74 634.321 1564.39 638.117C1565.22 639.298 1565.42 640.745 1566.4 641.813C1568.01 643.554 1570.03 644.098 1571.82 645.44C1572.25 645.762 1572 646.232 1572.1 646.682C1572.24 647.299 1573.58 647.767 1574.07 648.047" stroke="#33322F" stroke-width="5.70267" stroke-linecap="round"/>
  <path d="M1558.09 653.133C1558.48 655.623 1560.84 658.246 1562.47 659.974C1565.71 663.392 1569.92 666.289 1574.32 668.003C1575.35 668.405 1576.48 668.648 1577.46 669.178C1578.19 669.578 1578.74 670.314 1579.42 670.809C1582.22 672.86 1585.53 673.333 1588.88 673.78C1590.4 673.983 1591.86 674.499 1593.36 674.775C1595.03 675.082 1597.98 674.903 1599.15 676.268C1599.65 676.852 1600.48 677.074 1601.18 677.318C1602.98 677.936 1604.8 678.359 1606.6 679.004" stroke="#33322F" stroke-width="5.70267" stroke-linecap="round"/>
  <path d="M1672.28 602.874C1673.5 602.738 1674.99 601.475 1676.17 601.022C1678.15 600.263 1679.16 599.623 1680.24 597.898" stroke="#33322F" stroke-width="5.70267" stroke-linecap="round"/>
  <path d="M1437.1 574.297C1439.6 574.654 1441.96 575.62 1444.52 575.9C1447.22 576.197 1449.98 576.616 1452.7 576.616C1454.65 576.616 1456.55 576.874 1458.49 576.874C1460.1 576.874 1461.7 576.772 1463.26 577.117C1470.09 578.635 1477.05 580.004 1484 580.996" stroke="#33322F" stroke-width="5.70267" stroke-linecap="round"/>
  <path d="M1420.35 573.271C1418.61 572.646 1417.04 572.553 1415.17 572.441C1412.67 572.292 1410.19 571.811 1407.7 571.725C1403.27 571.572 1398.67 570.234 1394.33 569.406" stroke="#33322F" stroke-width="5.70267" stroke-linecap="round"/>
  <path d="M1371.91 564.507C1371.44 564.09 1370.66 564.013 1370.08 563.863C1368.02 563.331 1365.9 563.026 1363.82 562.604C1362.22 562.277 1360.69 561.726 1359.11 561.301C1354.34 560.013 1348.95 559.396 1343.99 559.354C1339.25 559.314 1334.37 558.27 1329.71 557.493C1328.73 557.33 1327.96 557.035 1326.95 557.035C1326.07 557.035 1324.98 557.271 1324.24 556.777" stroke="#33322F" stroke-width="5.70267" stroke-linecap="round"/>
  <path d="M1322.38 562.77C1324.03 566.388 1323.72 570.642 1323.72 574.541C1323.72 575.891 1323.86 577.242 1323.86 578.575" stroke="#33322F" stroke-width="5.70267" stroke-linecap="round"/>
  <path d="M1319.44 558.215C1316.27 559.27 1313.55 560.42 1310.7 562.129C1307.67 563.948 1304.72 565.978 1301.61 567.665C1299.75 568.677 1297.98 569.724 1296.07 570.642C1295.22 571.055 1294.06 571.527 1293.12 571.735C1291.59 572.075 1290.38 573.15 1289.09 573.886C1288.41 574.277 1288.93 575.06 1289.44 575.292C1290.71 575.864 1292.1 575.917 1293.45 576.163" stroke="#33322F" stroke-width="5.70267" stroke-linecap="round"/>
  <path d="M1645.49 683.137C1647.38 683.53 1649.35 683.438 1651.28 683.539C1653.26 683.644 1655.27 683.75 1657.26 683.763C1658.61 683.772 1659.9 683.837 1661.24 683.942C1661.4 683.954 1661.98 683.974 1662.05 684.121" stroke="#33322F" stroke-width="5.70267" stroke-linecap="round"/>
  <path d="M764.57 384.125C769.404 422.791 764.57 512.976 820.023 533.895" stroke="#33322F" stroke-width="5.70267" stroke-linecap="round"/>
  <path d="M829.756 543.422C830.285 546.594 831.458 549.704 832.2 552.837C833.198 557.049 833.808 561.239 834.418 565.512C835.579 573.633 838.191 581.426 839.715 589.458C840.679 594.546 840.727 600.535 842.77 605.302C843.518 607.046 843.698 609.555 844.015 611.458" stroke="#33322F" stroke-width="5.70267" stroke-linecap="round"/>
  <path d="M842.384 607.392C840.102 607.645 837.613 609.465 835.323 610.085C832.354 610.889 829.47 611.937 826.541 612.869C825.938 613.061 822.7 613.577 822.49 614.521C822.373 615.047 823.714 616.375 823.961 616.762C825.035 618.447 826.071 620.15 826.903 621.968C828.262 624.935 829.715 628.68 832.788 630.297C841.264 634.758 849.563 636.674 859.02 634.507C861.102 634.03 863.531 633.481 865.358 632.334C867.324 631.099 868.335 628.811 869.658 626.993C871.463 624.51 871.902 620.371 871.695 617.373C871.41 613.244 868.78 609.277 866.919 605.762C866.449 604.873 865.366 600.656 864.362 600.489C860.879 599.908 856.888 603.07 853.701 603.816C850.389 604.591 846.659 605.459 843.607 606.984" stroke="#33322F" stroke-width="5.70267" stroke-linecap="round"/>
  <path d="M644.797 702.907C645.801 702.431 646.754 702.111 647.835 701.895" stroke="#33322F" stroke-width="5.70267" stroke-linecap="round"/>
  <path d="M732.816 703.923C733.821 703.447 734.774 703.126 735.854 702.91" stroke="#33322F" stroke-width="5.70267" stroke-linecap="round"/>
  <path d="M518.42 710.082C522.298 710.082 526.278 709.746 530.066 710.588" stroke="#33322F" stroke-width="5.70267" stroke-linecap="round"/>
  <path d="M474.369 734.889C476.956 734.889 479.025 734.383 481.458 734.383" stroke="#33322F" stroke-width="5.70267" stroke-linecap="round"/>
  <path d="M420.695 716.661C422.993 716.661 426.086 717.347 427.784 715.648" stroke="#33322F" stroke-width="5.70267" stroke-linecap="round"/>
  <path d="M350.682 741.273C350.867 739.787 356.662 740.308 357.77 739.754" stroke="#33322F" stroke-width="5.70267" stroke-linecap="round"/>
  <path d="M220.043 756.464C223.407 756.044 227.016 754.945 230.676 754.945" stroke="#33322F" stroke-width="5.70267" stroke-linecap="round"/>
  <path d="M313.068 734.378C316.432 733.958 320.041 732.859 323.701 732.859" stroke="#33322F" stroke-width="5.70267" stroke-linecap="round"/>
  <path d="M188.289 742.993C189.546 741.988 192.754 741.98 194.365 741.98" stroke="#33322F" stroke-width="5.70267" stroke-linecap="round"/>
  <path d="M592.344 714.633C592.422 715.256 594.263 716.033 594.763 715.533C595.74 714.556 593.469 713.948 592.513 715.083C590.429 717.554 589.754 719.624 593.581 719.696C594.837 719.72 597.631 720.032 596.394 718.177" stroke="#33322F" stroke-width="5.70267" stroke-linecap="round"/>
  <path d="M1589.53 512.11C1590.09 511.605 1591.07 511.872 1591.75 511.981C1593.51 512.265 1595.4 512.78 1597.17 512.88C1600.06 513.043 1602.83 513.393 1605.74 513.393C1608.88 513.393 1611.96 514.163 1615.07 514.163C1615.93 514.163 1617.24 514.674 1618.02 515.062C1618.88 515.495 1619.93 515.522 1620.64 516.16C1621.69 517.103 1624.34 517.336 1625.69 517.486C1627.88 517.729 1630.2 517.757 1632.39 517.757" stroke="#33322F" stroke-width="5.70267" stroke-linecap="round"/>
  <path d="M1643.04 513.48C1644.72 513.382 1646.41 511.075 1648.08 510.52C1650.95 509.562 1653.22 508.598 1656.35 508.731C1659.48 508.864 1662.7 508.888 1665.8 509.285C1669.28 509.731 1672.61 510.493 1676.06 511.2C1676.6 511.313 1679.22 511.458 1679.55 512.019C1679.83 512.514 1680.71 513.129 1681.23 513.304C1683.42 514.033 1685.12 514.389 1686.93 515.824C1688.13 516.779 1689.58 517.521 1691.01 518.041C1691.26 518.133 1692.09 518.702 1692.19 518.973C1692.55 519.89 1693.14 520.684 1693.38 521.644" stroke="#33322F" stroke-width="5.70267" stroke-linecap="round"/>
  <path d="M1691.79 507.125C1692.7 507.646 1693.5 508.351 1694.33 508.989C1695.69 510.032 1697.14 510.746 1698.65 511.522C1701.24 512.841 1703.24 514.628 1705.33 516.599C1706.44 517.64 1707.16 519.02 1708.24 520.075C1709.5 521.299 1711.24 521.682 1712.88 522.091" stroke="#33322F" stroke-width="5.70267" stroke-linecap="round"/>
  <path d="M1673.9 498.871C1674.07 496.952 1675.19 495.105 1675.63 493.231C1676.28 490.425 1676.65 487.552 1677.31 484.751C1677.7 483.074 1682.28 487.964 1682.87 488.433C1684.31 489.591 1685.06 490.111 1686.42 488.812C1687.4 487.874 1687.74 486.387 1688.9 486.939C1689.8 487.364 1691.54 487.979 1692.38 487.044C1692.78 486.593 1692.79 484.084 1693.43 483.993C1693.8 483.94 1694.59 486.711 1694.73 487.128" stroke="#33322F" stroke-width="5.70267" stroke-linecap="round"/>
  <path d="M1696.25 495.455C1696.4 494.141 1698.68 491.944 1699.83 491.373C1701.52 490.526 1702.59 491.331 1703.97 492.425C1706.84 494.692 1709.64 497.436 1712.07 500.148C1715.37 503.816 1717.3 508.051 1719.59 512.332C1721.61 516.114 1724.06 517.399 1728.07 518.94" stroke="#33322F" stroke-width="5.70267" stroke-linecap="round"/>
  <path d="M1507.52 584.596C1507.54 584.431 1508.03 584.812 1508.07 584.833C1509.53 585.61 1511.23 586.086 1512.81 586.58C1514.08 586.98 1515.39 587.281 1516.65 587.743C1518.32 588.359 1519.59 589.449 1520.77 590.761C1522.06 592.19 1523.21 594.044 1525.11 594.73C1526.35 595.175 1527.77 594.545 1528.97 595.128C1529.99 595.624 1530.79 596.4 1531.92 596.682C1533.32 597.033 1535.08 596.972 1536.51 596.843C1537.01 596.797 1537.78 596.184 1538.06 595.822C1538.63 595.079 1539.31 594.192 1539.54 593.266" stroke="#33322F" stroke-width="5.70267" stroke-linecap="round"/>
  <path d="M1155.28 577.09C1157.23 576.211 1159.46 576.164 1161.51 575.596C1164.58 574.743 1167.77 574.434 1170.89 573.779C1174.09 573.107 1177.43 572.276 1180.43 570.974C1183.4 569.687 1186.34 568.29 1189.33 567.065C1193.54 565.338 1197.83 563.909 1201.94 561.925C1203.89 560.986 1205.8 560.175 1207.66 559.04C1208.13 558.752 1208.94 558.258 1209.5 558.258" stroke="#33322F" stroke-width="5.70267" stroke-linecap="round"/>
  <path d="M1219.84 554.94C1224.99 554.528 1230.01 552.492 1234.97 551.215C1237.82 550.481 1240.38 549.351 1243.12 548.317C1244.89 547.649 1246.8 547.137 1248.48 546.259C1249.41 545.775 1250.09 544.966 1251 544.477C1252.03 543.924 1253.04 543.376 1254.08 542.845C1255.86 541.934 1257.74 541.475 1259.58 540.66" stroke="#33322F" stroke-width="5.70267" stroke-linecap="round"/>
  <path d="M1145.55 580.4C1145.55 579.842 1145.49 579.405 1145.68 580.308C1146.23 583.012 1146.37 585.769 1146.58 588.517C1146.89 592.308 1147.16 596.101 1147.52 599.888C1147.66 601.411 1147.72 603.028 1148.08 604.521C1148.85 607.766 1149.07 610.447 1149.07 613.788C1149.07 615.382 1148.86 616.902 1148.86 618.479C1148.86 618.81 1148.68 619.858 1148.91 620.088C1149.09 620.268 1151.59 619.155 1151.98 618.985C1155.17 617.586 1158.67 616.982 1161.66 615.087C1163.15 614.139 1165.12 613.514 1166.76 612.788C1168.63 611.962 1170.43 611.054 1172.29 610.201C1173.93 609.45 1175.83 609.085 1177.42 608.292C1178.03 607.986 1178.73 607.644 1179.39 607.499C1180.15 607.329 1181.81 606.799 1182.18 606.062" stroke="#33322F" stroke-width="5.70267" stroke-linecap="round"/>
  <path d="M1096.59 575.758C1096.56 577.058 1096.61 578.338 1096.79 579.628C1097.12 582.031 1097.43 584.414 1097.6 586.837C1097.84 590.484 1097.49 594.126 1097.28 597.766C1097.19 599.389 1097.23 601.04 1097.2 602.667C1097.17 603.898 1097.16 605.143 1097.25 606.371C1097.39 608.262 1097.31 610.159 1097.43 612.05C1097.5 613.06 1097.8 614.049 1097.87 615.051C1097.89 615.387 1097.97 615.743 1098.03 616.074C1098.07 616.255 1098.06 616.323 1098.17 616.165" stroke="#33322F" stroke-width="5.70267" stroke-linecap="round"/>
  </svg>
  