<svg  height="201" viewBox="0 0 653 401" fill="none" xmlns="http://www.w3.org/2000/svg">
<path d="M204.094 32.0949C204.677 34.3413 206.318 36.0243 207.22 38.14C207.717 39.3065 208.026 40.4959 208.343 41.7198C208.595 42.6895 208.935 43.625 209.186 44.5939C209.202 44.6528 209.558 45.8454 209.683 45.3841C209.808 44.9235 210.133 44.4702 210.342 44.0454C210.683 43.3486 211.034 42.552 211.278 41.8182C211.444 41.3185 211.588 40.8535 211.685 40.3446C211.765 39.9217 211.746 39.4694 211.838 39.0611C212.017 38.2723 211.674 37.1973 211.612 36.3948C211.575 35.9296 211.133 34.7456 211.834 34.5636C212.391 34.4192 212.945 34.6379 213.434 34.9163C214.298 35.4084 215.131 35.9326 215.975 36.4576C216.72 36.921 217.504 37.3672 218.223 37.8695C218.593 38.1282 219.358 40.9327 219.799 41.0665C220.598 41.3091 220.72 39.2345 220.705 38.1394C220.645 33.9457 220.14 29.7671 219.921 25.5767C219.808 23.3974 219.586 21.2223 219.496 19.0418C219.441 17.696 219.574 16.4294 219.635 15.0965C219.687 13.9736 219.999 12.9583 220.165 11.8663C220.175 11.8015 220.287 11.5506 220.397 11.6548C220.567 11.8173 220.647 12.2756 220.703 12.4619C220.88 13.0441 221.063 13.623 221.252 14.2012C222.206 17.1114 222.884 20.115 223.653 23.0784C225.21 29.081 226.5 35.1301 229.102 40.7888C229.313 41.2471 229.556 41.6935 229.807 42.1307C229.955 42.388 231.241 40.4784 231.264 39.9829C231.344 38.3134 229.815 38.685 229.589 37.0398C229.279 34.7778 232.106 31.6589 231.596 29.4359C231.067 27.1276 227.037 25.7309 226.541 23.4157C226.483 23.1455 225.158 18.746 225.521 18.6518C225.98 18.5328 227.188 20.5259 227.41 20.8273C229.69 23.9138 234.818 21.7675 236.814 25.039C238.191 27.2965 236.434 34.9713 238.078 37.0379C238.155 37.1344 238.431 37.3313 238.379 37.0733C238.198 36.1659 238.138 35.19 238.062 34.2682C238.032 33.8979 237.653 31.2814 238.405 31.1729C238.631 31.1403 238.804 31.6839 238.867 31.8048C239.283 32.6126 239.752 33.3922 240.212 34.1755C241.068 35.6323 241.951 37.2049 243.111 38.4517C243.305 38.66 243.683 39.1004 244.018 38.8435C244.519 38.4596 244.096 36.5518 244.048 36.0188C243.855 33.8867 243.152 31.9152 242.75 29.8293C242.648 29.3008 242.541 28.7797 242.422 28.2544C242.386 28.0911 242.244 27.6858 242.371 27.516C242.636 27.1629 242.973 28.1681 243.064 28.3312C244.378 30.6782 245.718 33.016 246.992 35.3846C247.358 36.0637 247.848 36.7902 248.127 37.5071C248.508 38.4876 247.778 35.4296 247.518 34.4101C247.097 32.7568 246.661 31.107 246.232 29.4556C246.225 29.4274 246.037 28.7211 246.154 29.1517C246.419 30.1328 246.779 31.0822 247.139 32.0321C247.869 33.9599 248.66 35.9109 249.605 37.7453C249.673 37.8771 250.217 38.8104 250.085 38.3021C249.672 36.7097 249.259 35.1173 248.846 33.5249C248.292 31.3934 247.918 29.0637 247.017 27.0406C246.768 26.4811 246.457 26.036 245.943 25.7134C245.763 25.6006 245.694 25.5062 245.642 25.3048" stroke="#F6C30F" stroke-width="12.61" stroke-linecap="round"/>
<path d="M326.565 224.855C333.637 225.29 384.549 201.891 386.867 201.271M386.867 201.271C389.186 200.652 353.162 169.481 343.788 166.01C340.491 165.33 329.897 170.177 307.62 177.968M386.867 201.271C384.86 223.506 393.381 267.977 390.003 270.208C386.624 272.44 325.206 291.874 322.44 288.96M116.233 199.285C117.566 194.73 211.763 136.26 219.315 136.259M116.233 199.285C143.775 216.495 199.925 251.217 204.19 252.432C206.179 252.998 223.381 245.441 244.884 235.365M116.233 199.285C114.825 218.688 117.022 219.066 116.233 241.399M207.299 259.645C207.596 286.724 207.388 340.959 204.19 341.263C238.395 327.597 308.583 298.897 315.69 293.431C324.575 286.598 320.133 214.47 324.575 199.285M284.125 216.574C297.144 210.237 309.524 204.128 319.244 199.285M231.074 138.664C254.252 151.258 305.797 181.864 324.575 192.831M31.6971 312.546C34.2419 329.531 40.0104 363.886 42.7254 365.425C46.1191 367.349 119.079 400.999 123.321 399.397M123.321 399.397C127.563 397.795 198.402 341.71 199.674 335.62M123.321 399.397C121.483 384.334 118.061 352.927 119.079 347.799M30 309.661C30 309.661 115.324 245.242 119.991 246.525C124.657 247.808 195.156 274.331 200.586 279.459C195.071 288.432 125.866 340.428 119.079 343.633C110.171 342.992 32.545 315.43 30 309.661Z" stroke="#1E1E1E" stroke-width="2" stroke-linecap="round"/>
<path d="M220.034 71.5397C219.552 67.2472 221.979 64.1628 227.124 62.5303C230.566 61.4382 244.507 58.335 254.624 59.6062C259.63 60.235 263.7 61.9347 265.101 65.4784C267.179 70.7384 262.53 73.2593 256.495 74.5168C250.246 75.8188 242.511 75.7666 239.219 75.9982C232.746 76.4535 220.517 75.8322 220.034 71.5397Z" fill="white"/>
<path d="M227.124 106.847C227.124 111.066 223.026 128.683 222.722 131.326C222.545 132.864 222.227 134.709 221.808 136.801M221.808 136.801C217.538 158.085 202.495 204.278 217.328 212.432C226.497 217.472 251.602 224.03 256.183 233.762C262.529 247.244 256.183 260.154 254.462 271.581C252.741 283.008 252.741 289.335 254.462 291.498C256.183 293.66 258.848 293.66 263.768 292.596M221.808 136.801C222.591 156.297 225.542 174.787 230.412 193.558C235.466 213.037 275.051 197.68 282.509 221.399C287.237 236.436 283.106 252.576 280.806 265.544C278.506 278.511 281.81 276.983 283.106 277.333C284.402 277.684 291.793 276.094 291.643 276.035M208.098 74.2901C208.405 84.2887 211.61 96.2434 219.876 102.622C225.718 107.13 234.272 110.74 241.264 106.407C251.355 100.154 256.219 87.2563 256.495 74.5168M251.376 51.7179C252.717 54.1019 253.803 56.7654 254.624 59.6062M254.624 59.6062C259.63 60.235 263.7 61.9347 265.101 65.4784C267.179 70.7384 262.53 73.2593 256.495 74.5168M254.624 59.6062C244.507 58.335 230.566 61.4382 227.124 62.5303C221.979 64.1628 219.552 67.2472 220.034 71.5397C220.517 75.8322 232.746 76.4535 239.219 75.9982C242.511 75.7666 250.246 75.8188 256.495 74.5168" stroke="#1E1E1E" stroke-width="5.07208" stroke-linecap="round" stroke-linejoin="round"/>
<path d="M234.642 23.2933L218.935 6.3024L217.154 32.6861L199.53 28.1097C202.056 32.0849 206.112 46.7561 207.824 53.5958C209.636 50.2625 217.416 44.2123 227.91 40.8917C238.404 37.5712 248.786 37.9891 253.432 39.3363C250.711 34.1279 245.324 23.0617 245.547 20.4639C243.543 22.4815 241.641 24.6484 240.238 26.3295" stroke="black" stroke-width="2.53604" stroke-linecap="round" stroke-linejoin="round"/>
</svg>
