<svg width="653" height="399" viewBox="0 0 653 399" fill="none" xmlns="http://www.w3.org/2000/svg">
<path d="M277.272 228C287.466 199.849 281.028 149.578 257.958 135" stroke="#1E1E1E" stroke-width="6" stroke-linecap="round"/>
<path d="M267.591 156C218.091 166 196.091 206.5 195.591 217.5M282.591 153.5C319.591 164.5 306.591 184.5 294.091 199M232.591 155C187.391 147 192.091 174 200.091 188.5M209.591 202C240.091 232.5 263.591 242 297.091 231.5M226.591 232C245.091 260.5 254.591 260.5 271.091 242.5" stroke="#1E1E1E" stroke-width="6" stroke-linecap="round"/>
<circle cx="194.591" cy="225.5" r="7.5" stroke="#1E1E1E" stroke-width="6" stroke-linecap="round"/>
<circle cx="304.591" cy="228.5" r="7.5" stroke="#1E1E1E" stroke-width="6" stroke-linecap="round"/>
<circle cx="249.591" cy="133.5" r="7.5" stroke="#1E1E1E" stroke-width="6" stroke-linecap="round"/>
<circle cx="251.591" cy="195.5" r="7.5" fill="#F6C30F"/>
<path d="M426.89 67.4998C426.89 75.5 441.39 324.5 436.679 332.966C431.967 341.431 71.2634 329.765 63.1027 321.5C51.6216 309.872 63.1027 93.4999 63.1027 71.9999C63.1027 64.5938 60.1142 50 63.1027 46.4999C66.0913 42.9998 424.091 41.4999 426.89 44.4999C429.689 47.5 426.89 57.5 426.89 67.4998Z" stroke="#1E1E1E" stroke-width="6" stroke-linecap="round"/>
<path d="M74.7568 58.3206C74.148 59.0446 73.8596 59.9794 74.1479 60.9046C74.3337 61.5011 75.2764 61.6141 75.802 61.563C76.2801 61.5164 77.0802 61.0806 77.2586 60.6001C77.442 60.1064 77.0634 59.5063 76.806 59.1312C76.5047 58.6921 76.0349 58.4879 75.5345 58.695C75.2161 58.8268 75.0096 59.0287 74.9832 59.3863C74.9793 59.4381 74.979 59.8125 74.979 59.7278" stroke="#1E1E1E" stroke-width="6" stroke-linecap="round"/>
<path d="M88.8292 58.1724C87.6362 58.3893 87.3557 60.5154 88.4671 61.0115C89.0784 61.2845 89.7045 61.2954 90.2364 60.8675C90.69 60.5026 91.3089 59.9506 91.4832 59.3697C91.7333 58.5358 89.616 58.5731 89.2406 58.9048C89.0482 59.0748 88.9005 59.4522 88.9937 59.7113C89.0442 59.8515 89.1856 59.774 89.1254 59.6537" stroke="#1E1E1E" stroke-width="6" stroke-linecap="round"/>
<path d="M103.198 58.913C102.995 58.7329 102.768 58.9108 102.651 59.1023C102.428 59.4661 102.521 60.0568 102.786 60.3779C103.402 61.1231 105.171 61.3275 105.716 60.4314C106.39 59.3236 104.756 58.7441 103.906 58.8472C103.589 58.8855 103.327 59.0551 103.124 59.2834C103.013 59.4077 103.03 59.5056 103.198 59.5056" stroke="#1E1E1E" stroke-width="6" stroke-linecap="round"/>
<path d="M230.091 56.0939C237.694 56.0939 245.332 55.8561 252.927 56.1374C254.838 56.2082 256.731 56.485 258.641 56.485" stroke="#1E1E1E" stroke-width="6" stroke-linecap="round"/>
</svg>
